<svg width="20" height="20" viewBox="0 0 20 20" fill="none" xmlns="http://www.w3.org/2000/svg">
<path d="M14.6668 4.66634H13.3335V3.99967C13.3335 3.82286 13.2633 3.65329 13.1382 3.52827C13.0132 3.40325 12.8436 3.33301 12.6668 3.33301C12.49 3.33301 12.3204 3.40325 12.1954 3.52827C12.0704 3.65329 12.0002 3.82286 12.0002 3.99967V4.66634H8.00016V3.99967C8.00016 3.82286 7.92992 3.65329 7.8049 3.52827C7.67988 3.40325 7.51031 3.33301 7.3335 3.33301C7.15668 3.33301 6.98712 3.40325 6.86209 3.52827C6.73707 3.65329 6.66683 3.82286 6.66683 3.99967V4.66634H5.3335C4.80306 4.66634 4.29436 4.87705 3.91928 5.25213C3.54421 5.6272 3.3335 6.13591 3.3335 6.66634V14.6663C3.3335 15.1968 3.54421 15.7055 3.91928 16.0806C4.29436 16.4556 4.80306 16.6663 5.3335 16.6663H14.6668C15.1973 16.6663 15.706 16.4556 16.081 16.0806C16.4561 15.7055 16.6668 15.1968 16.6668 14.6663V6.66634C16.6668 6.13591 16.4561 5.6272 16.081 5.25213C15.706 4.87705 15.1973 4.66634 14.6668 4.66634ZM15.3335 14.6663C15.3335 14.8432 15.2633 15.0127 15.1382 15.1377C15.0132 15.2628 14.8436 15.333 14.6668 15.333H5.3335C5.15668 15.333 4.98712 15.2628 4.86209 15.1377C4.73707 15.0127 4.66683 14.8432 4.66683 14.6663V9.99967H15.3335V14.6663ZM15.3335 8.66634H4.66683V6.66634C4.66683 6.48953 4.73707 6.31996 4.86209 6.19494C4.98712 6.06991 5.15668 5.99967 5.3335 5.99967H6.66683V6.66634C6.66683 6.84315 6.73707 7.01272 6.86209 7.13775C6.98712 7.26277 7.15668 7.33301 7.3335 7.33301C7.51031 7.33301 7.67988 7.26277 7.8049 7.13775C7.92992 7.01272 8.00016 6.84315 8.00016 6.66634V5.99967H12.0002V6.66634C12.0002 6.84315 12.0704 7.01272 12.1954 7.13775C12.3204 7.26277 12.49 7.33301 12.6668 7.33301C12.8436 7.33301 13.0132 7.26277 13.1382 7.13775C13.2633 7.01272 13.3335 6.84315 13.3335 6.66634V5.99967H14.6668C14.8436 5.99967 15.0132 6.06991 15.1382 6.19494C15.2633 6.31996 15.3335 6.48953 15.3335 6.66634V8.66634Z" fill="white"/>
</svg>
