<svg width="24" height="24" viewBox="0 0 24 24" fill="none" xmlns="http://www.w3.org/2000/svg">
<g clip-path="url(#clip0_816_10897)">
<path d="M12 10C11.6044 10 11.2178 10.1173 10.8889 10.3371C10.56 10.5568 10.3036 10.8692 10.1522 11.2346C10.0009 11.6001 9.96126 12.0022 10.0384 12.3902C10.1156 12.7781 10.3061 13.1345 10.5858 13.4142C10.8655 13.6939 11.2219 13.8844 11.6098 13.9616C11.9978 14.0387 12.3999 13.9991 12.7654 13.8478C13.1308 13.6964 13.4432 13.44 13.6629 13.1111C13.8827 12.7822 14 12.3956 14 12C14 11.4696 13.7893 10.9609 13.4142 10.5858C13.0391 10.2107 12.5304 10 12 10Z" fill="black"/>
<path d="M10.8889 3.33706C11.2178 3.1173 11.6044 3 12 3C12.5304 3 13.0391 3.21071 13.4142 3.58579C13.7893 3.96086 14 4.46957 14 5C14 5.39556 13.8827 5.78224 13.6629 6.11114C13.4432 6.44004 13.1308 6.69638 12.7654 6.84776C12.3999 6.99913 11.9978 7.03874 11.6098 6.96157C11.2219 6.8844 10.8655 6.69392 10.5858 6.41421C10.3061 6.13451 10.1156 5.77814 10.0384 5.39018C9.96126 5.00222 10.0009 4.60009 10.1522 4.23463C10.3036 3.86918 10.56 3.55682 10.8889 3.33706Z" fill="black"/>
<path d="M10.8889 17.3371C11.2178 17.1173 11.6044 17 12 17C12.5304 17 13.0391 17.2107 13.4142 17.5858C13.7893 17.9609 14 18.4696 14 19C14 19.3956 13.8827 19.7822 13.6629 20.1111C13.4432 20.44 13.1308 20.6964 12.7654 20.8478C12.3999 20.9991 11.9978 21.0387 11.6098 20.9616C11.2219 20.8844 10.8655 20.6939 10.5858 20.4142C10.3061 20.1345 10.1156 19.7781 10.0384 19.3902C9.96126 19.0022 10.0009 18.6001 10.1522 18.2346C10.3036 17.8692 10.56 17.5568 10.8889 17.3371Z" fill="black"/>
</g>
<defs>
<clipPath id="clip0_816_10897">
<rect width="24" height="24" fill="white"/>
</clipPath>
</defs>
</svg>
