<svg width="20" height="20" viewBox="0 0 20 20" fill="none" xmlns="http://www.w3.org/2000/svg">
<path d="M4.58366 14.5833H3.33366V5.41668H9.83366L9.16699 6.07501C9.01007 6.23082 8.92148 6.44259 8.9207 6.66373C8.91991 6.88487 9.00701 7.09726 9.16283 7.25418C9.31864 7.4111 9.53041 7.49969 9.75155 7.50047C9.97268 7.50125 10.1851 7.41416 10.342 7.25834L12.4253 5.17501C12.5034 5.09754 12.5654 5.00537 12.6077 4.90382C12.65 4.80227 12.6718 4.69335 12.6718 4.58334C12.6718 4.47333 12.65 4.36441 12.6077 4.26286C12.5654 4.16131 12.5034 4.06915 12.4253 3.99168L10.342 1.90834C10.1859 1.75313 9.97465 1.66602 9.75449 1.66602C9.53434 1.66602 9.32313 1.75313 9.16699 1.90834C9.08889 1.98581 9.02689 2.07798 8.98458 2.17953C8.94228 2.28108 8.92049 2.39 8.92049 2.50001C8.92049 2.61002 8.94228 2.71894 8.98458 2.82049C9.02689 2.92204 9.08889 3.01421 9.16699 3.09168L9.82533 3.75001H2.50033C2.27931 3.75001 2.06735 3.83781 1.91107 3.99409C1.75479 4.15037 1.66699 4.36233 1.66699 4.58334V15.4167C1.66699 15.6377 1.75479 15.8497 1.91107 16.0059C2.06735 16.1622 2.27931 16.25 2.50033 16.25H4.58366C4.80467 16.25 5.01663 16.1622 5.17291 16.0059C5.32919 15.8497 5.41699 15.6377 5.41699 15.4167C5.41699 15.1957 5.32919 14.9837 5.17291 14.8274C5.01663 14.6711 4.80467 14.5833 4.58366 14.5833ZM17.5003 3.75001H15.417C15.196 3.75001 14.984 3.83781 14.8277 3.99409C14.6715 4.15037 14.5837 4.36233 14.5837 4.58334C14.5837 4.80436 14.6715 5.01632 14.8277 5.1726C14.984 5.32888 15.196 5.41668 15.417 5.41668H16.667V14.5833H9.69199L10.3503 13.925C10.4284 13.8475 10.4904 13.7554 10.5327 13.6538C10.575 13.5523 10.5968 13.4434 10.5968 13.3333C10.5968 13.2233 10.575 13.1144 10.5327 13.0129C10.4904 12.9113 10.4284 12.8191 10.3503 12.7417C10.1942 12.5865 9.98298 12.4993 9.76283 12.4993C9.54267 12.4993 9.33146 12.5865 9.17533 12.7417L7.09199 14.825C7.01389 14.9025 6.95189 14.9946 6.90958 15.0962C6.86728 15.1977 6.84549 15.3067 6.84549 15.4167C6.84549 15.5267 6.86728 15.6356 6.90958 15.7372C6.95189 15.8387 7.01389 15.9309 7.09199 16.0083L9.17533 18.0917C9.33225 18.2475 9.54464 18.3346 9.76577 18.3338C9.98691 18.333 10.1987 18.2444 10.3545 18.0875C10.5103 17.9306 10.5974 17.7182 10.5966 17.4971C10.5958 17.2759 10.5072 17.0642 10.3503 16.9083L9.69199 16.25H17.5003C17.7213 16.25 17.9333 16.1622 18.0896 16.0059C18.2459 15.8497 18.3337 15.6377 18.3337 15.4167V4.58334C18.3337 4.36233 18.2459 4.15037 18.0896 3.99409C17.9333 3.83781 17.7213 3.75001 17.5003 3.75001Z" fill="black"/>
</svg>
