<svg width="24" height="24" viewBox="0 0 24 24" fill="current" xmlns="http://www.w3.org/2000/svg">
<path d="M20.7 5.3C20.3 4.9 19.7 4.9 19.3 5.3L11.8 12.8L8.7 9.7C8.3 9.3 7.7 9.3 7.3 9.7C6.9 10.1 6.9 10.7 7.3 11.1L11.1 14.9C11.3 15.1 11.5 15.2 11.8 15.2C12.1 15.2 12.3 15.1 12.5 14.9L20.7 6.7C21.1 6.3 21.1 5.7 20.7 5.3Z" fill="current"/>
<path fill-rule="evenodd" clip-rule="evenodd" d="M20 12C20 16.4183 16.4183 20 12 20C7.58172 20 4 16.4183 4 12C4 7.58172 7.58172 4 12 4C13.3403 4 14.6037 4.32963 15.7134 4.91224C16.1441 5.13834 16.68 5.09154 17.024 4.74759C17.4676 4.30401 17.4103 3.56516 16.8624 3.25969C15.4231 2.45722 13.7649 2 12 2C6.47715 2 2 6.47715 2 12C2 17.5228 6.47715 22 12 22C17.5228 22 22 17.5228 22 12C22 11.4673 21.9583 10.9443 21.8781 10.4341C21.7546 9.64896 20.8084 9.42001 20.2464 9.98199C19.9914 10.237 19.8866 10.6024 19.933 10.96C19.9772 11.3004 20 11.6475 20 12Z" fill="current"/>
</svg>
