<svg width="24" height="24" viewBox="0 0 24 24" fill="none" xmlns="http://www.w3.org/2000/svg">
<path d="M14.4 14.8285L10.3 18.75C8.6 20.45 5.9 20.45 4.3 18.75C2.6 17.05 2.6 14.35 4.3 12.75L12.3 4.75C13.3 3.85 14.8 3.85 15.8 4.75C16.8 5.75 16.8 7.35 15.8 8.25L8.9 15.15C8.6 15.45 8.1 15.45 7.8 15.15C7.5 14.85 7.5 14.35 7.8 14.05L12.9 8.95C13.3 8.55 13.3 7.95 12.9 7.55C12.5 7.15 11.9 7.15 11.5 7.55L6.4 12.75C5.3 13.85 5.3 15.55 6.4 16.65C7.5 17.65 9.2 17.65 10.3 16.65L17.2 9.75C19 7.95 19 5.15 17.2 3.35C15.4 1.55 12.6 1.55 10.8 3.35L2.8 11.35C1.6 12.55 1 14.15 1 15.75C1 19.25 3.8 21.95 7.3 21.95C9 21.95 10.5 21.25 11.7 20.15L15.8 16.2285C16.2 15.8285 16.2 15.2285 15.8 14.8285C15.4 14.4285 14.8 14.4285 14.4 14.8285Z" fill="black"/>
<path d="M18.9747 14.1689L15.7119 14.176C15.5794 14.176 15.4481 14.1499 15.3256 14.0992C15.2032 14.0485 15.0919 13.9741 14.9982 13.8804C14.9044 13.7866 14.8301 13.6754 14.7794 13.5529C14.7286 13.4304 14.7025 13.2992 14.7025 13.1666C14.7025 13.0341 14.7286 12.9028 14.7794 12.7803C14.8301 12.6579 14.9044 12.5466 14.9982 12.4529C15.0919 12.3591 15.2032 12.2848 15.3256 12.2341C15.4481 12.1833 15.5794 12.1572 15.7119 12.1572L21.3986 12.1572C21.531 12.1601 21.6614 12.1891 21.7825 12.2425C22.0267 12.3445 22.2208 12.5386 22.3227 12.7828C22.3762 12.9039 22.4051 13.0343 22.408 13.1666L22.408 18.8533C22.4086 18.9861 22.3828 19.1176 22.3323 19.2403C22.2818 19.363 22.2074 19.4745 22.1136 19.5683C22.0198 19.6621 21.9083 19.7365 21.7856 19.787C21.6629 19.8375 21.5313 19.8633 21.3986 19.8627C21.2659 19.8633 21.1344 19.8375 21.0117 19.787C20.889 19.7365 20.7775 19.6621 20.6837 19.5683C20.5898 19.4745 20.5155 19.363 20.465 19.2403C20.4144 19.1176 20.3887 18.9861 20.3892 18.8533L20.3964 15.5906L13.5794 22.4075C13.3909 22.5961 13.1352 22.702 12.8686 22.702C12.6019 22.702 12.3462 22.5961 12.1577 22.4075C11.9692 22.219 11.8633 21.9633 11.8633 21.6967C11.8633 21.4301 11.9692 21.1744 12.1577 20.9859L18.9747 14.1689Z" fill="currentColor"/>
</svg>
