<svg width="12" height="12" viewBox="0 0 12 12" fill="none" xmlns="http://www.w3.org/2000/svg">
<path d="M10.9999 4.99994H3.4099L6.7099 1.70994C6.8982 1.52164 7.00399 1.26624 7.00399 0.999941C7.00399 0.73364 6.8982 0.478245 6.7099 0.289941C6.52159 0.101638 6.2662 -0.00415039 5.9999 -0.00415039C5.73359 -0.00415039 5.4782 0.101638 5.2899 0.289941L0.289896 5.28994C0.198856 5.38505 0.127491 5.49719 0.0798963 5.61994C-0.0201217 5.8634 -0.0201217 6.13648 0.0798963 6.37994C0.127491 6.50269 0.198856 6.61484 0.289896 6.70994L5.2899 11.7099C5.38286 11.8037 5.49346 11.8781 5.61532 11.9288C5.73718 11.9796 5.86788 12.0057 5.9999 12.0057C6.13191 12.0057 6.26261 11.9796 6.38447 11.9288C6.50633 11.8781 6.61693 11.8037 6.7099 11.7099C6.80363 11.617 6.87802 11.5064 6.92879 11.3845C6.97956 11.2627 7.00569 11.132 7.00569 10.9999C7.00569 10.8679 6.97956 10.7372 6.92879 10.6154C6.87802 10.4935 6.80363 10.3829 6.7099 10.2899L3.4099 6.99994H10.9999C11.2651 6.99994 11.5195 6.89458 11.707 6.70705C11.8945 6.51951 11.9999 6.26516 11.9999 5.99994C11.9999 5.73472 11.8945 5.48037 11.707 5.29283C11.5195 5.1053 11.2651 4.99994 10.9999 4.99994Z" fill="white"/>
</svg>
