<svg width="48" height="48" viewBox="0 0 48 48" fill="none" xmlns="http://www.w3.org/2000/svg">
<rect width="48" height="48" rx="24" fill="#00DDA8" fill-opacity="0.1"/>
<path d="M31 14H17C16.2044 14 15.4413 14.3161 14.8787 14.8787C14.3161 15.4413 14 16.2044 14 17V31C14 31.7956 14.3161 32.5587 14.8787 33.1213C15.4413 33.6839 16.2044 34 17 34H31C31.1645 33.9977 31.3284 33.981 31.49 33.95L31.79 33.88H31.86H31.91L32.28 33.74L32.41 33.67C32.51 33.61 32.62 33.56 32.72 33.49C32.8535 33.3918 32.9805 33.2849 33.1 33.17L33.17 33.08C33.2682 32.9805 33.3585 32.8735 33.44 32.76L33.53 32.63C33.5998 32.5187 33.6601 32.4016 33.71 32.28C33.7374 32.232 33.7609 32.1818 33.78 32.13C33.83 32.01 33.86 31.88 33.9 31.75V31.6C33.9567 31.4046 33.9903 31.2032 34 31V17C34 16.2044 33.6839 15.4413 33.1213 14.8787C32.5587 14.3161 31.7956 14 31 14ZM17 32C16.7348 32 16.4804 31.8946 16.2929 31.7071C16.1054 31.5196 16 31.2652 16 31V26.69L19.29 23.39C19.383 23.2963 19.4936 23.2219 19.6154 23.1711C19.7373 23.1203 19.868 23.0942 20 23.0942C20.132 23.0942 20.2627 23.1203 20.3846 23.1711C20.5064 23.2219 20.617 23.2963 20.71 23.39L29.31 32H17ZM32 31C31.9991 31.1233 31.9753 31.2453 31.93 31.36C31.9071 31.4087 31.8804 31.4556 31.85 31.5C31.8232 31.5423 31.7931 31.5825 31.76 31.62L26.41 26.27L27.29 25.39C27.383 25.2963 27.4936 25.2219 27.6154 25.1711C27.7373 25.1203 27.868 25.0942 28 25.0942C28.132 25.0942 28.2627 25.1203 28.3846 25.1711C28.5064 25.2219 28.617 25.2963 28.71 25.39L32 28.69V31ZM32 25.86L30.12 24C29.5477 23.457 28.7889 23.1543 28 23.1543C27.2111 23.1543 26.4523 23.457 25.88 24L25 24.88L22.12 22C21.5477 21.457 20.7889 21.1543 20 21.1543C19.2111 21.1543 18.4523 21.457 17.88 22L16 23.86V17C16 16.7348 16.1054 16.4804 16.2929 16.2929C16.4804 16.1054 16.7348 16 17 16H31C31.2652 16 31.5196 16.1054 31.7071 16.2929C31.8946 16.4804 32 16.7348 32 17V25.86Z" fill="black"/>
</svg>
