<svg width="20" height="20" viewBox="0 0 20 20" fill="none" xmlns="http://www.w3.org/2000/svg">
<circle cx="10" cy="10" r="10" fill="#333333"/>
<g clip-path="url(#clip0_3254_10753)">
<path d="M10.8226 10.0001L14.4976 6.33094C14.6075 6.2211 14.6692 6.07212 14.6692 5.91677C14.6692 5.76143 14.6075 5.61245 14.4976 5.50261C14.3878 5.39276 14.2388 5.33105 14.0835 5.33105C13.9281 5.33105 13.7791 5.39276 13.6693 5.50261L10.0001 9.17761L6.33096 5.50261C6.22112 5.39276 6.07214 5.33105 5.91679 5.33105C5.76145 5.33105 5.61247 5.39276 5.50263 5.50261C5.39278 5.61245 5.33107 5.76143 5.33107 5.91677C5.33107 6.07212 5.39278 6.2211 5.50263 6.33094L9.17763 10.0001L5.50263 13.6693C5.44795 13.7235 5.40456 13.788 5.37494 13.8591C5.34533 13.9302 5.33008 14.0064 5.33008 14.0834C5.33008 14.1604 5.34533 14.2367 5.37494 14.3078C5.40456 14.3789 5.44795 14.4434 5.50263 14.4976C5.55686 14.5523 5.62137 14.5957 5.69246 14.6253C5.76354 14.6549 5.83979 14.6702 5.91679 14.6702C5.9938 14.6702 6.07005 14.6549 6.14113 14.6253C6.21221 14.5957 6.27673 14.5523 6.33096 14.4976L10.0001 10.8226L13.6693 14.4976C13.7235 14.5523 13.788 14.5957 13.8591 14.6253C13.9302 14.6549 14.0065 14.6702 14.0835 14.6702C14.1605 14.6702 14.2367 14.6549 14.3078 14.6253C14.3789 14.5957 14.4434 14.5523 14.4976 14.4976C14.5523 14.4434 14.5957 14.3789 14.6253 14.3078C14.6549 14.2367 14.6702 14.1604 14.6702 14.0834C14.6702 14.0064 14.6549 13.9302 14.6253 13.8591C14.5957 13.788 14.5523 13.7235 14.4976 13.6693L10.8226 10.0001Z" fill="#A6A6A6"/>
</g>
<defs>
<clipPath id="clip0_3254_10753">
<rect width="14" height="14" fill="white" transform="translate(3 3)"/>
</clipPath>
</defs>
</svg>
