<svg width="229" height="210" viewBox="0 0 229 210" fill="none" xmlns="http://www.w3.org/2000/svg">
<ellipse cx="114.5" cy="182.5" rx="114.5" ry="27.5" fill="#4D4D4D"/>
<path d="M81.0108 173.413L79.9883 159.737L42.531 162.52C41.8844 161.592 41.3581 161.008 41.3581 161.008C41.3581 161.008 30.5766 149.756 26.0655 154.978C21.5393 160.2 32.8171 176.42 37.5086 176.585C38.1402 176.6 38.7266 176.57 39.268 176.48V176.51L81.0258 173.413H81.0108Z" fill="#171717"/>
<mask id="mask0_2094_2715" style="mask-type:luminance" maskUnits="userSpaceOnUse" x="25" y="153" width="57" height="24">
<path d="M81.0108 173.413L79.9883 159.737L42.531 162.52C41.8844 161.592 41.3581 161.008 41.3581 161.008C41.3581 161.008 30.5766 149.756 26.0655 154.978C21.5393 160.2 32.8171 176.42 37.5086 176.585C38.1402 176.6 38.7266 176.57 39.268 176.48V176.51L81.0258 173.413H81.0108Z" fill="white"/>
</mask>
<g mask="url(#mask0_2094_2715)">
<path d="M63.8974 196.98L60.4739 151.245L14.5127 154.652L17.9363 200.387L63.8974 196.98Z" fill="#00DDA8"/>
</g>
<path d="M58.4101 172.515C59.1824 172.515 59.8085 171.892 59.8085 171.123C59.8085 170.354 59.1824 169.731 58.4101 169.731C57.6378 169.731 57.0117 170.354 57.0117 171.123C57.0117 171.892 57.6378 172.515 58.4101 172.515Z" fill="#4D4D4D"/>
<path d="M54.29 172.829C55.0623 172.829 55.6884 172.206 55.6884 171.437C55.6884 170.669 55.0623 170.046 54.29 170.046C53.5176 170.046 52.8915 170.669 52.8915 171.437C52.8915 172.206 53.5176 172.829 54.29 172.829Z" fill="#4D4D4D"/>
<path d="M143.385 46.9017L49.1024 199.314L178.015 183.11L191.413 130.979L143.4 46.8867L143.385 46.9017Z" fill="#D968D3"/>
<path d="M81.3266 139.088C83.8979 139.133 108.935 139.432 112.363 129.093C113.446 125.846 112.889 119.981 110.498 119.083C108.829 118.454 106.002 120.13 106.002 121.582C106.002 124.784 119.686 129.063 132.197 127.866C144.452 126.699 158.286 120.01 158.046 114.145C157.925 111.182 154.181 107.98 151.55 108.489C149.189 108.953 147.053 112.514 147.745 115.103C149.339 121.207 167.549 125.607 179.804 118.305C185.383 114.983 188.345 110.075 189.759 107.202" stroke="white" stroke-miterlimit="10"/>
<path d="M121.822 90.6382L218.389 60.6075L130.648 10.3469C126.107 7.24961 121.025 4.91539 115.626 3.85302C101.657 1.11479 86.4995 4.8705 75.1616 15.6738C59.3577 30.7265 56.651 55.3555 68.8009 73.4458C77.5525 86.4785 91.582 93.4213 105.867 93.7056C111.341 93.8253 116.754 92.6432 121.837 90.6232L121.822 90.6382Z" fill="#00DDA8"/>
<path d="M105.055 84.7584C125.252 84.7584 141.625 68.466 141.625 48.3684C141.625 28.2708 125.252 11.9785 105.055 11.9785C84.8579 11.9785 68.4849 28.2708 68.4849 48.3684C68.4849 68.466 84.8579 84.7584 105.055 84.7584Z" fill="#D968D3"/>
<mask id="mask1_2094_2715" style="mask-type:luminance" maskUnits="userSpaceOnUse" x="68" y="11" width="74" height="74">
<path d="M105.055 84.7584C125.252 84.7584 141.625 68.466 141.625 48.3684C141.625 28.2708 125.252 11.9785 105.055 11.9785C84.8579 11.9785 68.4849 28.2708 68.4849 48.3684C68.4849 68.466 84.8579 84.7584 105.055 84.7584Z" fill="white"/>
</mask>
<g mask="url(#mask1_2094_2715)">
<path d="M136.843 21.0457L120.513 10.1826L84.755 12.6515L68.8608 30.5622L64.7557 30.6071C64.7557 30.6071 69.6578 56.7025 83.1009 33.465C84.8603 39.4651 90.033 51.4056 100.348 34.1234C102.303 40.3629 107.611 51.1063 117.836 33.3752H117.867C119.716 39.7345 125.46 53.1413 137.219 30.3677L136.843 21.0308V21.0457Z" fill="#171717"/>
</g>
<path d="M73.2971 56.9415C73.2971 56.9415 76.2744 49.5049 82.5599 49.5049C88.8454 49.5049 91.6874 56.9415 91.6874 56.9415C91.6874 56.9415 90.0333 64.6324 82.4847 64.6324C74.9361 64.6324 73.282 56.9415 73.282 56.9415H73.2971Z" fill="white"/>
<mask id="mask2_2094_2715" style="mask-type:luminance" maskUnits="userSpaceOnUse" x="73" y="49" width="19" height="16">
<path d="M73.2971 56.9415C73.2971 56.9415 76.2744 49.5049 82.5599 49.5049C88.8454 49.5049 91.6874 56.9415 91.6874 56.9415C91.6874 56.9415 90.0333 64.6324 82.4847 64.6324C74.9361 64.6324 73.282 56.9415 73.282 56.9415H73.2971Z" fill="white"/>
</mask>
<g mask="url(#mask2_2094_2715)">
<path d="M83.387 71.1565C81.4923 56.7322 83.387 43.5498 83.387 43.5498L71.9137 50.4178L70.8461 60.3382L83.387 71.1565Z" fill="#171717"/>
</g>
<path d="M95.8526 56.9415C95.8526 56.9415 98.83 49.5049 105.115 49.5049C111.401 49.5049 114.243 56.9415 114.243 56.9415C114.243 56.9415 112.589 64.6324 105.04 64.6324C97.4917 64.6324 95.8376 56.9415 95.8376 56.9415H95.8526Z" fill="white"/>
<mask id="mask3_2094_2715" style="mask-type:luminance" maskUnits="userSpaceOnUse" x="95" y="49" width="20" height="16">
<path d="M95.8526 56.9415C95.8526 56.9415 98.83 49.5049 105.115 49.5049C111.401 49.5049 114.243 56.9415 114.243 56.9415C114.243 56.9415 112.589 64.6324 105.04 64.6324C97.4917 64.6324 95.8376 56.9415 95.8376 56.9415H95.8526Z" fill="white"/>
</mask>
<g mask="url(#mask3_2094_2715)">
<path d="M105.943 71.1565C104.048 56.7322 105.943 43.5498 105.943 43.5498L94.4692 50.4178L93.4016 60.3382L105.943 71.1565Z" fill="#171717"/>
</g>
<path d="M93.5519 67.8645C96.6745 67.8645 99.2058 65.3456 99.2058 62.2384C99.2058 59.1312 96.6745 56.6123 93.5519 56.6123C90.4293 56.6123 87.8979 59.1312 87.8979 62.2384C87.8979 65.3456 90.4293 67.8645 93.5519 67.8645Z" fill="#00DDA8"/>
<path d="M89.4769 71.2167C89.6874 75.6009 93.5069 78.2343 96.2286 77.6508C98.7698 77.1121 101.025 73.6407 100.033 69.7803" stroke="white" stroke-miterlimit="10" stroke-linecap="round"/>
<path d="M93.5518 188.421L91.5368 174.865L54.3803 180.341C53.6736 179.458 53.1022 178.92 53.1022 178.92C53.1022 178.92 41.5387 168.476 37.4035 174.012C33.2834 179.548 45.6889 194.915 50.3805 194.736C51.012 194.706 51.5834 194.631 52.1248 194.511V194.541L93.5518 188.436V188.421Z" fill="#171717"/>
<mask id="mask4_2094_2715" style="mask-type:luminance" maskUnits="userSpaceOnUse" x="36" y="172" width="58" height="23">
<path d="M93.5518 188.421L91.5368 174.865L54.3803 180.341C53.6736 179.458 53.1022 178.92 53.1022 178.92C53.1022 178.92 41.5387 168.476 37.4035 174.012C33.2834 179.548 45.6889 194.915 50.3805 194.736C51.012 194.706 51.5834 194.631 52.1248 194.511V194.541L93.5518 188.436V188.421Z" fill="white"/>
</mask>
<g mask="url(#mask4_2094_2715)">
<path d="M78.2015 213.166L71.4528 167.799L25.8611 174.514L32.6097 219.881L78.2015 213.166Z" fill="#00DDA8"/>
</g>
<path d="M70.8308 189.17C71.6032 189.17 72.2293 188.547 72.2293 187.778C72.2293 187.01 71.6032 186.387 70.8308 186.387C70.0585 186.387 69.4324 187.01 69.4324 187.778C69.4324 188.547 70.0585 189.17 70.8308 189.17Z" fill="#4D4D4D"/>
<path d="M66.7558 189.767C67.5281 189.767 68.1542 189.144 68.1542 188.376C68.1542 187.607 67.5281 186.984 66.7558 186.984C65.9835 186.984 65.3574 187.607 65.3574 188.376C65.3574 189.144 65.9835 189.767 66.7558 189.767Z" fill="#4D4D4D"/>
</svg>
