<svg width="203" height="202" viewBox="0 0 203 202" fill="none" xmlns="http://www.w3.org/2000/svg">
<path d="M50.0734 152.068L59.8174 142.372L33.262 115.948C33.5477 114.855 33.6529 114.077 33.6529 114.077C33.6529 114.077 35.1867 98.6057 28.2546 98.6057C21.3226 98.6057 16.3303 117.683 19.2775 121.319C19.6685 121.813 20.0895 122.217 20.4955 122.576L20.4654 122.606L50.0734 152.068Z" fill="#00DDA8"/>
<mask id="mask0_1746_20440" style="mask-type:luminance" maskUnits="userSpaceOnUse" x="18" y="98" width="42" height="55">
<path d="M50.0734 152.068L59.8174 142.372L33.262 115.948C33.5477 114.855 33.6529 114.077 33.6529 114.077C33.6529 114.077 35.1867 98.6057 28.2546 98.6057C21.3226 98.6057 16.3303 117.683 19.2775 121.319C19.6685 121.813 20.0895 122.217 20.4955 122.576L20.4654 122.606L50.0734 152.068Z" fill="white"/>
</mask>
<g mask="url(#mask0_1746_20440)">
<path d="M20.952 154.562L53.5415 122.133L20.952 89.7038L-11.6375 122.133L20.952 154.562Z" fill="#171717"/>
</g>
<path d="M37.0513 132.152C36.2789 132.152 35.6528 132.775 35.6528 133.544C35.6528 134.313 36.2789 134.936 37.0513 134.936C37.8236 134.936 38.4497 134.313 38.4497 133.544C38.4497 132.775 37.8236 132.152 37.0513 132.152Z" fill="#4D4D4D"/>
<path d="M34.1341 129.25C33.3618 129.25 32.7357 129.873 32.7357 130.642C32.7357 131.41 33.3618 132.033 34.1341 132.033C34.9065 132.033 35.5326 131.41 35.5326 130.642C35.5326 129.873 34.9065 129.25 34.1341 129.25Z" fill="#4D4D4D"/>
<path d="M136.942 172.927L165.573 108.047L127.409 46.3251L116.281 89.0443L28.8111 84.301L49.487 134.936L109.921 119.105L109.921 144.422L25.6382 134.921L36.7656 199.83L136.942 172.927Z" fill="#FF5858"/>
<path d="M48.7501 173.585L54.5544 161.151L20.4956 145.38C20.3903 144.258 20.2249 143.494 20.2249 143.494C20.2249 143.494 16.3303 128.442 9.81926 130.806C3.30823 133.17 5.18785 152.801 9.21778 155.21C9.75911 155.54 10.2854 155.779 10.7967 155.974L10.7967 156.003L48.7501 173.57L48.7501 173.585Z" fill="#00DDA8"/>
<mask id="mask1_1746_20440" style="mask-type:luminance" maskUnits="userSpaceOnUse" x="5" y="130" width="50" height="44">
<path d="M48.7501 173.585L54.5544 161.151L20.4956 145.38C20.3903 144.258 20.2249 143.494 20.2249 143.494C20.2249 143.494 16.3303 128.442 9.81926 130.806C3.30823 133.17 5.18785 152.801 9.21778 155.21C9.75911 155.54 10.2854 155.779 10.7967 155.974L10.7967 156.003L48.7501 173.57L48.7501 173.585Z" fill="white"/>
</mask>
<g mask="url(#mask1_1746_20440)">
<path d="M22.2413 185.858L41.6827 144.276L-0.104623 124.931L-19.546 166.512L22.2413 185.858Z" fill="#171717"/>
</g>
<path d="M30.1343 159.221C29.3619 159.221 28.7358 159.844 28.7358 160.612C28.7358 161.381 29.3619 162.004 30.1343 162.004C30.9066 162.004 31.5327 161.381 31.5327 160.612C31.5327 159.844 30.9066 159.221 30.1343 159.221Z" fill="#4D4D4D"/>
<path d="M26.3901 157.5C25.6178 157.5 24.9917 158.123 24.9917 158.892C24.9917 159.66 25.6178 160.283 26.3901 160.283C27.1625 160.283 27.7886 159.66 27.7886 158.892C27.7886 158.123 27.1625 157.5 26.3901 157.5Z" fill="#4D4D4D"/>
<path d="M148.927 138.526L148.927 131.404" stroke="white" stroke-miterlimit="10"/>
<path d="M140.852 130.477L140.852 123.354" stroke="white" stroke-miterlimit="10"/>
<path d="M132.762 122.441L132.762 115.319" stroke="white" stroke-miterlimit="10"/>
<path d="M124.687 114.406L124.687 107.284" stroke="white" stroke-miterlimit="10"/>
<path d="M116.612 106.356L116.612 99.2341" stroke="white" stroke-miterlimit="10"/>
<path d="M140.852 148.014L140.852 140.891" stroke="white" stroke-miterlimit="10"/>
<path d="M132.762 139.979L132.762 132.856" stroke="white" stroke-miterlimit="10"/>
<path d="M124.687 131.928L124.687 124.805" stroke="white" stroke-miterlimit="10"/>
<path d="M116.612 123.893L116.612 116.77" stroke="white" stroke-miterlimit="10"/>
<path d="M140.852 165.55L140.852 158.427" stroke="white" stroke-miterlimit="10"/>
<path d="M132.762 157.5L132.762 150.378" stroke="white" stroke-miterlimit="10"/>
<path d="M148.927 102.795L148.927 95.6726" stroke="white" stroke-miterlimit="10"/>
<path d="M148.927 120.332L148.927 113.21" stroke="white" stroke-miterlimit="10"/>
<path d="M140.852 112.297L140.852 105.175" stroke="white" stroke-miterlimit="10"/>
<path d="M132.762 104.262L132.762 97.1394" stroke="white" stroke-miterlimit="10"/>
<path d="M124.687 149.465L124.687 142.342" stroke="white" stroke-miterlimit="10"/>
<path d="M116.612 141.43L116.612 134.307" stroke="white" stroke-miterlimit="10"/>
<path d="M97.3949 93.2036L198.564 94.7598L131.033 19.6906C127.695 15.3364 123.604 11.5358 118.808 8.84243C106.402 1.88465 90.8237 0.732504 76.6589 7.46583C56.9152 16.8327 46.5848 39.3818 52.4342 60.3599C56.6445 75.4575 67.787 86.4254 81.2602 91.1537C86.4179 92.9642 91.9365 93.5328 97.3949 93.2036Z" fill="#00DDA8"/>
<path d="M97.1995 12.478C77.0024 12.478 60.6294 28.7703 60.6294 48.8679C60.6294 68.9655 77.0024 85.2578 97.1995 85.2578C117.397 85.2578 133.77 68.9655 133.77 48.8679C133.77 28.7703 117.397 12.478 97.1995 12.478Z" fill="#FF5858"/>
<mask id="mask2_1746_20440" style="mask-type:luminance" maskUnits="userSpaceOnUse" x="60" y="12" width="74" height="74">
<path d="M97.1995 12.478C77.0024 12.478 60.6294 28.7703 60.6294 48.8679C60.6294 68.9655 77.0024 85.2578 97.1995 85.2578C117.397 85.2578 133.77 68.9655 133.77 48.8679C133.77 28.7703 117.397 12.478 97.1995 12.478Z" fill="white"/>
</mask>
<g mask="url(#mask2_1746_20440)">
<path d="M128.988 21.5455L112.658 10.6824L76.8994 13.1513L61.0053 31.0619L56.9002 31.1068C56.9002 31.1068 61.8022 57.2022 75.2453 33.9647C77.0047 39.9649 82.1774 51.9053 92.4928 34.6231C94.4476 40.8627 99.7557 51.6061 109.981 33.875L110.011 33.875C111.861 40.2342 117.605 53.641 129.364 30.8674L128.988 21.5305L128.988 21.5455Z" fill="#171717"/>
</g>
<path d="M78.2528 65.9712C83.1248 62.9038 81.4105 55.138 81.2151 54.3001C81.0647 53.6716 79.2001 46.1752 74.1477 45.5767C69.6516 45.038 65.366 50.305 64.6894 55.2128C64.2383 58.4747 65.1856 63.1133 69.02 65.5223C71.5011 67.0934 75.3356 67.8116 78.2528 65.9712Z" fill="white"/>
<mask id="mask3_1746_20440" style="mask-type:luminance" maskUnits="userSpaceOnUse" x="64" y="45" width="18" height="23">
<path d="M78.2528 65.9712C83.1248 62.9038 81.4105 55.138 81.2151 54.3001C81.0647 53.6716 79.2001 46.1752 74.1477 45.5767C69.6516 45.038 65.366 50.305 64.6894 55.2128C64.2383 58.4747 65.1856 63.1133 69.02 65.5223C71.5011 67.0934 75.3356 67.8116 78.2528 65.9712Z" fill="white"/>
</mask>
<g mask="url(#mask3_1746_20440)">
<path d="M64.148 52.8785C63.9525 55.7364 65.6367 59.522 68.8696 60.1056C72.1176 60.6891 74.8995 57.6666 75.8318 55.1079C77.1551 51.5019 75.6213 46.6838 72.5838 45.7112C69.2005 44.6339 64.4488 48.5093 64.148 52.8785Z" fill="#171717"/>
</g>
<path d="M101.47 65.9712C106.342 62.9038 104.628 55.138 104.432 54.3001C104.282 53.6716 102.417 46.1752 97.3648 45.5767C92.8687 45.038 88.5832 50.305 87.9065 55.2128C87.4554 58.4747 88.4027 63.1133 92.2372 65.5223C94.7183 67.0934 98.5527 67.8116 101.47 65.9712Z" fill="white"/>
<mask id="mask4_1746_20440" style="mask-type:luminance" maskUnits="userSpaceOnUse" x="87" y="45" width="18" height="23">
<path d="M101.47 65.9712C106.342 62.9038 104.628 55.138 104.432 54.3001C104.282 53.6716 102.417 46.1752 97.3648 45.5767C92.8687 45.038 88.5832 50.305 87.9065 55.2128C87.4554 58.4747 88.4027 63.1133 92.2372 65.5223C94.7183 67.0934 98.5527 67.8116 101.47 65.9712Z" fill="white"/>
</mask>
<g mask="url(#mask4_1746_20440)">
<path d="M87.3652 52.8785C87.1697 55.7364 88.8538 59.522 92.0868 60.1056C95.3348 60.6891 98.1167 57.6666 99.049 55.1079C100.372 51.5019 98.8384 46.6838 95.801 45.7112C92.4176 44.6339 87.6659 48.5093 87.3652 52.8785Z" fill="#171717"/>
</g>
<path d="M84.4932 57.0232C81.3706 57.0232 78.8392 59.5421 78.8392 62.6493C78.8392 65.7565 81.3706 68.2754 84.4932 68.2754C87.6157 68.2754 90.1471 65.7565 90.1471 62.6493C90.1471 59.5421 87.6157 57.0232 84.4932 57.0232Z" fill="#00DDA8"/>
</svg>
