<svg width="153" height="140" viewBox="0 0 153 140" fill="none" xmlns="http://www.w3.org/2000/svg">
<g clip-path="url(#clip0_58_40)">
<path d="M76.5 140C118.75 140 153 131.941 153 122C153 112.059 118.75 104 76.5 104C34.2502 104 0 112.059 0 122C0 131.941 34.2502 140 76.5 140Z" fill="#2F2F2F"/>
</g>
<path d="M69.63 120.39C70.1436 120.39 70.56 119.973 70.56 119.46C70.56 118.946 70.1436 118.53 69.63 118.53C69.1163 118.53 68.7 118.946 68.7 119.46C68.7 119.973 69.1163 120.39 69.63 120.39Z" fill="#4D4D4D"/>
<path d="M67.0699 121.37C67.5835 121.37 67.9999 120.953 67.9999 120.44C67.9999 119.926 67.5835 119.51 67.0699 119.51C66.5563 119.51 66.1399 119.926 66.1399 120.44C66.1399 120.953 66.5563 121.37 67.0699 121.37Z" fill="#4D4D4D"/>
<path d="M66.7458 107.389L66.0658 98.2495L41.1558 100.109C40.7258 99.4895 40.3758 99.0995 40.3758 99.0995C40.3758 99.0995 33.2058 91.5796 30.2058 95.0696C27.1958 98.5595 34.6958 109.399 37.8158 109.509C38.2358 109.519 38.6258 109.499 38.9858 109.439V109.459L66.7558 107.389H66.7458Z" fill="black"/>
<mask id="mask0_58_40" style="mask-type:luminance" maskUnits="userSpaceOnUse" x="29" y="94" width="38" height="16">
<path d="M66.7458 107.389L66.0658 98.2495L41.1558 100.109C40.7258 99.4895 40.3758 99.0995 40.3758 99.0995C40.3758 99.0995 33.2058 91.5796 30.2058 95.0696C27.1958 98.5595 34.6958 109.399 37.8158 109.509C38.2358 109.519 38.6258 109.499 38.9858 109.439V109.459L66.7558 107.389H66.7458Z" fill="white"/>
</mask>
<g mask="url(#mask0_58_40)">
<path d="M55.3732 123.15L53.0965 92.5854L22.5311 94.8622L24.8079 125.427L55.3732 123.15Z" fill="#00DDA8"/>
</g>
<path d="M51.7159 106.8C52.2295 106.8 52.6459 106.384 52.6459 105.87C52.6459 105.356 52.2295 104.94 51.7159 104.94C51.2023 104.94 50.7859 105.356 50.7859 105.87C50.7859 106.384 51.2023 106.8 51.7159 106.8Z" fill="#4D4D4D"/>
<path d="M48.9757 107C49.4893 107 49.9057 106.584 49.9057 106.07C49.9057 105.557 49.4893 105.14 48.9757 105.14C48.4621 105.14 48.0457 105.557 48.0457 106.07C48.0457 106.584 48.4621 107 48.9757 107Z" fill="#4D4D4D"/>
<path d="M144.186 24.5596L129.006 91.3596L59.1659 85.2896L74.3459 97.4396L98.7759 117.609L70.9359 130.66L59.1659 85.2996H56.1259L47.0159 57.9696L144.186 24.5596Z" fill="#6F50CB"/>
<path d="M75.0058 118.63L71.7458 110.07L48.3958 118.96C47.8058 118.49 47.3658 118.21 47.3658 118.21C47.3658 118.21 38.3558 113.05 36.4658 117.25C34.5758 121.45 44.8558 129.7 47.8758 128.92C48.2858 128.81 48.6458 128.68 48.9758 128.52V128.54L75.0058 118.63Z" fill="black"/>
<mask id="mask1_58_40" style="mask-type:luminance" maskUnits="userSpaceOnUse" x="36" y="110" width="40" height="19">
<path d="M75.0058 118.63L71.7458 110.07L48.3958 118.96C47.8058 118.49 47.3658 118.21 47.3658 118.21C47.3658 118.21 38.3558 113.05 36.4658 117.25C34.5758 121.45 44.8558 129.7 47.8758 128.92C48.2858 128.81 48.6458 128.68 48.9758 128.52V128.54L75.0058 118.63Z" fill="white"/>
</mask>
<g mask="url(#mask1_58_40)">
<path d="M68.5915 136.993L57.6875 108.348L29.0427 119.252L39.9467 147.897L68.5915 136.993Z" fill="#00DDA8"/>
</g>
<path d="M109.304 70.1309L80.3965 53.4409L78.7715 56.2555L107.679 72.9455L109.304 70.1309Z" fill="white"/>
<path d="M63.466 59.8497L130.136 50.7797L78.206 7.91968C75.566 5.36968 72.506 3.26968 69.076 1.97968C60.226 -1.38032 49.866 -0.580317 41.226 5.27968C29.186 13.4397 24.656 29.3697 30.606 42.6397C34.886 52.1997 43.316 58.3297 52.646 60.1097C56.216 60.7897 59.906 60.6197 63.456 59.8497H63.466Z" fill="#00DDA8"/>
<path d="M57.5959 54.5897C71.0275 54.5897 81.9159 43.7013 81.9159 30.2697C81.9159 16.8381 71.0275 5.94971 57.5959 5.94971C44.1643 5.94971 33.2759 16.8381 33.2759 30.2697C33.2759 43.7013 44.1643 54.5897 57.5959 54.5897Z" fill="#6F50CB"/>
<mask id="mask2_58_40" style="mask-type:luminance" maskUnits="userSpaceOnUse" x="33" y="5" width="49" height="50">
<path d="M57.5959 54.5897C71.0275 54.5897 81.9159 43.7013 81.9159 30.2697C81.9159 16.8381 71.0275 5.94971 57.5959 5.94971C44.1643 5.94971 33.2759 16.8381 33.2759 30.2697C33.2759 43.7013 44.1643 54.5897 57.5959 54.5897Z" fill="white"/>
</mask>
<g mask="url(#mask2_58_40)">
<path d="M78.7259 11.9997L67.8659 4.73975L44.0859 6.38975L33.5159 18.3597L30.7859 18.3897C30.7859 18.3897 34.0459 35.8297 42.9859 20.2997C44.1559 24.3097 47.5959 32.2897 54.4559 20.7397C55.7559 24.9097 59.2859 32.0897 66.0859 20.2397H66.1059C67.3359 24.4897 71.1559 33.4497 78.9759 18.2297L78.7259 11.9897V11.9997Z" fill="black"/>
</g>
<path d="M42.116 28.1597H41.576C39.1405 28.1597 37.166 30.1341 37.166 32.5697V36.5097C37.166 38.9452 39.1405 40.9197 41.576 40.9197H42.116C44.5516 40.9197 46.526 38.9452 46.526 36.5097V32.5697C46.526 30.1341 44.5516 28.1597 42.116 28.1597Z" fill="white"/>
<path d="M44.6721 34.53L40.8467 30.7046L37.0213 34.53L40.8467 38.3555L44.6721 34.53Z" fill="black"/>
<path d="M55.5357 28.1597H54.9957C52.5601 28.1597 50.5857 30.1341 50.5857 32.5697V36.5097C50.5857 38.9452 52.5601 40.9197 54.9957 40.9197H55.5357C57.9713 40.9197 59.9457 38.9452 59.9457 36.5097V32.5697C59.9457 30.1341 57.9713 28.1597 55.5357 28.1597Z" fill="white"/>
<path d="M58.0913 34.5295L54.2659 30.7041L50.4404 34.5295L54.2659 38.355L58.0913 34.5295Z" fill="black"/>
<path d="M48.3259 43.1797C50.4025 43.1797 52.0859 41.4962 52.0859 39.4197C52.0859 37.3431 50.4025 35.6597 48.3259 35.6597C46.2493 35.6597 44.5659 37.3431 44.5659 39.4197C44.5659 41.4962 46.2493 43.1797 48.3259 43.1797Z" fill="#00DDA8"/>
<defs>
<clipPath id="clip0_58_40">
<rect width="153" height="36" fill="white" transform="translate(0 104)"/>
</clipPath>
</defs>
</svg>
