<svg width="229" height="210" viewBox="0 0 229 210" fill="none" xmlns="http://www.w3.org/2000/svg">
<ellipse cx="114.5" cy="182.5" rx="114.5" ry="27.5" fill="#4D4D4D"/>
<path d="M69.0734 152.068L78.8174 142.372L52.262 115.948C52.5477 114.855 52.6529 114.077 52.6529 114.077C52.6529 114.077 54.1867 98.6057 47.2546 98.6057C40.3226 98.6057 35.3303 117.683 38.2775 121.319C38.6685 121.813 39.0895 122.217 39.4955 122.576L39.4654 122.606L69.0734 152.068Z" fill="#00DDA8"/>
<mask id="mask0_2094_2717" style="mask-type:luminance" maskUnits="userSpaceOnUse" x="37" y="98" width="42" height="55">
<path d="M69.0734 152.068L78.8174 142.372L52.262 115.948C52.5477 114.855 52.6529 114.077 52.6529 114.077C52.6529 114.077 54.1867 98.6057 47.2546 98.6057C40.3226 98.6057 35.3303 117.683 38.2775 121.319C38.6685 121.813 39.0895 122.217 39.4955 122.576L39.4654 122.606L69.0734 152.068Z" fill="white"/>
</mask>
<g mask="url(#mask0_2094_2717)">
<path d="M39.952 154.562L72.5415 122.133L39.952 89.7038L7.3625 122.133L39.952 154.562Z" fill="#171717"/>
</g>
<path d="M56.0513 132.152C55.2789 132.152 54.6528 132.775 54.6528 133.544C54.6528 134.313 55.2789 134.936 56.0513 134.936C56.8236 134.936 57.4497 134.313 57.4497 133.544C57.4497 132.775 56.8236 132.152 56.0513 132.152Z" fill="#4D4D4D"/>
<path d="M53.1341 129.25C52.3618 129.25 51.7357 129.873 51.7357 130.642C51.7357 131.41 52.3618 132.033 53.1341 132.033C53.9065 132.033 54.5326 131.41 54.5326 130.642C54.5326 129.873 53.9065 129.25 53.1341 129.25Z" fill="#4D4D4D"/>
<path d="M155.942 172.927L184.573 108.047L146.409 46.3251L135.281 89.0443L47.8111 84.301L68.487 134.936L128.921 119.105L128.921 144.422L44.6382 134.921L55.7656 199.83L155.942 172.927Z" fill="#FF5858"/>
<path d="M67.7501 173.585L73.5544 161.151L39.4956 145.38C39.3903 144.258 39.2249 143.494 39.2249 143.494C39.2249 143.494 35.3303 128.442 28.8193 130.806C22.3082 133.17 24.1879 152.801 28.2178 155.21C28.7591 155.54 29.2854 155.779 29.7967 155.974L29.7967 156.003L67.7501 173.57L67.7501 173.585Z" fill="#00DDA8"/>
<mask id="mask1_2094_2717" style="mask-type:luminance" maskUnits="userSpaceOnUse" x="24" y="130" width="50" height="44">
<path d="M67.7501 173.585L73.5544 161.151L39.4956 145.38C39.3903 144.258 39.2249 143.494 39.2249 143.494C39.2249 143.494 35.3303 128.442 28.8193 130.806C22.3082 133.17 24.1879 152.801 28.2178 155.21C28.7591 155.54 29.2854 155.779 29.7967 155.974L29.7967 156.003L67.7501 173.57L67.7501 173.585Z" fill="white"/>
</mask>
<g mask="url(#mask1_2094_2717)">
<path d="M41.2413 185.858L60.6827 144.276L18.8954 124.931L-0.546013 166.512L41.2413 185.858Z" fill="#171717"/>
</g>
<path d="M49.1343 159.221C48.3619 159.221 47.7358 159.844 47.7358 160.612C47.7358 161.381 48.3619 162.004 49.1343 162.004C49.9066 162.004 50.5327 161.381 50.5327 160.612C50.5327 159.844 49.9066 159.221 49.1343 159.221Z" fill="#4D4D4D"/>
<path d="M45.3901 157.5C44.6178 157.5 43.9917 158.123 43.9917 158.892C43.9917 159.66 44.6178 160.283 45.3901 160.283C46.1625 160.283 46.7886 159.66 46.7886 158.892C46.7886 158.123 46.1625 157.5 45.3901 157.5Z" fill="#4D4D4D"/>
<path d="M167.927 138.526L167.927 131.404" stroke="white" stroke-miterlimit="10"/>
<path d="M159.852 130.477L159.852 123.354" stroke="white" stroke-miterlimit="10"/>
<path d="M151.762 122.441L151.762 115.319" stroke="white" stroke-miterlimit="10"/>
<path d="M143.687 114.406L143.687 107.284" stroke="white" stroke-miterlimit="10"/>
<path d="M135.612 106.356L135.612 99.2341" stroke="white" stroke-miterlimit="10"/>
<path d="M159.852 148.014L159.852 140.891" stroke="white" stroke-miterlimit="10"/>
<path d="M151.762 139.979L151.762 132.856" stroke="white" stroke-miterlimit="10"/>
<path d="M143.687 131.928L143.687 124.805" stroke="white" stroke-miterlimit="10"/>
<path d="M135.612 123.893L135.612 116.77" stroke="white" stroke-miterlimit="10"/>
<path d="M159.852 165.55L159.852 158.427" stroke="white" stroke-miterlimit="10"/>
<path d="M151.762 157.5L151.762 150.378" stroke="white" stroke-miterlimit="10"/>
<path d="M167.927 102.795L167.927 95.6726" stroke="white" stroke-miterlimit="10"/>
<path d="M167.927 120.332L167.927 113.21" stroke="white" stroke-miterlimit="10"/>
<path d="M159.852 112.297L159.852 105.175" stroke="white" stroke-miterlimit="10"/>
<path d="M151.762 104.262L151.762 97.1394" stroke="white" stroke-miterlimit="10"/>
<path d="M143.687 149.465L143.687 142.342" stroke="white" stroke-miterlimit="10"/>
<path d="M135.612 141.43L135.612 134.307" stroke="white" stroke-miterlimit="10"/>
<path d="M116.395 93.2036L217.564 94.7598L150.033 19.6906C146.695 15.3364 142.604 11.5358 137.808 8.84243C125.402 1.88465 109.824 0.732504 95.6589 7.46583C75.9152 16.8327 65.5848 39.3818 71.4342 60.3599C75.6445 75.4575 86.787 86.4254 100.26 91.1537C105.418 92.9642 110.936 93.5328 116.395 93.2036Z" fill="#00DDA8"/>
<path d="M116.199 12.478C96.0024 12.478 79.6294 28.7703 79.6294 48.8679C79.6294 68.9655 96.0024 85.2578 116.199 85.2578C136.397 85.2578 152.77 68.9655 152.77 48.8679C152.77 28.7703 136.397 12.478 116.199 12.478Z" fill="#FF5858"/>
<mask id="mask2_2094_2717" style="mask-type:luminance" maskUnits="userSpaceOnUse" x="79" y="12" width="74" height="74">
<path d="M116.199 12.478C96.0024 12.478 79.6294 28.7703 79.6294 48.8679C79.6294 68.9655 96.0024 85.2578 116.199 85.2578C136.397 85.2578 152.77 68.9655 152.77 48.8679C152.77 28.7703 136.397 12.478 116.199 12.478Z" fill="white"/>
</mask>
<g mask="url(#mask2_2094_2717)">
<path d="M147.988 21.5455L131.658 10.6824L95.8994 13.1513L80.0053 31.0619L75.9002 31.1068C75.9002 31.1068 80.8022 57.2022 94.2453 33.9647C96.0047 39.9649 101.177 51.9053 111.493 34.6231C113.448 40.8627 118.756 51.6061 128.981 33.875L129.011 33.875C130.861 40.2342 136.605 53.641 148.364 30.8674L147.988 21.5305L147.988 21.5455Z" fill="#171717"/>
</g>
<path d="M97.2528 65.9712C102.125 62.9038 100.411 55.138 100.215 54.3001C100.065 53.6716 98.2001 46.1752 93.1477 45.5767C88.6516 45.038 84.366 50.305 83.6894 55.2128C83.2383 58.4747 84.1856 63.1133 88.02 65.5223C90.5011 67.0934 94.3356 67.8116 97.2528 65.9712Z" fill="white"/>
<mask id="mask3_2094_2717" style="mask-type:luminance" maskUnits="userSpaceOnUse" x="83" y="45" width="18" height="23">
<path d="M97.2528 65.9712C102.125 62.9038 100.411 55.138 100.215 54.3001C100.065 53.6716 98.2001 46.1752 93.1477 45.5767C88.6516 45.038 84.366 50.305 83.6894 55.2128C83.2383 58.4747 84.1856 63.1133 88.02 65.5223C90.5011 67.0934 94.3356 67.8116 97.2528 65.9712Z" fill="white"/>
</mask>
<g mask="url(#mask3_2094_2717)">
<path d="M83.148 52.8785C82.9525 55.7364 84.6367 59.522 87.8696 60.1056C91.1176 60.6891 93.8995 57.6666 94.8318 55.1079C96.1551 51.5019 94.6213 46.6838 91.5838 45.7112C88.2005 44.6339 83.4488 48.5093 83.148 52.8785Z" fill="#171717"/>
</g>
<path d="M120.47 65.9712C125.342 62.9038 123.628 55.138 123.432 54.3001C123.282 53.6716 121.417 46.1752 116.365 45.5767C111.869 45.038 107.583 50.305 106.907 55.2128C106.455 58.4747 107.403 63.1133 111.237 65.5223C113.718 67.0934 117.553 67.8116 120.47 65.9712Z" fill="white"/>
<mask id="mask4_2094_2717" style="mask-type:luminance" maskUnits="userSpaceOnUse" x="106" y="45" width="18" height="23">
<path d="M120.47 65.9712C125.342 62.9038 123.628 55.138 123.432 54.3001C123.282 53.6716 121.417 46.1752 116.365 45.5767C111.869 45.038 107.583 50.305 106.907 55.2128C106.455 58.4747 107.403 63.1133 111.237 65.5223C113.718 67.0934 117.553 67.8116 120.47 65.9712Z" fill="white"/>
</mask>
<g mask="url(#mask4_2094_2717)">
<path d="M106.365 52.8785C106.17 55.7364 107.854 59.522 111.087 60.1056C114.335 60.6891 117.117 57.6666 118.049 55.1079C119.372 51.5019 117.838 46.6838 114.801 45.7112C111.418 44.6339 106.666 48.5093 106.365 52.8785Z" fill="#171717"/>
</g>
<path d="M103.493 57.0232C100.371 57.0232 97.8392 59.5421 97.8392 62.6493C97.8392 65.7565 100.371 68.2754 103.493 68.2754C106.616 68.2754 109.147 65.7565 109.147 62.6493C109.147 59.5421 106.616 57.0232 103.493 57.0232Z" fill="#00DDA8"/>
</svg>
