<svg width="24" height="24" viewBox="0 0 24 24" fill="none" xmlns="http://www.w3.org/2000/svg">
<path d="M22 11.8448L12.5445 21.2084C11.3861 22.3556 9.81499 23 8.1768 23C6.53861 23 4.96752 22.3556 3.80914 21.2084C2.65077 20.0613 2 18.5055 2 16.8832C2 15.261 2.65077 13.7051 3.80914 12.558L13.2647 3.19437C14.0369 2.42963 15.0843 2 16.1765 2C17.2686 2 18.316 2.42963 19.0882 3.19437C19.8605 3.95912 20.2943 4.99633 20.2943 6.07785C20.2943 7.15936 19.8605 8.19658 19.0882 8.96132L9.6224 18.325C9.23627 18.7073 8.71257 18.9222 8.16651 18.9222C7.62045 18.9222 7.09675 18.7073 6.71063 18.325C6.3245 17.9426 6.10758 17.424 6.10758 16.8832C6.10758 16.3425 6.3245 15.8239 6.71063 15.4415L15.4459 6.80126" stroke="white" stroke-width="2" stroke-linecap="round" stroke-linejoin="round"/>
</svg>
