<svg width="153" height="140" viewBox="0 0 153 140" fill="none" xmlns="http://www.w3.org/2000/svg">
<ellipse cx="76.5" cy="122" rx="76.5" ry="18" fill="#171717"/>
<path d="M64.17 113.87V104.71H39.19C38.81 104.06 38.49 103.64 38.49 103.64C38.49 103.64 31.9 95.61 28.64 98.87C25.38 102.13 32.05 113.49 35.15 113.83C35.57 113.88 35.95 113.88 36.32 113.85V113.87H64.16H64.17Z" fill="#00DDA8"/>
<mask id="mask0_2094_3324" style="mask-type:luminance" maskUnits="userSpaceOnUse" x="27" y="98" width="38" height="16">
<path d="M64.17 113.87V104.71H39.19C38.81 104.06 38.49 103.64 38.49 103.64C38.49 103.64 31.9 95.61 28.64 98.87C25.38 102.13 32.05 113.49 35.15 113.83C35.57 113.88 35.95 113.88 36.32 113.85V113.87H64.16H64.17Z" fill="white"/>
</mask>
<g mask="url(#mask0_2094_3324)">
<path d="M51.66 128.73V98.0801H21.01L21.01 128.73H51.66Z" fill="#171717"/>
</g>
<path d="M49.29 112.16C49.8036 112.16 50.22 111.743 50.22 111.23C50.22 110.716 49.8036 110.3 49.29 110.3C48.7764 110.3 48.36 110.716 48.36 111.23C48.36 111.743 48.7764 112.16 49.29 112.16Z" fill="#4D4D4D"/>
<path d="M46.55 112.16C47.0636 112.16 47.48 111.743 47.48 111.23C47.48 110.716 47.0636 110.3 46.55 110.3C46.0364 110.3 45.62 110.716 45.62 111.23C45.62 111.743 46.0364 112.16 46.55 112.16Z" fill="#4D4D4D"/>
<path d="M48.84 48.23L64.95 132.84L108.8 112.26L118.64 69.96L48.84 48.23Z" fill="#508FFF"/>
<path d="M79.61 65.6301L101.16 14.8701L140.95 30.8001L137.63 54.6901L79.61 65.6401V65.6301Z" fill="#508FFF"/>
<path d="M121.549 42.289L99.9528 37.1479L99.0149 41.0879L120.611 46.2289L121.549 42.289Z" fill="white"/>
<path d="M95.9466 86.5942L74.3501 81.4531L73.4122 85.393L95.0087 90.5341L95.9466 86.5942Z" fill="white"/>
<path d="M56.21 63.2899L123.49 64.3399L78.58 14.1699C76.36 11.2599 73.64 8.71989 70.45 6.91989C62.2 2.26989 51.84 1.49989 42.42 5.99989C29.29 12.2599 22.42 27.3299 26.31 41.3399C29.11 51.4299 36.52 58.7599 45.48 61.9199C48.91 63.1299 52.58 63.5099 56.21 63.2899Z" fill="#00DDA8"/>
<path d="M55.28 57.9901C68.7116 57.9901 79.6 47.1017 79.6 33.6701C79.6 20.2385 68.7116 9.3501 55.28 9.3501C41.8485 9.3501 30.96 20.2385 30.96 33.6701C30.96 47.1017 41.8485 57.9901 55.28 57.9901Z" fill="#508FFF"/>
<mask id="mask1_2094_3324" style="mask-type:luminance" maskUnits="userSpaceOnUse" x="30" y="9" width="50" height="49">
<path d="M55.28 57.9901C68.7116 57.9901 79.6 47.1017 79.6 33.6701C79.6 20.2385 68.7116 9.3501 55.28 9.3501C41.8485 9.3501 30.96 20.2385 30.96 33.6701C30.96 47.1017 41.8485 57.9901 55.28 57.9901Z" fill="white"/>
</mask>
<g mask="url(#mask1_2094_3324)">
<path d="M76.42 15.4001L65.56 8.14014L41.78 9.79014L31.21 21.7601L28.48 21.7901C28.48 21.7901 31.74 39.2301 40.68 23.7001C41.85 27.7101 45.29 35.6901 52.15 24.1401C53.45 28.3101 56.98 35.4901 63.78 23.6401H63.8C65.03 27.8901 68.85 36.8501 76.67 21.6301L76.42 15.3901V15.4001Z" fill="#171717"/>
</g>
<path d="M39.84 43.9197C43.2255 43.9197 45.97 41.1752 45.97 37.7897C45.97 34.4042 43.2255 31.6597 39.84 31.6597C36.4545 31.6597 33.71 34.4042 33.71 37.7897C33.71 41.1752 36.4545 43.9197 39.84 43.9197Z" fill="white"/>
<path d="M39.84 39.8397C40.9722 39.8397 41.89 38.9219 41.89 37.7897C41.89 36.6576 40.9722 35.7397 39.84 35.7397C38.7078 35.7397 37.79 36.6576 37.79 37.7897C37.79 38.9219 38.7078 39.8397 39.84 39.8397Z" fill="#171717"/>
<path d="M54.64 43.9197C58.0255 43.9197 60.77 41.1752 60.77 37.7897C60.77 34.4042 58.0255 31.6597 54.64 31.6597C51.2545 31.6597 48.51 34.4042 48.51 37.7897C48.51 41.1752 51.2545 43.9197 54.64 43.9197Z" fill="white"/>
<path d="M54.64 39.8397C55.7722 39.8397 56.69 38.9219 56.69 37.7897C56.69 36.6576 55.7722 35.7397 54.64 35.7397C53.5078 35.7397 52.59 36.6576 52.59 37.7897C52.59 38.9219 53.5078 39.8397 54.64 39.8397Z" fill="#171717"/>
<path d="M47.63 46.6997C49.7066 46.6997 51.39 45.0163 51.39 42.9397C51.39 40.8631 49.7066 39.1797 47.63 39.1797C45.5534 39.1797 43.87 40.8631 43.87 42.9397C43.87 45.0163 45.5534 46.6997 47.63 46.6997Z" fill="#00DDA8"/>
<path d="M72.84 126.08V116.92H47.86C47.48 116.27 47.16 115.85 47.16 115.85C47.16 115.85 40.57 107.82 37.31 111.08C34.05 114.34 40.72 125.7 43.82 126.04C44.24 126.09 44.62 126.09 44.99 126.06V126.08H72.83H72.84Z" fill="#00DDA8"/>
<mask id="mask2_2094_3324" style="mask-type:luminance" maskUnits="userSpaceOnUse" x="36" y="110" width="37" height="17">
<path d="M72.84 126.08V116.92H47.86C47.48 116.27 47.16 115.85 47.16 115.85C47.16 115.85 40.57 107.82 37.31 111.08C34.05 114.34 40.72 125.7 43.82 126.04C44.24 126.09 44.62 126.09 44.99 126.06V126.08H72.83H72.84Z" fill="white"/>
</mask>
<g mask="url(#mask2_2094_3324)">
<path d="M60.33 140.94V110.29H29.68L29.68 140.94H60.33Z" fill="#171717"/>
</g>
<path d="M57.96 124.37C58.4736 124.37 58.89 123.953 58.89 123.44C58.89 122.926 58.4736 122.51 57.96 122.51C57.4464 122.51 57.03 122.926 57.03 123.44C57.03 123.953 57.4464 124.37 57.96 124.37Z" fill="#4D4D4D"/>
<path d="M55.22 124.37C55.7336 124.37 56.15 123.953 56.15 123.44C56.15 122.926 55.7336 122.51 55.22 122.51C54.7064 122.51 54.29 122.926 54.29 123.44C54.29 123.953 54.7064 124.37 55.22 124.37Z" fill="#4D4D4D"/>
</svg>
