<svg width="20" height="20" viewBox="0 0 20 20" fill="none" xmlns="http://www.w3.org/2000/svg">
<path d="M10 2C8.41775 2 6.87103 2.46919 5.55544 3.34824C4.23985 4.22729 3.21447 5.47672 2.60897 6.93853C2.00347 8.40034 1.84504 10.0089 2.15372 11.5607C2.4624 13.1126 3.22433 14.538 4.34315 15.6569C5.46197 16.7757 6.88743 17.5376 8.43928 17.8463C9.99113 18.155 11.5997 17.9965 13.0615 17.391C14.5233 16.7855 15.7727 15.7602 16.6518 14.4446C17.5308 13.129 18 11.5822 18 10C18 8.94942 17.7931 7.90914 17.391 6.93853C16.989 5.96793 16.3997 5.08601 15.6569 4.34315C14.914 3.60028 14.0321 3.011 13.0615 2.60896C12.0909 2.20693 11.0506 2 10 2ZM10 16.4C8.7342 16.4 7.49683 16.0246 6.44435 15.3214C5.39188 14.6182 4.57157 13.6186 4.08717 12.4492C3.60277 11.2797 3.47603 9.9929 3.72298 8.75142C3.96992 7.50994 4.57946 6.36957 5.47452 5.47452C6.36958 4.57946 7.50995 3.96992 8.75142 3.72297C9.9929 3.47603 11.2797 3.60277 12.4492 4.08717C13.6186 4.57157 14.6182 5.39187 15.3214 6.44435C16.0246 7.49682 16.4 8.7342 16.4 10C16.4 11.6974 15.7257 13.3252 14.5255 14.5255C13.3253 15.7257 11.6974 16.4 10 16.4ZM10 5.2C9.78783 5.2 9.58435 5.28428 9.43432 5.43431C9.28429 5.58434 9.2 5.78783 9.2 6V9.536L7.52 10.504C7.36589 10.5913 7.24512 10.7273 7.17663 10.8907C7.10814 11.0541 7.0958 11.2355 7.14156 11.4067C7.18731 11.5778 7.28857 11.7289 7.42945 11.8363C7.57033 11.9436 7.74287 12.0012 7.92 12C8.06014 12.001 8.19808 11.9651 8.32 11.896L10.4 10.696L10.472 10.624L10.6 10.52C10.6313 10.4804 10.6581 10.4375 10.68 10.392C10.7061 10.349 10.7275 10.3035 10.744 10.256C10.7658 10.2051 10.7793 10.1511 10.784 10.096L10.8 10V6C10.8 5.78783 10.7157 5.58434 10.5657 5.43431C10.4157 5.28428 10.2122 5.2 10 5.2Z" fill="white"/>
</svg>
