<svg width="229" height="210" viewBox="0 0 229 210" fill="none" xmlns="http://www.w3.org/2000/svg">
<ellipse cx="114.5" cy="182.5" rx="114.5" ry="27.5" fill="#4D4D4D"/>
<path d="M95.9445 170.383V156.677H58.382C57.8106 155.704 57.3294 155.076 57.3294 155.076C57.3294 155.076 47.42 143.061 42.518 147.939C37.6159 152.817 47.6456 169.814 52.3071 170.323C52.9386 170.398 53.51 170.398 54.0664 170.353V170.383H95.9295H95.9445Z" fill="#00DDA8"/>
<mask id="mask0_2094_2716" style="mask-type:luminance" maskUnits="userSpaceOnUse" x="41" y="146" width="55" height="25">
<path d="M95.9445 170.383V156.677H58.382C57.8106 155.704 57.3294 155.076 57.3294 155.076C57.3294 155.076 47.42 143.061 42.518 147.939C37.6159 152.817 47.6456 169.814 52.3071 170.323C52.9386 170.398 53.51 170.398 54.0664 170.353V170.383H95.9295H95.9445Z" fill="white"/>
</mask>
<g mask="url(#mask0_2094_2716)">
<path d="M77.1332 192.618V146.757H31.0447V192.618H77.1332Z" fill="#171717"/>
</g>
<path d="M73.5694 167.824C74.3417 167.824 74.9678 167.201 74.9678 166.433C74.9678 165.664 74.3417 165.041 73.5694 165.041C72.7971 165.041 72.171 165.664 72.171 166.433C72.171 167.201 72.7971 167.824 73.5694 167.824Z" fill="#4D4D4D"/>
<path d="M69.4493 167.824C70.2216 167.824 70.8477 167.201 70.8477 166.433C70.8477 165.664 70.2216 165.041 69.4493 165.041C68.6769 165.041 68.0508 165.664 68.0508 166.433C68.0508 167.201 68.6769 167.824 69.4493 167.824Z" fill="#4D4D4D"/>
<path d="M72.8928 72.166L97.1174 198.768L163.055 167.974L177.851 104.681L72.8928 72.166Z" fill="#508FFF"/>
<path d="M119.162 98.202L151.567 22.25L211.399 46.086L206.407 81.8325L119.162 98.217V98.202Z" fill="#508FFF"/>
<path d="M182.226 63.2765L149.751 55.584L148.341 61.4793L180.816 69.1718L182.226 63.2765Z" fill="white"/>
<path d="M143.727 129.57L111.252 121.878L109.842 127.773L142.317 135.466L143.727 129.57Z" fill="white"/>
<path d="M83.975 94.7006L185.144 96.2717L117.613 21.2025C114.275 16.8483 110.185 13.0477 105.388 10.3543C92.9822 3.39655 77.4039 2.2444 63.239 8.97774C43.4953 18.3446 33.1649 40.8937 39.0143 61.8568C43.2247 76.9545 54.3671 87.9223 67.8403 92.6506C72.998 94.4611 78.5166 95.0297 83.975 94.7006Z" fill="#00DDA8"/>
<path d="M82.5766 86.7701C102.774 86.7701 119.147 70.4778 119.147 50.3802C119.147 30.2826 102.774 13.9902 82.5766 13.9902C62.3795 13.9902 46.0065 30.2826 46.0065 50.3802C46.0065 70.4778 62.3795 86.7701 82.5766 86.7701Z" fill="#508FFF"/>
<mask id="mask1_2094_2716" style="mask-type:luminance" maskUnits="userSpaceOnUse" x="46" y="13" width="74" height="74">
<path d="M82.5766 86.7701C102.774 86.7701 119.147 70.4778 119.147 50.3802C119.147 30.2826 102.774 13.9902 82.5766 13.9902C62.3795 13.9902 46.0065 30.2826 46.0065 50.3802C46.0065 70.4778 62.3795 86.7701 82.5766 86.7701Z" fill="white"/>
</mask>
<g mask="url(#mask1_2094_2716)">
<path d="M114.365 23.0428L98.0347 12.1797L62.2766 14.6486L46.3825 32.5592L42.2773 32.6041C42.2773 32.6041 47.1794 58.6995 60.6225 35.4621C62.3819 41.4622 67.5546 53.4026 77.87 36.1204C79.8248 42.36 85.1329 53.1034 95.3581 35.3723H95.3882C97.2377 41.7315 102.982 55.1384 114.741 32.3647L114.365 23.0278V23.0428Z" fill="#171717"/>
</g>
<path d="M59.3594 65.7176C64.4502 65.7176 68.5771 61.6111 68.5771 56.5453C68.5771 51.4796 64.4502 47.373 59.3594 47.373C54.2686 47.373 50.1417 51.4796 50.1417 56.5453C50.1417 61.6111 54.2686 65.7176 59.3594 65.7176Z" fill="white"/>
<path d="M59.3594 59.6124C61.0619 59.6124 62.442 58.239 62.442 56.5449C62.442 54.8509 61.0619 53.4775 59.3594 53.4775C57.657 53.4775 56.2769 54.8509 56.2769 56.5449C56.2769 58.239 57.657 59.6124 59.3594 59.6124Z" fill="#171717"/>
<path d="M81.6142 65.7176C86.705 65.7176 90.832 61.6111 90.832 56.5453C90.832 51.4796 86.705 47.373 81.6142 47.373C76.5235 47.373 72.3965 51.4796 72.3965 56.5453C72.3965 61.6111 76.5235 65.7176 81.6142 65.7176Z" fill="white"/>
<path d="M81.6142 59.6124C83.3167 59.6124 84.6968 58.239 84.6968 56.5449C84.6968 54.8509 83.3167 53.4775 81.6142 53.4775C79.9117 53.4775 78.5316 54.8509 78.5316 56.5449C78.5316 58.239 79.9117 59.6124 81.6142 59.6124Z" fill="#171717"/>
<path d="M71.0733 69.8771C74.1959 69.8771 76.7272 67.3583 76.7272 64.2511C76.7272 61.1439 74.1959 58.625 71.0733 58.625C67.9507 58.625 65.4194 61.1439 65.4194 64.2511C65.4194 67.3583 67.9507 69.8771 71.0733 69.8771Z" fill="#00DDA8"/>
<path d="M108.982 188.653V174.947H71.4191C70.8477 173.974 70.3665 173.345 70.3665 173.345C70.3665 173.345 60.4571 161.33 55.5551 166.208C50.653 171.086 60.6827 188.084 65.3442 188.593C65.9757 188.668 66.5471 188.668 67.1035 188.623V188.653H108.967H108.982Z" fill="#00DDA8"/>
<mask id="mask2_2094_2716" style="mask-type:luminance" maskUnits="userSpaceOnUse" x="54" y="165" width="55" height="24">
<path d="M108.982 188.653V174.947H71.4191C70.8477 173.974 70.3665 173.345 70.3665 173.345C70.3665 173.345 60.4571 161.33 55.5551 166.208C50.653 171.086 60.6827 188.084 65.3442 188.593C65.9757 188.668 66.5471 188.668 67.1035 188.623V188.653H108.967H108.982Z" fill="white"/>
</mask>
<g mask="url(#mask2_2094_2716)">
<path d="M90.1703 210.888V165.026H44.0818V210.888H90.1703Z" fill="#171717"/>
</g>
<path d="M86.6066 186.094C87.3789 186.094 88.005 185.471 88.005 184.702C88.005 183.934 87.3789 183.311 86.6066 183.311C85.8342 183.311 85.2081 183.934 85.2081 184.702C85.2081 185.471 85.8342 186.094 86.6066 186.094Z" fill="#4D4D4D"/>
<path d="M82.4863 186.094C83.2587 186.094 83.8848 185.471 83.8848 184.702C83.8848 183.934 83.2587 183.311 82.4863 183.311C81.714 183.311 81.0879 183.934 81.0879 184.702C81.0879 185.471 81.714 186.094 82.4863 186.094Z" fill="#4D4D4D"/>
</svg>
