<svg width="203" height="202" viewBox="0 0 203 202" fill="none" xmlns="http://www.w3.org/2000/svg">
<path d="M76.9445 170.383V156.677H39.382C38.8106 155.704 38.3294 155.076 38.3294 155.076C38.3294 155.076 28.42 143.061 23.518 147.939C18.6159 152.817 28.6456 169.814 33.3071 170.323C33.9386 170.398 34.51 170.398 35.0664 170.353V170.383H76.9295H76.9445Z" fill="#00DDA8"/>
<mask id="mask0_1746_20287" style="mask-type:luminance" maskUnits="userSpaceOnUse" x="22" y="146" width="55" height="25">
<path d="M76.9445 170.383V156.677H39.382C38.8106 155.704 38.3294 155.076 38.3294 155.076C38.3294 155.076 28.42 143.061 23.518 147.939C18.6159 152.817 28.6456 169.814 33.3071 170.323C33.9386 170.398 34.51 170.398 35.0664 170.353V170.383H76.9295H76.9445Z" fill="white"/>
</mask>
<g mask="url(#mask0_1746_20287)">
<path d="M58.1332 192.618V146.757H12.0447V192.618H58.1332Z" fill="#171717"/>
</g>
<path d="M54.5694 167.824C55.3417 167.824 55.9678 167.201 55.9678 166.433C55.9678 165.664 55.3417 165.041 54.5694 165.041C53.7971 165.041 53.171 165.664 53.171 166.433C53.171 167.201 53.7971 167.824 54.5694 167.824Z" fill="#4D4D4D"/>
<path d="M50.4493 167.824C51.2216 167.824 51.8477 167.201 51.8477 166.433C51.8477 165.664 51.2216 165.041 50.4493 165.041C49.6769 165.041 49.0508 165.664 49.0508 166.433C49.0508 167.201 49.6769 167.824 50.4493 167.824Z" fill="#4D4D4D"/>
<path d="M53.8928 72.166L78.1174 198.768L144.055 167.974L158.851 104.681L53.8928 72.166Z" fill="#508FFF"/>
<path d="M100.162 98.202L132.567 22.25L192.399 46.086L187.407 81.8325L100.162 98.217V98.202Z" fill="#508FFF"/>
<path d="M163.226 63.2765L130.751 55.584L129.341 61.4793L161.816 69.1718L163.226 63.2765Z" fill="white"/>
<path d="M124.727 129.57L92.2523 121.878L90.842 127.773L123.317 135.466L124.727 129.57Z" fill="white"/>
<path d="M64.975 94.7006L166.144 96.2717L98.6129 21.2025C95.2747 16.8483 91.1846 13.0477 86.3878 10.3543C73.9822 3.39655 58.4039 2.2444 44.239 8.97774C24.4953 18.3446 14.1649 40.8937 20.0143 61.8568C24.2247 76.9545 35.3671 87.9223 48.8403 92.6506C53.998 94.4611 59.5166 95.0297 64.975 94.7006Z" fill="#00DDA8"/>
<path d="M63.5766 86.7701C83.7737 86.7701 100.147 70.4778 100.147 50.3802C100.147 30.2826 83.7737 13.9902 63.5766 13.9902C43.3795 13.9902 27.0065 30.2826 27.0065 50.3802C27.0065 70.4778 43.3795 86.7701 63.5766 86.7701Z" fill="#508FFF"/>
<mask id="mask1_1746_20287" style="mask-type:luminance" maskUnits="userSpaceOnUse" x="27" y="13" width="74" height="74">
<path d="M63.5766 86.7701C83.7737 86.7701 100.147 70.4778 100.147 50.3802C100.147 30.2826 83.7737 13.9902 63.5766 13.9902C43.3795 13.9902 27.0065 30.2826 27.0065 50.3802C27.0065 70.4778 43.3795 86.7701 63.5766 86.7701Z" fill="white"/>
</mask>
<g mask="url(#mask1_1746_20287)">
<path d="M95.3649 23.0428L79.0347 12.1797L43.2766 14.6486L27.3825 32.5592L23.2773 32.6041C23.2773 32.6041 28.1794 58.6995 41.6225 35.4621C43.3819 41.4622 48.5546 53.4026 58.87 36.1204C60.8248 42.36 66.1329 53.1034 76.3581 35.3723H76.3882C78.2377 41.7315 83.9819 55.1384 95.7408 32.3647L95.3649 23.0278V23.0428Z" fill="#171717"/>
</g>
<path d="M40.3594 65.7176C45.4502 65.7176 49.5771 61.6111 49.5771 56.5453C49.5771 51.4796 45.4502 47.373 40.3594 47.373C35.2686 47.373 31.1417 51.4796 31.1417 56.5453C31.1417 61.6111 35.2686 65.7176 40.3594 65.7176Z" fill="white"/>
<path d="M40.3594 59.6124C42.0619 59.6124 43.442 58.239 43.442 56.5449C43.442 54.8509 42.0619 53.4775 40.3594 53.4775C38.657 53.4775 37.2769 54.8509 37.2769 56.5449C37.2769 58.239 38.657 59.6124 40.3594 59.6124Z" fill="#171717"/>
<path d="M62.6142 65.7176C67.705 65.7176 71.832 61.6111 71.832 56.5453C71.832 51.4796 67.705 47.373 62.6142 47.373C57.5235 47.373 53.3965 51.4796 53.3965 56.5453C53.3965 61.6111 57.5235 65.7176 62.6142 65.7176Z" fill="white"/>
<path d="M62.6142 59.6124C64.3167 59.6124 65.6968 58.239 65.6968 56.5449C65.6968 54.8509 64.3167 53.4775 62.6142 53.4775C60.9117 53.4775 59.5316 54.8509 59.5316 56.5449C59.5316 58.239 60.9117 59.6124 62.6142 59.6124Z" fill="#171717"/>
<path d="M52.0733 69.8771C55.1959 69.8771 57.7272 67.3583 57.7272 64.2511C57.7272 61.1439 55.1959 58.625 52.0733 58.625C48.9507 58.625 46.4194 61.1439 46.4194 64.2511C46.4194 67.3583 48.9507 69.8771 52.0733 69.8771Z" fill="#00DDA8"/>
<path d="M89.9817 188.653V174.947H52.4191C51.8477 173.974 51.3665 173.345 51.3665 173.345C51.3665 173.345 41.4571 161.33 36.5551 166.208C31.653 171.086 41.6827 188.084 46.3442 188.593C46.9757 188.668 47.5471 188.668 48.1035 188.623V188.653H89.9666H89.9817Z" fill="#00DDA8"/>
<mask id="mask2_1746_20287" style="mask-type:luminance" maskUnits="userSpaceOnUse" x="35" y="165" width="55" height="24">
<path d="M89.9817 188.653V174.947H52.4191C51.8477 173.974 51.3665 173.345 51.3665 173.345C51.3665 173.345 41.4571 161.33 36.5551 166.208C31.653 171.086 41.6827 188.084 46.3442 188.593C46.9757 188.668 47.5471 188.668 48.1035 188.623V188.653H89.9666H89.9817Z" fill="white"/>
</mask>
<g mask="url(#mask2_1746_20287)">
<path d="M71.1703 210.888V165.026H25.0818V210.888H71.1703Z" fill="#171717"/>
</g>
<path d="M67.6066 186.094C68.3789 186.094 69.005 185.471 69.005 184.702C69.005 183.934 68.3789 183.311 67.6066 183.311C66.8342 183.311 66.2081 183.934 66.2081 184.702C66.2081 185.471 66.8342 186.094 67.6066 186.094Z" fill="#4D4D4D"/>
<path d="M63.4863 186.094C64.2587 186.094 64.8848 185.471 64.8848 184.702C64.8848 183.934 64.2587 183.311 63.4863 183.311C62.714 183.311 62.0879 183.934 62.0879 184.702C62.0879 185.471 62.714 186.094 63.4863 186.094Z" fill="#4D4D4D"/>
</svg>
