<svg width="203" height="202" viewBox="0 0 203 202" fill="none" xmlns="http://www.w3.org/2000/svg">
<path d="M62.0108 173.413L60.9883 159.737L23.531 162.52C22.8844 161.592 22.3581 161.008 22.3581 161.008C22.3581 161.008 11.5766 149.756 7.06546 154.978C2.53931 160.2 13.8171 176.42 18.5086 176.585C19.1402 176.6 19.7266 176.57 20.268 176.48V176.51L62.0258 173.413H62.0108Z" fill="#171717"/>
<mask id="mask0_1746_20148" style="mask-type:luminance" maskUnits="userSpaceOnUse" x="6" y="153" width="57" height="24">
<path d="M62.0108 173.413L60.9883 159.737L23.531 162.52C22.8844 161.592 22.3581 161.008 22.3581 161.008C22.3581 161.008 11.5766 149.756 7.06546 154.978C2.53931 160.2 13.8171 176.42 18.5086 176.585C19.1402 176.6 19.7266 176.57 20.268 176.48V176.51L62.0258 173.413H62.0108Z" fill="white"/>
</mask>
<g mask="url(#mask0_1746_20148)">
<path d="M44.8974 196.98L41.4739 151.245L-4.4873 154.652L-1.06373 200.387L44.8974 196.98Z" fill="#00DDA8"/>
</g>
<path d="M39.4101 172.515C40.1824 172.515 40.8085 171.892 40.8085 171.123C40.8085 170.354 40.1824 169.731 39.4101 169.731C38.6378 169.731 38.0117 170.354 38.0117 171.123C38.0117 171.892 38.6378 172.515 39.4101 172.515Z" fill="#4D4D4D"/>
<path d="M35.29 172.829C36.0623 172.829 36.6884 172.206 36.6884 171.437C36.6884 170.669 36.0623 170.046 35.29 170.046C34.5176 170.046 33.8915 170.669 33.8915 171.437C33.8915 172.206 34.5176 172.829 35.29 172.829Z" fill="#4D4D4D"/>
<path d="M124.385 46.9017L30.1024 199.314L159.015 183.11L172.413 130.979L124.4 46.8867L124.385 46.9017Z" fill="#D968D3"/>
<path d="M62.3266 139.088C64.8979 139.133 89.9346 139.432 93.363 129.093C94.4457 125.846 93.8893 119.981 91.4985 119.083C89.8293 118.454 87.0024 120.13 87.0024 121.582C87.0024 124.784 100.686 129.063 113.197 127.866C125.452 126.699 139.286 120.01 139.046 114.145C138.925 111.182 135.181 107.98 132.55 108.489C130.189 108.953 128.053 112.514 128.745 115.103C130.339 121.207 148.549 125.607 160.804 118.305C166.383 114.983 169.345 110.075 170.759 107.202" stroke="white" stroke-miterlimit="10"/>
<path d="M102.822 90.6382L199.389 60.6075L111.648 10.3469C107.107 7.24961 102.025 4.91539 96.6262 3.85302C82.6568 1.11479 67.4995 4.8705 56.1616 15.6738C40.3577 30.7265 37.651 55.3555 49.8009 73.4458C58.5525 86.4785 72.582 93.4213 86.8672 93.7056C92.3407 93.8253 97.754 92.6432 102.837 90.6232L102.822 90.6382Z" fill="#00DDA8"/>
<path d="M86.055 84.7584C106.252 84.7584 122.625 68.466 122.625 48.3684C122.625 28.2708 106.252 11.9785 86.055 11.9785C65.8579 11.9785 49.4849 28.2708 49.4849 48.3684C49.4849 68.466 65.8579 84.7584 86.055 84.7584Z" fill="#D968D3"/>
<mask id="mask1_1746_20148" style="mask-type:luminance" maskUnits="userSpaceOnUse" x="49" y="11" width="74" height="74">
<path d="M86.055 84.7584C106.252 84.7584 122.625 68.466 122.625 48.3684C122.625 28.2708 106.252 11.9785 86.055 11.9785C65.8579 11.9785 49.4849 28.2708 49.4849 48.3684C49.4849 68.466 65.8579 84.7584 86.055 84.7584Z" fill="white"/>
</mask>
<g mask="url(#mask1_1746_20148)">
<path d="M117.843 21.0457L101.513 10.1826L65.755 12.6515L49.8608 30.5622L45.7557 30.6071C45.7557 30.6071 50.6578 56.7025 64.1009 33.465C65.8603 39.4651 71.033 51.4056 81.3484 34.1234C83.3032 40.3629 88.6113 51.1063 98.8365 33.3752H98.8666C100.716 39.7345 106.46 53.1413 118.219 30.3677L117.843 21.0308V21.0457Z" fill="#171717"/>
</g>
<path d="M54.2971 56.9415C54.2971 56.9415 57.2744 49.5049 63.5599 49.5049C69.8454 49.5049 72.6874 56.9415 72.6874 56.9415C72.6874 56.9415 71.0333 64.6324 63.4847 64.6324C55.9361 64.6324 54.282 56.9415 54.282 56.9415H54.2971Z" fill="white"/>
<mask id="mask2_1746_20148" style="mask-type:luminance" maskUnits="userSpaceOnUse" x="54" y="49" width="19" height="16">
<path d="M54.2971 56.9415C54.2971 56.9415 57.2744 49.5049 63.5599 49.5049C69.8454 49.5049 72.6874 56.9415 72.6874 56.9415C72.6874 56.9415 71.0333 64.6324 63.4847 64.6324C55.9361 64.6324 54.282 56.9415 54.282 56.9415H54.2971Z" fill="white"/>
</mask>
<g mask="url(#mask2_1746_20148)">
<path d="M64.387 71.1565C62.4923 56.7322 64.387 43.5498 64.387 43.5498L52.9137 50.4178L51.8461 60.3382L64.387 71.1565Z" fill="#171717"/>
</g>
<path d="M76.8526 56.9415C76.8526 56.9415 79.83 49.5049 86.1154 49.5049C92.4009 49.5049 95.2429 56.9415 95.2429 56.9415C95.2429 56.9415 93.5888 64.6324 86.0402 64.6324C78.4917 64.6324 76.8376 56.9415 76.8376 56.9415H76.8526Z" fill="white"/>
<mask id="mask3_1746_20148" style="mask-type:luminance" maskUnits="userSpaceOnUse" x="76" y="49" width="20" height="16">
<path d="M76.8526 56.9415C76.8526 56.9415 79.83 49.5049 86.1154 49.5049C92.4009 49.5049 95.2429 56.9415 95.2429 56.9415C95.2429 56.9415 93.5888 64.6324 86.0402 64.6324C78.4917 64.6324 76.8376 56.9415 76.8376 56.9415H76.8526Z" fill="white"/>
</mask>
<g mask="url(#mask3_1746_20148)">
<path d="M86.9425 71.1565C85.0478 56.7322 86.9425 43.5498 86.9425 43.5498L75.4692 50.4178L74.4016 60.3382L86.9425 71.1565Z" fill="#171717"/>
</g>
<path d="M74.5519 67.8645C77.6745 67.8645 80.2058 65.3456 80.2058 62.2384C80.2058 59.1312 77.6745 56.6123 74.5519 56.6123C71.4293 56.6123 68.8979 59.1312 68.8979 62.2384C68.8979 65.3456 71.4293 67.8645 74.5519 67.8645Z" fill="#00DDA8"/>
<path d="M70.4769 71.2167C70.6874 75.6009 74.5069 78.2343 77.2286 77.6508C79.7698 77.1121 82.0254 73.6407 81.0329 69.7803" stroke="white" stroke-miterlimit="10" stroke-linecap="round"/>
<path d="M74.5518 188.421L72.5368 174.865L35.3803 180.341C34.6736 179.458 34.1022 178.92 34.1022 178.92C34.1022 178.92 22.5387 168.476 18.4035 174.012C14.2834 179.548 26.6889 194.915 31.3805 194.736C32.012 194.706 32.5834 194.631 33.1248 194.511V194.541L74.5518 188.436V188.421Z" fill="#171717"/>
<mask id="mask4_1746_20148" style="mask-type:luminance" maskUnits="userSpaceOnUse" x="17" y="172" width="58" height="23">
<path d="M74.5518 188.421L72.5368 174.865L35.3803 180.341C34.6736 179.458 34.1022 178.92 34.1022 178.92C34.1022 178.92 22.5387 168.476 18.4035 174.012C14.2834 179.548 26.6889 194.915 31.3805 194.736C32.012 194.706 32.5834 194.631 33.1248 194.511V194.541L74.5518 188.436V188.421Z" fill="white"/>
</mask>
<g mask="url(#mask4_1746_20148)">
<path d="M59.2015 213.166L52.4528 167.799L6.86107 174.514L13.6097 219.881L59.2015 213.166Z" fill="#00DDA8"/>
</g>
<path d="M51.8308 189.17C52.6032 189.17 53.2293 188.547 53.2293 187.778C53.2293 187.01 52.6032 186.387 51.8308 186.387C51.0585 186.387 50.4324 187.01 50.4324 187.778C50.4324 188.547 51.0585 189.17 51.8308 189.17Z" fill="#4D4D4D"/>
<path d="M47.7558 189.767C48.5281 189.767 49.1542 189.144 49.1542 188.376C49.1542 187.607 48.5281 186.984 47.7558 186.984C46.9835 186.984 46.3574 187.607 46.3574 188.376C46.3574 189.144 46.9835 189.767 47.7558 189.767Z" fill="#4D4D4D"/>
</svg>
