<svg width="153" height="140" viewBox="0 0 153 140" fill="none" xmlns="http://www.w3.org/2000/svg">
<ellipse cx="76.5" cy="122" rx="76.5" ry="18" fill="#171717"/>
<path d="M46.3001 101.63L52.7801 95.1499L35.1201 77.4899C35.3101 76.7599 35.3801 76.2399 35.3801 76.2399C35.3801 76.2399 36.4001 65.8999 31.7901 65.8999C27.1801 65.8999 23.8601 78.6499 25.8201 81.0799C26.0801 81.4099 26.3601 81.6799 26.6301 81.9199L26.6101 81.9399L46.3001 101.63Z" fill="#00DDA8"/>
<mask id="mask0_2094_3413" style="mask-type:luminance" maskUnits="userSpaceOnUse" x="25" y="65" width="28" height="37">
<path d="M46.3001 101.63L52.7801 95.1499L35.1201 77.4899C35.3101 76.7599 35.3801 76.2399 35.3801 76.2399C35.3801 76.2399 36.4001 65.8999 31.7901 65.8999C27.1801 65.8999 23.8601 78.6499 25.8201 81.0799C26.0801 81.4099 26.3601 81.6799 26.6301 81.9199L26.6101 81.9399L46.3001 101.63Z" fill="white"/>
</mask>
<g mask="url(#mask0_2094_3413)">
<path d="M26.9336 103.296L48.6064 81.623L26.9336 59.9502L5.2608 81.623L26.9336 103.296Z" fill="#171717"/>
</g>
<path d="M37.6401 88.3197C37.1264 88.3197 36.7101 88.7361 36.7101 89.2497C36.7101 89.7633 37.1264 90.1797 37.6401 90.1797C38.1537 90.1797 38.5701 89.7633 38.5701 89.2497C38.5701 88.7361 38.1537 88.3197 37.6401 88.3197Z" fill="#4D4D4D"/>
<path d="M35.7001 86.3797C35.1864 86.3797 34.7701 86.7961 34.7701 87.3097C34.7701 87.8234 35.1864 88.2397 35.7001 88.2397C36.2137 88.2397 36.6301 87.8234 36.6301 87.3097C36.6301 86.7961 36.2137 86.3797 35.7001 86.3797Z" fill="#4D4D4D"/>
<path d="M104.07 115.57L123.11 72.2098L97.7301 30.9598L90.3301 59.5098L32.1601 56.3398L45.9101 90.1798L86.1 79.5998L86.1 96.5198L30.0501 90.1698L37.4501 133.55L104.07 115.57Z" fill="#FF5858"/>
<path d="M45.4201 116.01L49.2801 107.7L26.6301 97.1598C26.5601 96.4098 26.4501 95.8998 26.4501 95.8998C26.4501 95.8998 23.8601 85.8398 19.5301 87.4198C15.2001 88.9998 16.4501 102.12 19.1301 103.73C19.4901 103.95 19.8401 104.11 20.1801 104.24L20.1801 104.26L45.4201 116L45.4201 116.01Z" fill="#00DDA8"/>
<mask id="mask1_2094_3413" style="mask-type:luminance" maskUnits="userSpaceOnUse" x="16" y="87" width="34" height="30">
<path d="M45.4201 116.01L49.2801 107.7L26.6301 97.1598C26.5601 96.4098 26.4501 95.8998 26.4501 95.8998C26.4501 95.8998 23.8601 85.8398 19.5301 87.4198C15.2001 88.9998 16.4501 102.12 19.1301 103.73C19.4901 103.95 19.8401 104.11 20.1801 104.24L20.1801 104.26L45.4201 116L45.4201 116.01Z" fill="white"/>
</mask>
<g mask="url(#mask1_2094_3413)">
<path d="M27.7911 124.212L40.7201 96.4224L12.9305 83.4934L0.00146293 111.283L27.7911 124.212Z" fill="#171717"/>
</g>
<path d="M33.0401 106.41C32.5264 106.41 32.1101 106.826 32.1101 107.34C32.1101 107.853 32.5264 108.27 33.0401 108.27C33.5537 108.27 33.9701 107.853 33.9701 107.34C33.9701 106.826 33.5537 106.41 33.0401 106.41Z" fill="#4D4D4D"/>
<path d="M30.5501 105.26C30.0364 105.26 29.6201 105.676 29.6201 106.19C29.6201 106.703 30.0364 107.12 30.5501 107.12C31.0637 107.12 31.4801 106.703 31.4801 106.19C31.4801 105.676 31.0637 105.26 30.5501 105.26Z" fill="#4D4D4D"/>
<path d="M112.04 92.5796L112.04 87.8196" stroke="white" stroke-miterlimit="10"/>
<path d="M106.67 87.1997L106.67 82.4397" stroke="white" stroke-miterlimit="10"/>
<path d="M101.29 81.8296L101.29 77.0696" stroke="white" stroke-miterlimit="10"/>
<path d="M95.92 76.4595L95.92 71.6995" stroke="white" stroke-miterlimit="10"/>
<path d="M90.55 71.0796L90.55 66.3196" stroke="white" stroke-miterlimit="10"/>
<path d="M106.67 98.9194L106.67 94.1594" stroke="white" stroke-miterlimit="10"/>
<path d="M101.29 93.5498L101.29 88.7898" stroke="white" stroke-miterlimit="10"/>
<path d="M95.92 88.1694L95.92 83.4094" stroke="white" stroke-miterlimit="10"/>
<path d="M90.55 82.7998L90.55 78.0398" stroke="white" stroke-miterlimit="10"/>
<path d="M106.67 110.64L106.67 105.88" stroke="white" stroke-miterlimit="10"/>
<path d="M101.29 105.26L101.29 100.5" stroke="white" stroke-miterlimit="10"/>
<path d="M112.04 68.6997L112.04 63.9397" stroke="white" stroke-miterlimit="10"/>
<path d="M112.04 80.4194L112.04 75.6594" stroke="white" stroke-miterlimit="10"/>
<path d="M106.67 75.0498L106.67 70.2898" stroke="white" stroke-miterlimit="10"/>
<path d="M101.29 69.6797L101.29 64.9197" stroke="white" stroke-miterlimit="10"/>
<path d="M95.92 99.8896L95.92 95.1297" stroke="white" stroke-miterlimit="10"/>
<path d="M90.55 94.5195L90.55 89.7595" stroke="white" stroke-miterlimit="10"/>
<path d="M77.7701 62.2896L145.05 63.3296L100.14 13.1596C97.9201 10.2496 95.2001 7.70959 92.0101 5.90959C83.7601 1.25958 73.4001 0.489587 63.9801 4.98959C50.8501 11.2496 43.9801 26.3196 47.8701 40.3396C50.6701 50.4296 58.08 57.7596 67.04 60.9196C70.47 62.1296 74.1401 62.5096 77.7701 62.2896Z" fill="#00DDA8"/>
<path d="M77.6401 8.33949C64.2085 8.33949 53.3201 19.2279 53.3201 32.6595C53.3201 46.0911 64.2085 56.9795 77.64 56.9795C91.0716 56.9795 101.96 46.0911 101.96 32.6595C101.96 19.2279 91.0716 8.33949 77.6401 8.33949Z" fill="#FF5858"/>
<mask id="mask2_2094_3413" style="mask-type:luminance" maskUnits="userSpaceOnUse" x="53" y="8" width="49" height="49">
<path d="M77.6401 8.33949C64.2085 8.33949 53.3201 19.2279 53.3201 32.6595C53.3201 46.0911 64.2085 56.9795 77.64 56.9795C91.0716 56.9795 101.96 46.0911 101.96 32.6595C101.96 19.2279 91.0716 8.33949 77.6401 8.33949Z" fill="white"/>
</mask>
<g mask="url(#mask2_2094_3413)">
<path d="M98.7801 14.3993L87.9201 7.13933L64.1401 8.78933L53.5701 20.7593L50.8401 20.7893C50.8401 20.7893 54.1001 38.2293 63.0401 22.6993C64.2101 26.7093 67.6501 34.6893 74.5101 23.1393C75.8101 27.3093 79.3401 34.4893 86.1401 22.6393L86.1601 22.6393C87.3901 26.8893 91.2101 35.8493 99.0301 20.6293L98.7801 14.3893L98.7801 14.3993Z" fill="#171717"/>
</g>
<path d="M65.04 44.0895C68.28 42.0395 67.14 36.8495 67.01 36.2895C66.91 35.8695 65.67 30.8595 62.31 30.4595C59.32 30.0995 56.47 33.6195 56.02 36.8995C55.72 39.0795 56.35 42.1795 58.9 43.7895C60.55 44.8395 63.1 45.3195 65.04 44.0895Z" fill="white"/>
<mask id="mask3_2094_3413" style="mask-type:luminance" maskUnits="userSpaceOnUse" x="55" y="30" width="13" height="15">
<path d="M65.04 44.0895C68.28 42.0395 67.14 36.8495 67.01 36.2895C66.91 35.8695 65.67 30.8595 62.31 30.4595C59.32 30.0995 56.47 33.6195 56.02 36.8995C55.72 39.0795 56.35 42.1795 58.9 43.7895C60.55 44.8395 63.1 45.3195 65.04 44.0895Z" fill="white"/>
</mask>
<g mask="url(#mask3_2094_3413)">
<path d="M55.66 35.3394C55.53 37.2494 56.65 39.7794 58.8 40.1694C60.96 40.5594 62.81 38.5394 63.43 36.8294C64.31 34.4194 63.29 31.1994 61.27 30.5494C59.02 29.8294 55.86 32.4194 55.66 35.3394Z" fill="#171717"/>
</g>
<path d="M80.48 44.0895C83.72 42.0395 82.58 36.8495 82.45 36.2895C82.35 35.8695 81.11 30.8595 77.75 30.4595C74.76 30.0995 71.91 33.6195 71.46 36.8995C71.16 39.0795 71.79 42.1795 74.34 43.7895C75.99 44.8395 78.54 45.3195 80.48 44.0895Z" fill="white"/>
<mask id="mask4_2094_3413" style="mask-type:luminance" maskUnits="userSpaceOnUse" x="71" y="30" width="12" height="15">
<path d="M80.48 44.0895C83.72 42.0395 82.58 36.8495 82.45 36.2895C82.35 35.8695 81.11 30.8595 77.75 30.4595C74.76 30.0995 71.91 33.6195 71.46 36.8995C71.16 39.0795 71.79 42.1795 74.34 43.7895C75.99 44.8395 78.54 45.3195 80.48 44.0895Z" fill="white"/>
</mask>
<g mask="url(#mask4_2094_3413)">
<path d="M71.1 35.3394C70.97 37.2494 72.09 39.7794 74.24 40.1694C76.4 40.5594 78.25 38.5394 78.87 36.8294C79.75 34.4194 78.73 31.1994 76.71 30.5494C74.46 29.8294 71.3 32.4194 71.1 35.3394Z" fill="#171717"/>
</g>
<path d="M69.19 38.1094C67.1135 38.1094 65.43 39.7928 65.43 41.8694C65.43 43.946 67.1135 45.6294 69.19 45.6294C71.2666 45.6294 72.95 43.946 72.95 41.8694C72.95 39.7928 71.2666 38.1094 69.19 38.1094Z" fill="#00DDA8"/>
</svg>
