<svg width="24" height="24" viewBox="0 0 24 24" fill="none" xmlns="http://www.w3.org/2000/svg">
<rect width="24" height="24" rx="5" fill="#4D4D4D"/>
<path d="M12 8.66667C12.2637 8.66667 12.5215 8.58847 12.7408 8.44196C12.96 8.29545 13.1309 8.08721 13.2319 7.84358C13.3328 7.59994 13.3592 7.33185 13.3077 7.07321C13.2563 6.81457 13.1293 6.57699 12.9428 6.39052C12.7564 6.20405 12.5188 6.07707 12.2601 6.02562C12.0015 5.97417 11.7334 6.00058 11.4898 6.10149C11.2461 6.20241 11.0379 6.37331 10.8914 6.59257C10.7449 6.81184 10.6667 7.06963 10.6667 7.33333C10.6667 7.68696 10.8072 8.02609 11.0572 8.27614C11.3073 8.52619 11.6464 8.66667 12 8.66667ZM12 15.3333C11.7363 15.3333 11.4785 15.4115 11.2593 15.558C11.04 15.7045 10.8691 15.9128 10.7682 16.1564C10.6673 16.4001 10.6409 16.6681 10.6923 16.9268C10.7438 17.1854 10.8707 17.423 11.0572 17.6095C11.2437 17.7959 11.4813 17.9229 11.7399 17.9744C11.9985 18.0258 12.2666 17.9994 12.5103 17.8985C12.7539 17.7976 12.9621 17.6267 13.1086 17.4074C13.2552 17.1882 13.3334 16.9304 13.3334 16.6667C13.3334 16.313 13.1929 15.9739 12.9428 15.7239C12.6928 15.4738 12.3536 15.3333 12 15.3333ZM12 10.6667C11.7363 10.6667 11.4785 10.7449 11.2593 10.8914C11.04 11.0379 10.8691 11.2461 10.7682 11.4898C10.6673 11.7334 10.6409 12.0015 10.6923 12.2601C10.7438 12.5188 10.8707 12.7563 11.0572 12.9428C11.2437 13.1293 11.4813 13.2563 11.7399 13.3077C11.9985 13.3592 12.2666 13.3328 12.5103 13.2318C12.7539 13.1309 12.9621 12.96 13.1086 12.7408C13.2552 12.5215 13.3334 12.2637 13.3334 12C13.3334 11.6464 13.1929 11.3072 12.9428 11.0572C12.6928 10.8071 12.3536 10.6667 12 10.6667Z" fill="#A6A6A6"/>
</svg>
