<svg width="153" height="140" viewBox="0 0 153 140" fill="none" xmlns="http://www.w3.org/2000/svg">
<ellipse cx="76.5" cy="122" rx="76.5" ry="18" fill="#171717"/>
<path d="M54.2387 115.895L53.5587 106.755L28.6487 108.615C28.2187 107.995 27.8687 107.605 27.8687 107.605C27.8687 107.605 20.6987 100.085 17.6987 103.575C14.6887 107.065 22.1887 117.905 25.3087 118.015C25.7287 118.025 26.1187 118.005 26.4787 117.945V117.965L54.2487 115.895H54.2387Z" fill="#171717"/>
<mask id="mask0_1966_7187" style="mask-type:luminance" maskUnits="userSpaceOnUse" x="17" y="102" width="38" height="17">
<path d="M54.2387 115.895L53.5587 106.755L28.6487 108.615C28.2187 107.995 27.8687 107.605 27.8687 107.605C27.8687 107.605 20.6987 100.085 17.6987 103.575C14.6887 107.065 22.1887 117.905 25.3087 118.015C25.7287 118.025 26.1187 118.005 26.4787 117.945V117.965L54.2487 115.895H54.2387Z" fill="white"/>
</mask>
<g mask="url(#mask0_1966_7187)">
<path d="M42.8579 131.645L40.5811 101.08L10.0158 103.356L12.2926 133.922L42.8579 131.645Z" fill="#00DDA8"/>
</g>
<path d="M39.2087 115.295C39.7223 115.295 40.1387 114.879 40.1387 114.365C40.1387 113.851 39.7223 113.435 39.2087 113.435C38.6951 113.435 38.2787 113.851 38.2787 114.365C38.2787 114.879 38.6951 115.295 39.2087 115.295Z" fill="#4D4D4D"/>
<path d="M36.4687 115.505C36.9823 115.505 37.3987 115.089 37.3987 114.575C37.3987 114.061 36.9823 113.645 36.4687 113.645C35.9551 113.645 35.5387 114.061 35.5387 114.575C35.5387 115.089 35.9551 115.505 36.4687 115.505Z" fill="#4D4D4D"/>
<path d="M95.7188 31.345L33.0188 133.205L118.749 122.375L127.659 87.535L95.7288 31.335L95.7188 31.345Z" fill="#D968D3"/>
<path d="M54.4487 92.955C56.1587 92.985 72.8087 93.185 75.0887 86.275C75.8087 84.105 75.4387 80.185 73.8487 79.585C72.7387 79.165 70.8587 80.285 70.8587 81.255C70.8587 83.395 79.9587 86.255 88.2787 85.455C96.4287 84.675 105.629 80.205 105.469 76.285C105.389 74.305 102.899 72.165 101.149 72.505C99.5787 72.815 98.1587 75.195 98.6187 76.925C99.6787 81.005 111.789 83.945 119.939 79.065C123.649 76.845 125.619 73.565 126.559 71.645" stroke="white" stroke-miterlimit="10"/>
<path d="M81.3788 60.5753L145.599 40.5053L87.2488 6.91531C84.2288 4.84531 80.8488 3.28531 77.2588 2.57531C67.9688 0.745306 57.8888 3.25531 50.3488 10.4753C39.8388 20.5353 38.0388 36.9953 46.1188 49.0853C51.9388 57.7953 61.2688 62.4353 70.7688 62.6253C74.4088 62.7053 78.0088 61.9153 81.3888 60.5653L81.3788 60.5753Z" fill="#00DDA8"/>
<path d="M70.2287 56.6454C83.6603 56.6454 94.5487 45.7569 94.5487 32.3254C94.5487 18.8938 83.6603 8.00537 70.2287 8.00537C56.7971 8.00537 45.9087 18.8938 45.9087 32.3254C45.9087 45.7569 56.7971 56.6454 70.2287 56.6454Z" fill="#D968D3"/>
<mask id="mask1_1966_7187" style="mask-type:luminance" maskUnits="userSpaceOnUse" x="45" y="8" width="50" height="49">
<path d="M70.2287 56.6454C83.6603 56.6454 94.5487 45.7569 94.5487 32.3254C94.5487 18.8938 83.6603 8.00537 70.2287 8.00537C56.7971 8.00537 45.9087 18.8938 45.9087 32.3254C45.9087 45.7569 56.7971 56.6454 70.2287 56.6454Z" fill="white"/>
</mask>
<g mask="url(#mask1_1966_7187)">
<path d="M91.3687 14.0652L80.5087 6.80518L56.7287 8.45518L46.1587 20.4252L43.4287 20.4552C43.4287 20.4552 46.6887 37.8952 55.6287 22.3652C56.7987 26.3752 60.2387 34.3552 67.0987 22.8052C68.3987 26.9752 71.9287 34.1552 78.7287 22.3052H78.7487C79.9787 26.5552 83.7987 35.5152 91.6187 20.2952L91.3687 14.0552V14.0652Z" fill="#171717"/>
</g>
<path d="M49.1089 38.055C49.1089 38.055 51.0889 33.085 55.2689 33.085C59.4489 33.085 61.3389 38.055 61.3389 38.055C61.3389 38.055 60.2389 43.195 55.2189 43.195C50.1989 43.195 49.0989 38.055 49.0989 38.055H49.1089Z" fill="white"/>
<mask id="mask2_1966_7187" style="mask-type:luminance" maskUnits="userSpaceOnUse" x="49" y="33" width="13" height="11">
<path d="M49.1089 38.055C49.1089 38.055 51.0889 33.085 55.2689 33.085C59.4489 33.085 61.3389 38.055 61.3389 38.055C61.3389 38.055 60.2389 43.195 55.2189 43.195C50.1989 43.195 49.0989 38.055 49.0989 38.055H49.1089Z" fill="white"/>
</mask>
<g mask="url(#mask2_1966_7187)">
<path d="M55.8189 47.555C54.5589 37.915 55.8189 29.105 55.8189 29.105L48.1889 33.695L47.4789 40.325L55.8189 47.555Z" fill="#171717"/>
</g>
<path d="M64.1089 38.055C64.1089 38.055 66.0889 33.085 70.2689 33.085C74.4489 33.085 76.3389 38.055 76.3389 38.055C76.3389 38.055 75.2389 43.195 70.2189 43.195C65.1989 43.195 64.0989 38.055 64.0989 38.055H64.1089Z" fill="white"/>
<mask id="mask3_1966_7187" style="mask-type:luminance" maskUnits="userSpaceOnUse" x="64" y="33" width="13" height="11">
<path d="M64.1089 38.055C64.1089 38.055 66.0889 33.085 70.2689 33.085C74.4489 33.085 76.3389 38.055 76.3389 38.055C76.3389 38.055 75.2389 43.195 70.2189 43.195C65.1989 43.195 64.0989 38.055 64.0989 38.055H64.1089Z" fill="white"/>
</mask>
<g mask="url(#mask3_1966_7187)">
<path d="M70.8189 47.555C69.5589 37.915 70.8189 29.105 70.8189 29.105L63.1889 33.695L62.4789 40.325L70.8189 47.555Z" fill="#171717"/>
</g>
<path d="M62.5788 45.355C64.6554 45.355 66.3388 43.6716 66.3388 41.595C66.3388 39.5184 64.6554 37.835 62.5788 37.835C60.5023 37.835 58.8188 39.5184 58.8188 41.595C58.8188 43.6716 60.5023 45.355 62.5788 45.355Z" fill="#00DDA8"/>
<path d="M59.8689 47.5953C60.0089 50.5253 62.5489 52.2853 64.3589 51.8953C66.0489 51.5353 67.5489 49.2153 66.8889 46.6353" stroke="white" stroke-miterlimit="10" stroke-linecap="round"/>
<path d="M62.5788 125.925L61.2388 116.865L36.5288 120.525C36.0588 119.935 35.6788 119.575 35.6788 119.575C35.6788 119.575 27.9888 112.595 25.2388 116.295C22.4988 119.995 30.7488 130.265 33.8688 130.145C34.2888 130.125 34.6688 130.075 35.0288 129.995V130.015L62.5788 125.935V125.925Z" fill="#171717"/>
<mask id="mask4_1966_7187" style="mask-type:luminance" maskUnits="userSpaceOnUse" x="24" y="115" width="39" height="16">
<path d="M62.5788 125.925L61.2388 116.865L36.5288 120.525C36.0588 119.935 35.6788 119.575 35.6788 119.575C35.6788 119.575 27.9888 112.595 25.2388 116.295C22.4988 119.995 30.7488 130.265 33.8688 130.145C34.2888 130.125 34.6688 130.075 35.0288 129.995V130.015L62.5788 125.935V125.925Z" fill="white"/>
</mask>
<g mask="url(#mask4_1966_7187)">
<path d="M52.3705 142.463L47.8824 112.143L17.5628 116.631L22.0508 146.951L52.3705 142.463Z" fill="#00DDA8"/>
</g>
<path d="M47.4688 126.425C47.9824 126.425 48.3988 126.009 48.3988 125.495C48.3988 124.981 47.9824 124.565 47.4688 124.565C46.9552 124.565 46.5388 124.981 46.5388 125.495C46.5388 126.009 46.9552 126.425 47.4688 126.425Z" fill="#4D4D4D"/>
<path d="M44.7588 126.825C45.2724 126.825 45.6888 126.408 45.6888 125.895C45.6888 125.381 45.2724 124.965 44.7588 124.965C44.2452 124.965 43.8288 125.381 43.8288 125.895C43.8288 126.408 44.2452 126.825 44.7588 126.825Z" fill="#4D4D4D"/>
</svg>
