<svg width="24" height="24" viewBox="0 0 24 24" fill="none" xmlns="http://www.w3.org/2000/svg">
<path d="M17.3654 19.6145C17.3654 19.6145 16.7237 18.8479 16.1889 18.1706C17.481 17.8663 18.6238 17.115 19.4153 16.0493C18.774 16.4763 18.0863 16.829 17.3654 17.1009C16.5362 17.4549 15.6689 17.7122 14.7808 17.8675C13.2541 18.1486 11.6884 18.1426 10.164 17.8497C9.26905 17.6745 8.39196 17.418 7.54368 17.0833C7.09652 16.9113 6.6617 16.7088 6.2423 16.4772C6.18893 16.4415 6.13543 16.4237 6.08195 16.388C6.05514 16.3747 6.03098 16.3566 6.01065 16.3346C5.68982 16.1563 5.51154 16.0316 5.51154 16.0316C6.27439 17.0748 7.37778 17.8188 8.63097 18.1349C8.09629 18.8124 7.4367 19.6144 7.4367 19.6144C6.37785 19.6429 5.32822 19.4107 4.38019 18.9382C3.43216 18.4658 2.61478 17.7676 2 16.905C2.05787 13.2913 2.93554 9.73787 4.56682 6.51277C6.00238 5.3853 7.75256 4.73131 9.57571 4.64111L9.75397 4.85509C8.03868 5.27948 6.43803 6.07675 5.06593 7.19016C5.06593 7.19016 5.45806 6.9763 6.11753 6.67325C7.39887 6.08836 8.76449 5.70936 10.164 5.55025C10.2638 5.52954 10.3652 5.5176 10.4671 5.51455C11.6616 5.35895 12.8704 5.347 14.0678 5.47898C15.9507 5.69402 17.7734 6.27533 19.4331 7.19016C18.1305 6.12988 16.6177 5.35827 14.9946 4.92639L15.2442 4.64123C17.0673 4.73136 18.8175 5.38535 20.2531 6.51289C21.8844 9.73793 22.7621 13.2913 22.82 16.905C22.2002 17.7667 21.3793 18.464 20.4287 18.9362C19.4781 19.4084 18.4265 19.6412 17.3654 19.6144V19.6145ZM9.0766 11.29C8.59269 11.29 8.12861 11.4823 7.78644 11.8245C7.44427 12.1666 7.25205 12.6307 7.25206 13.1146C7.25206 13.5986 7.4443 14.0626 7.78648 14.4048C8.12866 14.747 8.59275 14.9392 9.07666 14.9392C9.56057 14.9392 10.0247 14.747 10.3668 14.4048C10.709 14.0626 10.9013 13.5986 10.9013 13.1146C10.9013 12.6307 10.7091 12.1666 10.3669 11.8245C10.0247 11.4823 9.56063 11.29 9.07672 11.29H9.0766ZM15.5829 11.29C15.1845 11.2562 14.7851 11.3436 14.4371 11.5406C14.0891 11.7376 13.8087 12.035 13.6326 12.394C13.4565 12.753 13.3928 13.1569 13.45 13.5526C13.5072 13.9484 13.6826 14.3177 13.9532 14.6121C14.2237 14.9066 14.5769 15.1125 14.9664 15.2029C15.3559 15.2933 15.7637 15.2639 16.1363 15.1187C16.5089 14.9736 16.8289 14.7192 17.0546 14.3891C17.2802 14.059 17.401 13.6684 17.401 13.2685C17.4116 13.0192 17.373 12.7703 17.2874 12.5359C17.2018 12.3015 17.0708 12.0862 16.902 11.9025C16.7331 11.7188 16.5297 11.5701 16.3034 11.465C16.0771 11.3599 15.8322 11.3004 15.5829 11.29Z" fill="white"/>
</svg>
