<svg width="8" height="10" viewBox="0 0 8 10" fill="none" xmlns="http://www.w3.org/2000/svg">
<path d="M6.08646 6.28731L4.23684 8.05639C3.46992 8.82331 2.25188 8.82331 1.53007 8.05639C0.763156 7.28947 0.763156 6.07143 1.53007 5.34962L5.1391 1.7406C5.59022 1.33459 6.26691 1.33459 6.71804 1.7406C7.16917 2.19173 7.16917 2.91353 6.71804 3.31955L3.60526 6.43233C3.46992 6.56767 3.24436 6.56767 3.10902 6.43233C2.97368 6.29699 2.97368 6.07143 3.10902 5.93609L5.40977 3.63534C5.59022 3.45489 5.59022 3.18421 5.40977 3.00376C5.22932 2.82331 4.95864 2.82331 4.77819 3.00376L2.47744 5.34962C1.9812 5.84587 1.9812 6.61278 2.47744 7.10902C2.97368 7.56015 3.7406 7.56015 4.23684 7.10902L7.34962 3.99624C8.16165 3.18421 8.16165 1.92105 7.34962 1.10902C6.53759 0.296992 5.27443 0.296992 4.4624 1.10902L0.853382 4.71805C0.312028 5.2594 0.0413513 5.9812 0.0413513 6.70301C0.0413513 8.28196 1.30451 9.5 2.88346 9.5C3.65037 9.5 4.32707 9.18421 4.86842 8.68797L6.71804 6.91889C6.89849 6.73844 6.89849 6.46776 6.71804 6.28731C6.53759 6.10686 6.26692 6.10686 6.08646 6.28731Z" fill="#A6A6A6"/>
</svg>
