<svg width="90" height="90" viewBox="0 0 90 90" fill="none" xmlns="http://www.w3.org/2000/svg">
<path d="M7.5 63.5545L23.4762 8.75H81.25L77.5 88.125L7.5 63.5545Z" fill="#EBEBEB"/>
<path d="M37.2808 14.9289L32.5889 18.3412L28.75 6.82465L34.295 0L42.3993 1.70616L45.625 8.75H41.25L37.2808 4.2654L34.295 9.81043L37.2808 14.9289Z" fill="#4D4D4D"/>
<path d="M70 8.75009H65.0829L62.0972 5.97168L59.9645 10.2371L65.0829 13.6494L63.8033 18.3413L54.4194 11.0902L59.5379 2.13281L67.6422 2.98589L70 8.75009Z" fill="#4D4D4D"/>
<path d="M32.5 37.973V30.2703L43.1534 20L51.25 22.1396L46.5625 67.5L33.7784 59.7973L43.1534 28.1306L32.5 37.973Z" fill="#00DDA8"/>
<path d="M15.625 24.375L13.75 30L0 19.375L7.5 7.5L15.625 24.375Z" fill="#00DDA8"/>
<path d="M20 12.5L17.5 13.75L13.75 5L19.375 3.75L20 12.5Z" fill="#00DDA8"/>
</svg>
