<svg width="90" height="90" viewBox="0 0 90 90" fill="none" xmlns="http://www.w3.org/2000/svg">
<path d="M28.75 76.875L22.5 62.5L28.75 37.5L63.75 30L77.5 47.5V73.125L53.125 86.25L28.75 76.875Z" fill="#4D4D4D"/>
<path d="M51.875 66.25V70.8654L48.75 68.75L46.25 73.5577L52.25 76.25L52.625 81.25L56.375 80V76.25L60 77.5L61.25 72.5L56.375 70.8654L57.5 66.25H51.875Z" fill="#00DDA8"/>
<path d="M65 67.5L63.75 65L68.75 61.25L71.25 61.25V82.5L66.25 81.25L67.5 66.25L65 67.5Z" fill="#00DDA8"/>
<path d="M28.4409 90L0 59.5455L13.0354 42.7273L30.625 65.625L45.0315 0L72.5 22.5L28.4409 90Z" fill="#EBEBEB"/>
</svg>
