<svg width="90" height="90" viewBox="0 0 90 90" fill="none" xmlns="http://www.w3.org/2000/svg">
<path d="M40.9219 7.5L8.75 33.125L21.875 90L75 87.5L81.25 26.0733L40.9219 7.5Z" fill="#EBEBEB"/>
<path d="M44.2634 77.5L59.4978 66.977L71.25 74.9745L64.2857 60.6633V46.352L55.5804 36.25L27.7232 41.7219L22.5 64.0306L44.2634 77.5Z" fill="#00DDA8"/>
<path d="M42.2794 21.25L43.75 15.9375L36.3971 11.5909L39.3382 4.34659L27.5735 0L18.75 7.24432L22.1814 21.25L32.4755 20.2841L34.4363 14.9716L42.2794 21.25Z" fill="#4D4D4D"/>
<path d="M62.5 8.75V4.375L74.375 2.5L80 14.375L78.75 23.75L69.375 22.5L68.125 26.25L63.125 25L65 18.125L74.375 18.75L70.625 8.75H62.5Z" fill="#00DDA8"/>
<path d="M70 35L63.75 28.75L70 29.375V35Z" fill="#00DDA8"/>
<path d="M0 52.5L12.5 67.5L16.25 61.875L7.5 43.75L0 52.5Z" fill="#00DDA8"/>
<path d="M14.8864 73.3333L16.5909 68.3333L20 70V80L14.8864 73.3333Z" fill="#00DDA8"/>
</svg>
