<svg width="24" height="24" viewBox="0 0 24 24" fill="none" xmlns="http://www.w3.org/2000/svg">
<path d="M12 7.5C11.11 7.5 10.24 7.76392 9.49993 8.25839C8.75991 8.75285 8.18314 9.45566 7.84254 10.2779C7.50195 11.1002 7.41283 12.005 7.58647 12.8779C7.7601 13.7508 8.18868 14.5526 8.81802 15.182C9.44736 15.8113 10.2492 16.2399 11.1221 16.4135C11.995 16.5872 12.8998 16.4981 13.7221 16.1575C14.5443 15.8169 15.2471 15.2401 15.7416 14.5001C16.2361 13.76 16.5 12.89 16.5 12C16.5 10.8065 16.0259 9.66193 15.182 8.81802C14.3381 7.97411 13.1935 7.5 12 7.5ZM12 14.7C11.466 14.7 10.944 14.5416 10.5 14.245C10.0559 13.9483 9.70988 13.5266 9.50552 13.0332C9.30117 12.5399 9.2477 11.997 9.35188 11.4733C9.45606 10.9495 9.71321 10.4684 10.0908 10.0908C10.4684 9.71321 10.9495 9.45606 11.4733 9.35188C11.997 9.2477 12.5399 9.30117 13.0332 9.50552C13.5266 9.70988 13.9483 10.0559 14.245 10.5C14.5416 10.944 14.7 11.466 14.7 12C14.7 12.7161 14.4155 13.4028 13.9092 13.9092C13.4028 14.4155 12.7161 14.7 12 14.7ZM16.5 6.6C16.322 6.6 16.148 6.65278 16 6.75168C15.852 6.85057 15.7366 6.99113 15.6685 7.15558C15.6004 7.32004 15.5826 7.501 15.6173 7.67558C15.652 7.85016 15.7377 8.01053 15.8636 8.1364C15.9895 8.26226 16.1498 8.34798 16.3244 8.38271C16.499 8.41743 16.68 8.39961 16.8444 8.33149C17.0089 8.26337 17.1494 8.14802 17.2483 8.00001C17.3472 7.85201 17.4 7.678 17.4 7.5C17.4 7.2613 17.3052 7.03239 17.1364 6.8636C16.9676 6.69482 16.7387 6.6 16.5 6.6ZM20.946 8.616C20.9311 7.84688 20.785 7.08595 20.514 6.366C20.2627 5.71086 19.8764 5.11589 19.3803 4.61973C18.8841 4.12356 18.2891 3.73729 17.634 3.486C16.914 3.21501 16.1531 3.06891 15.384 3.054C14.511 3 14.223 3 12 3C9.777 3 9.489 3 8.616 3.054C7.84688 3.06891 7.08595 3.21501 6.366 3.486C5.71086 3.73729 5.11589 4.12356 4.61973 4.61973C4.12356 5.11589 3.73729 5.71086 3.486 6.366C3.21501 7.08595 3.06891 7.84688 3.054 8.616C3 9.498 3 9.786 3 12C3 14.214 3 14.502 3.054 15.384C3.06891 16.1531 3.21501 16.914 3.486 17.634C3.73729 18.2891 4.12356 18.8841 4.61973 19.3803C5.11589 19.8764 5.71086 20.2627 6.366 20.514C7.08595 20.785 7.84688 20.9311 8.616 20.946C9.516 20.946 9.777 21 12 21C14.223 21 14.511 21 15.384 20.946C16.1531 20.9311 16.914 20.785 17.634 20.514C18.2891 20.2627 18.8841 19.8764 19.3803 19.3803C19.8764 18.8841 20.2627 18.2891 20.514 17.634C20.785 16.914 20.9311 16.1531 20.946 15.384C20.946 14.484 21 14.214 21 12C21 9.786 21 9.498 20.946 8.616ZM19.146 15.303C19.1302 15.8742 19.0239 16.4392 18.831 16.977C18.6715 17.4021 18.4194 17.7864 18.093 18.102C17.7793 18.4286 17.3942 18.6781 16.968 18.831C16.4289 19.0318 15.8601 19.1413 15.285 19.155C14.439 19.155 14.178 19.2 11.991 19.2C9.804 19.2 9.552 19.2 8.706 19.2C8.13182 19.1852 7.56368 19.0788 7.023 18.885C6.59789 18.7255 6.2136 18.4734 5.898 18.147C5.57144 17.8333 5.32193 17.4482 5.169 17.022C4.96902 16.4858 4.85953 15.9201 4.845 15.348C4.845 14.448 4.845 14.223 4.845 12.045C4.845 9.867 4.845 9.606 4.845 8.742C4.86051 8.16709 4.96996 7.59858 5.169 7.059C5.3243 6.63657 5.57358 6.25496 5.898 5.943C6.21172 5.61644 6.59677 5.36693 7.023 5.214C7.56209 5.01321 8.13089 4.9037 8.706 4.89C9.552 4.8 9.813 4.8 12 4.8C14.187 4.8 14.448 4.8 15.294 4.8C15.8719 4.8147 16.4435 4.92415 16.986 5.124C17.4084 5.2793 17.79 5.52858 18.102 5.853C18.4286 6.16672 18.6781 6.55177 18.831 6.978C19.0513 7.52571 19.1761 8.10712 19.2 8.697C19.2 9.597 19.245 9.822 19.245 12C19.245 14.178 19.2 14.439 19.2 15.303H19.146Z" fill="white"/>
</svg>
