<svg width="12" height="20" viewBox="0 0 12 20" fill="none" xmlns="http://www.w3.org/2000/svg">
<path d="M0.578144 10.2035C0.588943 9.83631 0.718525 9.52316 1.01009 9.24239L9.43294 1.00312C9.65971 0.765551 9.96206 0.646767 10.3076 0.646767C11.0095 0.646767 11.5602 1.18669 11.5602 1.8886C11.5602 2.23415 11.4199 2.54731 11.1823 2.79567L3.59093 10.2035L11.1823 17.6113C11.4199 17.8488 11.5602 18.162 11.5602 18.5075C11.5602 19.2202 11.0095 19.7602 10.3076 19.7602C9.96206 19.7602 9.65971 19.6414 9.43294 19.4038L1.01009 11.1645C0.718525 10.8838 0.578144 10.5706 0.578144 10.2035Z" fill="white"/>
</svg>
