<svg width="24" height="24" viewBox="0 0 24 24" fill="none" xmlns="http://www.w3.org/2000/svg">
<mask id="mask0_2105_18159" style="mask-type:luminance" maskUnits="userSpaceOnUse" x="0" y="5" width="24" height="14">
<path d="M24 5H0V18.8182H24V5Z" fill="white"/>
</mask>
<g mask="url(#mask0_2105_18159)">
<path d="M9.01695 12.6128C10.1524 12.6053 11.1135 12.7464 11.899 13.4424C12.0383 13.5653 12.1623 13.53 12.305 13.4413C13.2836 12.8351 14.3708 12.74 15.4996 12.7603C17.3186 12.7934 19.074 13.2552 20.8666 13.4584C21.5468 13.5353 22.2271 13.593 22.9127 13.6037C23.9221 13.6187 24.2666 14.196 23.7849 15.064C22.3993 17.5624 20.215 18.8205 17.3285 18.812C15.368 18.8066 13.6796 18.0381 12.3258 16.6376C12.1009 16.4056 11.9868 16.4013 11.7586 16.6355C8.82059 19.6608 3.58744 19.6085 0.833732 16.0518C0.560552 15.699 0.325775 15.3206 0.135977 14.9208C-0.212898 14.1821 0.126104 13.6358 0.966474 13.6091C1.70592 13.5856 2.44097 13.5353 3.17602 13.4445C4.44097 13.2884 5.67959 12.9933 6.94015 12.818C7.67084 12.7165 8.40037 12.5935 9.01695 12.6117V12.6128Z" fill="white"/>
<path d="M5.6818 10.9054C3.98569 10.9054 2.64614 9.61293 2.63846 7.96984C2.63078 6.33103 4.00873 4.99689 5.70594 4.99903C7.39106 5.00116 8.73717 6.31072 8.74379 7.95273C8.74925 9.60865 7.40423 10.9064 5.6818 10.9064V10.9054Z" fill="white"/>
<path d="M18.3071 10.9054C16.5913 10.9054 15.233 9.5862 15.2561 7.94204C15.2781 6.29147 16.6154 4.99902 18.3027 4.99902C19.9978 4.99902 21.3943 6.34278 21.357 7.98053C21.312 9.9347 19.6225 11.0187 18.3071 10.9054Z" fill="white"/>
</g>
</svg>
