<svg width="24" height="24" viewBox="0 0 24 24" fill="none" xmlns="http://www.w3.org/2000/svg">
<path d="M4.57814 11.2035C4.58894 10.8363 4.71853 10.5232 5.01009 10.2424L13.4329 2.00312C13.6597 1.76555 13.9621 1.64677 14.3076 1.64677C15.0095 1.64677 15.5602 2.18669 15.5602 2.8886C15.5602 3.23415 15.4199 3.54731 15.1823 3.79567L7.59093 11.2035L15.1823 18.6113C15.4199 18.8488 15.5602 19.162 15.5602 19.5075C15.5602 20.2202 15.0095 20.7602 14.3076 20.7602C13.9621 20.7602 13.6597 20.6414 13.4329 20.4038L5.01009 12.1645C4.71853 11.8838 4.57814 11.5706 4.57814 11.2035Z" fill="white"/>
</svg>
