<svg width="62" height="20" viewBox="0 0 62 20" fill="none" xmlns="http://www.w3.org/2000/svg">
<path d="M47.4746 13.0078C47.3525 13.0078 47.2402 12.9639 47.1523 12.8711L43.3633 8.99902C43.2803 8.91602 43.2363 8.80859 43.2363 8.68164C43.2363 8.42773 43.4268 8.23242 43.6807 8.23242C43.8027 8.23242 43.915 8.28613 43.998 8.36426L47.4746 11.9189L50.9512 8.36426C51.0342 8.28613 51.1416 8.23242 51.2686 8.23242C51.5225 8.23242 51.7129 8.42773 51.7129 8.68164C51.7129 8.80859 51.6689 8.91602 51.5811 8.99902L47.7969 12.8711C47.7041 12.9639 47.5967 13.0078 47.4746 13.0078Z" fill="white"/>
<path d="M11.1738 6.52734V7.30078H7.31836V12.6094C9.19336 12.6094 10.4355 12.5449 11.877 12.2695L11.9941 13.0312C10.459 13.3242 9.19336 13.3945 7.18945 13.3945H6.39258V6.52734H11.1738ZM14.5137 5.53125V15.9727H13.5879V10.0898H10.5527V9.32812H13.5879V5.53125H14.5137ZM25.7754 13.8516V14.6133H16.2363V13.8516H20.5254V11.6016H17.3613V6.26953H18.2871V8.15625H23.7012V6.26953H24.6035V11.6016H21.4277V13.8516H25.7754ZM18.2871 10.8516H23.7012V8.90625H18.2871V10.8516ZM35.2207 5.53125V15.9492H34.2949V5.53125H35.2207ZM32.1387 6.66797C32.127 9.66797 30.7324 12.3164 27.2402 13.9922L26.7363 13.2422C29.5547 11.9062 30.9902 9.9082 31.2012 7.41797H27.2168V6.66797H32.1387Z" fill="white"/>
</svg>
