<svg width="220" height="99" viewBox="0 0 220 99" fill="none" xmlns="http://www.w3.org/2000/svg">
<path d="M21.4361 80.5558L10.4512 40.2778H25.5554V55.3821L30.5901 40.2778L40.6596 30.2084L50.7291 50.3473L54.3907 10.0694L70.868 5.03467L65.8333 55.3821L59.8832 80.5558L40.6596 75.521L35.6249 55.3821L30.5901 80.5558H21.4361Z" fill="#00DDA8"/>
<circle cx="23.8771" cy="13.426" r="13.426" fill="#00DDA8"/>
<path d="M90.3078 82.1952C78.8397 82.1952 71.847 74.5732 71.847 62.6856C71.847 50.9379 78.9796 42.9662 89.8183 42.9662C99.1185 42.9662 107.16 48.7701 107.16 62.1262V64.9233H80.6578C80.7627 71.3915 84.5737 75.2025 90.3777 75.2025C94.2936 75.2025 96.9508 73.5243 98.0696 71.2866H106.811C105.202 77.8598 99.1185 82.1952 90.3078 82.1952ZM80.7278 58.8396H98.6291C98.5591 53.665 95.1327 49.889 89.9581 49.889C84.5737 49.889 81.0075 53.9797 80.7278 58.8396ZM130.935 82.1952C119.467 82.1952 112.475 74.5732 112.475 62.6856C112.475 50.9379 119.607 42.9662 130.446 42.9662C139.746 42.9662 147.788 48.7701 147.788 62.1262V64.9233H121.285C121.39 71.3915 125.201 75.2025 131.005 75.2025C134.921 75.2025 137.578 73.5243 138.697 71.2866H147.438C145.83 77.8598 139.746 82.1952 130.935 82.1952ZM121.355 58.8396H139.257C139.187 53.665 135.76 49.889 130.586 49.889C125.201 49.889 121.635 53.9797 121.355 58.8396ZM173.661 43.4557V50.3085H166.178V70.0279C166.178 73.6641 167.997 74.4333 170.234 74.4333C171.283 74.4333 173.031 74.3634 174.15 74.2935V81.5659C173.101 81.7757 171.353 81.9155 169.115 81.9155C162.402 81.9155 157.228 78.6289 157.298 71.4964V50.3085H151.843V43.4557H157.298V34.3652H166.178V43.4557H173.661ZM190.303 59.1893V81.426H181.353V30.7989H190.094V49.889H190.583C192.331 45.6234 195.967 42.9662 201.841 42.9662C209.743 42.9662 214.918 48.0709 214.918 57.2313V81.426H206.037V58.6298C206.037 53.4552 203.24 50.5183 198.555 50.5183C193.73 50.5183 190.303 53.665 190.303 59.1893Z" fill="#00DDA8"/>
</svg>
