<svg width="24" height="24" viewBox="0 0 24 24" fill="none" xmlns="http://www.w3.org/2000/svg">
<path d="M5.78672 5.15653C6.42157 5.67224 6.65986 5.63309 7.85297 5.5531L19.0991 4.87825C19.3374 4.87825 19.1391 4.63996 19.0599 4.60082L17.1911 3.25026C16.8337 2.97283 16.3563 2.65455 15.4423 2.7337L4.5536 3.52854C4.15703 3.56769 4.07704 3.76683 4.23532 3.92511L5.78672 5.15653ZM6.46157 7.77764V19.6101C6.46157 20.2458 6.779 20.4841 7.4947 20.4441L19.8539 19.7292C20.5696 19.6901 20.6496 19.2527 20.6496 18.7361V6.9828C20.6496 6.46709 20.4513 6.18881 20.0131 6.22795L7.09728 6.9828C6.62071 7.0228 6.46157 7.26193 6.46157 7.77764ZM18.6625 8.41165C18.7417 8.76907 18.6625 9.12649 18.3051 9.16734L17.7094 9.28649V18.0213C17.192 18.2995 16.7154 18.4587 16.318 18.4587C15.6814 18.4587 15.5223 18.2595 15.0457 17.6647L11.1506 11.5493V17.4656L12.3829 17.7447C12.3829 17.7447 12.3829 18.4595 11.3889 18.4595L8.64697 18.6178C8.56782 18.4595 8.64697 18.0621 8.92525 17.983L9.6401 17.7847V9.96134L8.64867 9.88134C8.56867 9.52392 8.76781 9.00821 9.32352 8.96821L12.2646 8.76992L16.3188 14.9644V9.48392L15.2849 9.36563C15.2057 8.92821 15.5231 8.61078 15.9206 8.57164L18.6625 8.41165ZM3.63962 2.45627L14.9666 1.62228C16.3571 1.50314 16.7154 1.58228 17.5894 2.21799L21.2053 4.75911C21.801 5.19567 22.0002 5.31482 22.0002 5.79138V19.7292C22.0002 20.6024 21.6828 21.1198 20.5705 21.1981L7.41555 21.9929C6.58156 22.0329 6.18329 21.9138 5.74587 21.3572L3.08306 17.9021C2.60649 17.2664 2.4082 16.7907 2.4082 16.2341V3.84512C2.4082 3.13112 2.72648 2.53456 3.63962 2.45627Z" fill="white"/>
</svg>
