<svg width="24" height="25" viewBox="0 0 24 25" fill="none" xmlns="http://www.w3.org/2000/svg">
<g clip-path="url(#clip0_1436_6659)">
<g clip-path="url(#clip1_1436_6659)">
<path d="M5 18.5058H9.24C9.37161 18.5066 9.50207 18.4813 9.62391 18.4316C9.74574 18.3818 9.85656 18.3085 9.95 18.2158L16.87 11.2858L19.71 8.5058C19.8037 8.41284 19.8781 8.30223 19.9289 8.18038C19.9797 8.05852 20.0058 7.92781 20.0058 7.7958C20.0058 7.66379 19.9797 7.53308 19.9289 7.41122C19.8781 7.28936 19.8037 7.17876 19.71 7.0858L15.47 2.7958C15.377 2.70207 15.2664 2.62768 15.1446 2.57691C15.0227 2.52614 14.892 2.5 14.76 2.5C14.628 2.5 14.4973 2.52614 14.3754 2.57691C14.2536 2.62768 14.143 2.70207 14.05 2.7958L11.23 5.6258L4.29 12.5558C4.19732 12.6492 4.12399 12.7601 4.07423 12.8819C4.02446 13.0037 3.99924 13.1342 4 13.2658V17.5058C4 17.771 4.10536 18.0254 4.29289 18.2129C4.48043 18.4004 4.73478 18.5058 5 18.5058ZM14.76 4.9158L17.59 7.7458L16.17 9.1658L13.34 6.3358L14.76 4.9158ZM6 13.6758L11.93 7.7458L14.76 10.5758L8.83 16.5058H6V13.6758ZM21 20.5058H3C2.73478 20.5058 2.48043 20.6112 2.29289 20.7987C2.10536 20.9862 2 21.2406 2 21.5058C2 21.771 2.10536 22.0254 2.29289 22.2129C2.48043 22.4004 2.73478 22.5058 3 22.5058H21C21.2652 22.5058 21.5196 22.4004 21.7071 22.2129C21.8946 22.0254 22 21.771 22 21.5058C22 21.2406 21.8946 20.9862 21.7071 20.7987C21.5196 20.6112 21.2652 20.5058 21 20.5058Z" fill="white"/>
</g>
</g>
<defs>
<clipPath id="clip0_1436_6659">
<rect width="24" height="24" fill="white" transform="translate(0 0.5)"/>
</clipPath>
<clipPath id="clip1_1436_6659">
<rect width="24" height="24" fill="white" transform="translate(0 0.5)"/>
</clipPath>
</defs>
</svg>
