<svg width="24" height="24" viewBox="0 0 24 24" fill="none" xmlns="http://www.w3.org/2000/svg">
<rect width="24" height="24" rx="5" fill="#4D4D4D"/>
<path d="M18 11.6667C18.0023 12.5466 17.7967 13.4146 17.4 14.2C16.9296 15.1412 16.2065 15.9328 15.3116 16.4862C14.4168 17.0396 13.3855 17.3329 12.3333 17.3333C11.4534 17.3356 10.5854 17.13 9.79999 16.7333L6 18L7.26666 14.2C6.86995 13.4146 6.66437 12.5466 6.66667 11.6667C6.66707 10.6145 6.96041 9.58325 7.51381 8.68838C8.06721 7.79352 8.85883 7.0704 9.79999 6.60002C10.5854 6.20331 11.4534 5.99772 12.3333 6.00002H12.6667C14.0562 6.07668 15.3687 6.66319 16.3527 7.64726C17.3368 8.63132 17.9233 9.94378 18 11.3333V11.6667Z" stroke="#A6A6A6" stroke-linecap="round" stroke-linejoin="round"/>
</svg>
