<svg width="215" height="215" viewBox="0 0 215 215" fill="none" xmlns="http://www.w3.org/2000/svg">
<g clip-path="url(#clip0_3093_23773)">
<g clip-path="url(#clip1_3093_23773)">
<path d="M151.334 100.915L146.955 95.6258L132.532 107.568C132.002 107.375 131.616 107.285 131.616 107.285C131.616 107.285 123.972 105.8 123.648 109.24C123.325 112.681 132.607 116.051 134.559 114.766C134.826 114.594 135.045 114.412 135.244 114.218L135.254 114.229L151.328 100.919L151.334 100.915Z" fill="#00DDA8"/>
<mask id="mask0_3093_23773" style="mask-type:luminance" maskUnits="userSpaceOnUse" x="123" y="95" width="29" height="21">
<path d="M151.334 100.915L146.955 95.6258L132.532 107.568C132.002 107.375 131.616 107.285 131.616 107.285C131.616 107.285 123.972 105.8 123.648 109.24C123.325 112.681 132.607 116.051 134.559 114.766C134.826 114.594 135.045 114.412 135.244 114.218L135.254 114.229L151.328 100.919L151.334 100.915Z" fill="white"/>
</mask>
<g mask="url(#mask0_3093_23773)">
<path d="M151.216 115.476L136.562 97.7786L118.865 112.432L133.519 130.129L151.216 115.476Z" fill="#171717"/>
</g>
<path d="M141.925 107.041C142.222 106.796 142.263 106.356 142.018 106.06C141.772 105.763 141.333 105.722 141.036 105.967C140.739 106.213 140.698 106.652 140.944 106.949C141.189 107.246 141.629 107.287 141.925 107.041Z" fill="#4D4D4D"/>
<path d="M140.343 108.351C140.64 108.106 140.681 107.666 140.436 107.37C140.19 107.073 139.751 107.032 139.454 107.277C139.157 107.523 139.116 107.962 139.362 108.259C139.607 108.555 140.047 108.597 140.343 108.351Z" fill="#4D4D4D"/>
<path d="M136.015 65.7996L155.943 127.213L186.622 107.789L189.968 75.4055L136.015 65.7996Z" fill="#508FFF"/>
<path d="M160.533 75.8506L171.794 36.0753L202.882 44.186L202.657 62.2653L160.534 75.8581L160.533 75.8506Z" fill="#508FFF"/>
<path d="M189.533 54.5526L172.988 52.7573L172.661 55.7756L189.205 57.5709L189.533 54.5526Z" fill="white"/>
<path d="M174.652 89.9078L158.108 88.1125L157.78 91.1308L174.325 92.9261L174.652 89.9078Z" fill="white"/>
<path d="M148.692 78.0046L196.138 60.8807L151.336 37.6305C149.007 36.1797 146.426 35.1211 143.712 34.706C136.693 33.6361 129.226 35.8464 123.817 41.5018C116.274 49.3758 115.458 61.7644 121.904 70.5536C126.545 76.884 133.686 80.0557 140.806 79.8925C143.532 79.8303 146.206 79.1224 148.692 78.0046Z" fill="#00DDA8"/>
<path d="M146.633 74.5359C156.05 70.9704 160.793 60.4465 157.227 51.0303C153.662 41.614 143.138 36.871 133.722 40.4365C124.305 44.002 119.562 54.5259 123.128 63.9421C126.693 73.3584 137.217 78.1014 146.633 74.5359Z" fill="#508FFF"/>
<mask id="mask1_3093_23773" style="mask-type:luminance" maskUnits="userSpaceOnUse" x="121" y="39" width="38" height="37">
<path d="M146.633 74.5359C156.05 70.9704 160.793 60.4465 157.227 51.0303C153.662 41.614 143.138 36.871 133.722 40.4365C124.305 44.002 119.562 54.5259 123.128 63.9421C126.693 73.3584 137.217 78.1014 146.633 74.5359Z" fill="white"/>
</mask>
<g mask="url(#mask1_3093_23773)">
<path d="M150.148 39.0661L140.607 36.8594L124.374 44.3287L120.141 55.5262L118.236 56.2719C118.236 56.2719 125.151 67.6329 127.295 54.3724C129.18 56.873 133.71 61.5543 135.453 51.636C137.472 54.2143 141.852 58.3108 143.474 48.1982L143.488 48.1929C145.478 50.8459 150.535 56.1133 151.977 43.3674L150.145 39.0591L150.148 39.0661Z" fill="#171717"/>
</g>
<path d="M132.074 68.7707C134.448 67.872 135.643 65.2194 134.744 62.8459C133.846 60.4725 131.193 59.277 128.82 60.1757C126.446 61.0744 125.251 63.727 126.149 66.1004C127.048 68.4739 129.701 69.6694 132.074 68.7707Z" fill="white"/>
<path d="M130.991 65.9104C131.785 65.6099 132.185 64.7228 131.884 63.929C131.584 63.1353 130.696 62.7355 129.903 63.0361C129.109 63.3366 128.709 64.2237 129.01 65.0174C129.31 65.8111 130.197 66.2109 130.991 65.9104Z" fill="#171717"/>
<path d="M142.45 64.8419C144.823 63.9432 146.019 61.2906 145.12 58.9172C144.221 56.5437 141.569 55.3482 139.195 56.247C136.822 57.1457 135.626 59.7983 136.525 62.1717C137.424 64.5451 140.076 65.7406 142.45 64.8419Z" fill="white"/>
<path d="M141.367 61.9816C142.16 61.6811 142.56 60.794 142.26 60.0003C141.959 59.2066 141.072 58.8068 140.278 59.1073C139.485 59.4078 139.085 60.2949 139.385 61.0887C139.686 61.8824 140.573 62.2822 141.367 61.9816Z" fill="#171717"/>
<path d="M138.273 68.6517C139.729 68.1004 140.462 66.4734 139.911 65.0176C139.36 63.5618 137.733 62.8285 136.277 63.3797C134.821 63.931 134.088 65.558 134.639 67.0138C135.19 68.4696 136.818 69.2029 138.273 68.6517Z" fill="#00DDA8"/>
<path d="M163.515 106.416L158.291 101.959L146.137 116.205C145.582 116.105 145.186 116.083 145.186 116.083C145.186 116.083 137.401 115.934 137.674 119.38C137.947 122.825 147.67 124.548 149.373 122.946C149.605 122.731 149.79 122.514 149.953 122.288L149.965 122.298L163.51 106.422L163.515 106.416Z" fill="#00DDA8"/>
<mask id="mask2_3093_23773" style="mask-type:luminance" maskUnits="userSpaceOnUse" x="137" y="101" width="27" height="23">
<path d="M163.515 106.416L158.291 101.959L146.137 116.205C145.582 116.105 145.186 116.083 145.186 116.083C145.186 116.083 137.401 115.934 137.674 119.38C137.947 122.825 147.67 124.548 149.373 122.946C149.605 122.731 149.79 122.514 149.953 122.288L149.965 122.298L163.51 106.421L163.515 106.416Z" fill="white"/>
</mask>
<g mask="url(#mask2_3093_23773)">
<path d="M165.902 120.78L148.423 105.867L133.511 123.346L150.99 138.259L165.902 120.78Z" fill="#171717"/>
</g>
<path d="M155.3 114.07C155.55 113.777 155.515 113.337 155.222 113.087C154.929 112.837 154.489 112.872 154.239 113.165C153.989 113.457 154.024 113.898 154.317 114.147C154.61 114.397 155.05 114.362 155.3 114.07Z" fill="#4D4D4D"/>
<path d="M153.967 115.632C154.217 115.339 154.182 114.899 153.889 114.649C153.596 114.399 153.156 114.434 152.906 114.727C152.656 115.02 152.691 115.46 152.984 115.71C153.277 115.96 153.717 115.925 153.967 115.632Z" fill="#4D4D4D"/>
</g>
<g clip-path="url(#clip2_3093_23773)">
<path d="M78.2107 99.4165L79.1737 92.6137L97.7134 95.2431C98.0659 94.8008 98.3471 94.5265 98.3471 94.5265C98.3471 94.5265 104.084 89.258 106.154 92.0176C108.232 94.7777 102.084 102.513 99.7445 102.44C99.4298 102.427 99.1391 102.392 98.8728 102.33L98.8718 102.345L78.2033 99.416L78.2107 99.4165Z" fill="#171717"/>
<mask id="mask3_3093_23773" style="mask-type:luminance" maskUnits="userSpaceOnUse" x="78" y="91" width="29" height="12">
<path d="M78.2078 99.4226L79.1724 92.6203L97.7125 95.2451C98.0651 94.8026 98.3464 94.5283 98.3464 94.5283C98.3464 94.5283 104.085 89.259 106.155 92.0178C108.232 94.7771 102.081 102.513 99.742 102.441C99.4273 102.428 99.1366 102.393 98.8703 102.331L98.8693 102.346L78.2003 99.4222L78.2078 99.4226Z" fill="white"/>
</mask>
<g mask="url(#mask3_3093_23773)">
<path d="M85.9406 111.763L89.1628 89.0138L111.912 92.2361L108.69 114.985L85.9406 111.763Z" fill="#00DDA8"/>
</g>
<path d="M89.4829 99.7148C89.0987 99.6892 88.808 99.3571 88.8335 98.9729C88.8591 98.5887 89.1912 98.298 89.5754 98.3235C89.9596 98.3491 90.2503 98.6812 90.2248 99.0654C90.1992 99.4496 89.8671 99.7403 89.4829 99.7148Z" fill="#4D4D4D"/>
<path d="M91.5217 100.008C91.1376 99.9825 90.8468 99.6503 90.8723 99.2661C90.8979 98.882 91.23 98.5912 91.6142 98.6167C91.9984 98.6423 92.2891 98.9744 92.2636 99.3586C92.2381 99.7428 91.9059 100.034 91.5217 100.008Z" fill="#4D4D4D"/>
<path d="M69.8229 34.2546L85.4785 122.541L28.6918 91.3757L32.0768 64.6314L69.8187 34.2449L69.8229 34.2546Z" fill="#D968D3"/>
<path d="M81.6251 88.5764C80.4247 88.1263 68.7614 83.6794 69.0752 78.2338C69.171 76.5225 70.5088 73.8915 71.7826 73.9112C72.6721 73.9241 73.6743 75.2228 73.4071 75.8991C72.8177 77.3911 65.6854 76.8783 60.1052 74.0288C54.638 71.24 49.4552 65.5894 50.6465 62.9005C51.2477 61.5421 53.5732 60.736 54.6996 61.4551C55.7088 62.1037 56.0432 64.1541 55.246 65.2336C53.3831 67.7861 44.1303 66.5 39.7924 60.8528C37.8174 58.2831 37.3474 55.4537 37.221 53.8561" stroke="white" stroke-miterlimit="10"/>
<path d="M71.7688 58.5836L32.5239 26.9012L82.4574 19.5556C85.1331 18.9443 87.9193 18.7877 90.6178 19.2816C97.5987 20.5648 103.935 25.0913 107.203 32.202C111.759 42.1107 108.48 54.0823 99.5166 60.2855C93.0598 64.7549 85.2769 65.4198 78.6013 62.9354C76.0415 61.9885 73.7492 60.4461 71.7646 58.5739L71.7688 58.5836Z" fill="#00DDA8"/>
<path d="M80.6252 58.9151C71.2609 55.2153 66.6689 44.6247 70.3687 35.2604C74.0685 25.8961 84.6591 21.3041 94.0234 25.0039C103.388 28.7038 107.98 39.2943 104.28 48.6587C100.58 58.023 89.9895 62.6149 80.6252 58.9151Z" fill="#D968D3"/>
<mask id="mask4_3093_23773" style="mask-type:luminance" maskUnits="userSpaceOnUse" x="69" y="23" width="37" height="38">
<path d="M80.6252 58.9151C71.2609 55.2153 66.6689 44.6247 70.3687 35.2604C74.0685 25.8961 84.6591 21.3041 94.0234 25.0039C103.388 28.7038 107.98 39.2943 104.28 48.6587C100.58 58.023 89.9895 62.6149 80.6252 58.9151Z" fill="white"/>
</mask>
<g mask="url(#mask4_3093_23773)">
<path d="M77.6156 23.4057L87.1869 21.3356L103.311 29.0363L107.384 40.2933L109.279 41.0662C109.279 41.0662 102.202 52.3271 100.247 39.0372C98.3265 41.5106 93.73 46.1266 92.1288 36.1845C90.0738 38.7337 85.635 42.7671 84.1583 32.6323L84.1443 32.6268C82.1161 35.251 76.9848 40.4456 75.7252 27.6803L77.6184 23.3987L77.6156 23.4057Z" fill="#171717"/>
</g>
<path d="M100.47 51.7717C100.47 51.7717 100.459 47.7613 97.5448 46.6099C94.6306 45.4585 91.9438 48.4029 91.9438 48.4029C91.9438 48.4029 91.2949 52.2894 94.7948 53.6722C98.2947 55.055 100.477 51.7745 100.477 51.7745L100.47 51.7717Z" fill="white"/>
<mask id="mask5_3093_23773" style="mask-type:luminance" maskUnits="userSpaceOnUse" x="91" y="46" width="10" height="9">
<path d="M100.47 51.7717C100.47 51.7717 100.459 47.7613 97.5448 46.6099C94.6306 45.4585 91.9438 48.4029 91.9438 48.4029C91.9438 48.4029 91.2949 52.2894 94.7948 53.6722C98.2947 55.055 100.477 51.7745 100.477 51.7745L100.47 51.7717Z" fill="white"/>
</mask>
<g mask="url(#mask5_3093_23773)">
<path d="M93.1755 56.5467C96.7094 50.1729 98.2577 43.6836 98.2577 43.6836L102.313 48.9854L100.982 53.8033L93.1755 56.5467Z" fill="#171717"/>
</g>
<path d="M90.0127 47.6399C90.0127 47.6399 90.0013 43.6295 87.087 42.478C84.1728 41.3266 81.4861 44.271 81.4861 44.271C81.4861 44.271 80.8371 48.1576 84.337 49.5404C87.8369 50.9232 90.0196 47.6426 90.0196 47.6426L90.0127 47.6399Z" fill="white"/>
<mask id="mask6_3093_23773" style="mask-type:luminance" maskUnits="userSpaceOnUse" x="81" y="42" width="10" height="8">
<path d="M90.0127 47.6399C90.0127 47.6399 90.0013 43.6295 87.087 42.478C84.1728 41.3266 81.4861 44.271 81.4861 44.271C81.4861 44.271 80.8371 48.1576 84.337 49.5404C87.8369 50.9232 90.0196 47.6426 90.0196 47.6426L90.0127 47.6399Z" fill="white"/>
</mask>
<g mask="url(#mask6_3093_23773)">
<path d="M82.7178 52.4148C86.2516 46.041 87.8 39.5517 87.8 39.5517L91.8552 44.8536L90.5239 49.6715L82.7178 52.4148Z" fill="#171717"/>
</g>
<path d="M89.0686 53.1508C87.6208 52.5788 86.9109 50.9414 87.4829 49.4936C88.0549 48.0459 89.6923 47.3359 91.14 47.9079C92.5878 48.48 93.2978 50.1173 92.7258 51.5651C92.1537 53.0129 90.5164 53.7228 89.0686 53.1508Z" fill="#00DDA8"/>
<path d="M90.3408 55.4592C89.4361 57.4633 87.1804 57.9907 86.0259 57.2203C84.9469 56.5037 84.5401 54.4731 85.711 52.8561" stroke="white" stroke-miterlimit="10" stroke-linecap="round"/>
<path d="M72.2557 108.538L74.5378 102.063L92.1972 108.291C92.6274 107.924 92.9586 107.714 92.9586 107.714C92.9586 107.714 99.6158 103.678 101.11 106.794C102.597 109.908 95.0571 116.285 92.7784 115.751C92.4722 115.676 92.1997 115.585 91.9462 115.474L91.9434 115.489L72.2542 108.546L72.2557 108.538Z" fill="#171717"/>
<mask id="mask7_3093_23773" style="mask-type:luminance" maskUnits="userSpaceOnUse" x="72" y="102" width="30" height="14">
<path d="M72.255 108.539L74.5373 102.064L92.1975 108.291C92.6277 107.924 92.9589 107.714 92.9589 107.714C92.9589 107.714 99.6165 103.678 101.111 106.794C102.598 109.908 95.0574 116.284 92.7786 115.75C92.4724 115.675 92.1999 115.584 91.9464 115.473L91.9436 115.488L72.2536 108.546L72.255 108.539Z" fill="white"/>
</mask>
<g mask="url(#mask7_3093_23773)">
<path d="M77.4019 122.168L85.0417 100.499L106.711 108.139L99.0707 129.808L77.4019 122.168Z" fill="#00DDA8"/>
</g>
<path d="M83.303 111.068C82.925 110.994 82.6782 110.628 82.7517 110.25C82.8252 109.872 83.1911 109.626 83.5691 109.699C83.947 109.773 84.1939 110.139 84.1204 110.516C84.0469 110.894 83.6809 111.141 83.303 111.068Z" fill="#4D4D4D"/>
<path d="M85.2398 111.75C84.8618 111.676 84.615 111.31 84.6885 110.932C84.7619 110.554 85.1279 110.308 85.5058 110.381C85.8838 110.455 86.1306 110.821 86.0571 111.199C85.9837 111.576 85.6177 111.823 85.2398 111.75Z" fill="#4D4D4D"/>
</g>
<g clip-path="url(#clip3_3093_23773)">
<path d="M82.542 171.739L79.9763 165.366L97.3489 158.378C97.433 157.818 97.5395 157.44 97.5395 157.44C97.5395 157.44 99.8755 150.01 103.048 151.365C106.227 152.718 104.767 162.491 102.705 163.597C102.426 163.742 102.157 163.858 101.895 163.936L101.901 163.95L82.5353 171.743L82.542 171.739Z" fill="black"/>
<mask id="mask8_3093_23773" style="mask-type:luminance" maskUnits="userSpaceOnUse" x="79" y="151" width="26" height="21">
<path d="M82.542 171.739L79.9763 165.366L97.3489 158.378C97.433 157.818 97.5395 157.44 97.5395 157.44C97.5395 157.44 99.8755 150.01 103.048 151.365C106.227 152.718 104.767 162.491 102.705 163.597C102.426 163.742 102.157 163.858 101.895 163.936L101.901 163.95L82.5353 171.743L82.542 171.739Z" fill="white"/>
</mask>
<g mask="url(#mask8_3093_23773)">
<path d="M95.4056 178.58L86.8274 157.266L108.142 148.687L116.72 170.002L95.4056 178.58Z" fill="#00DDA8"/>
</g>
<path d="M92.4579 166.371C92.1123 166.541 91.6945 166.398 91.5246 166.053C91.3547 165.707 91.4971 165.29 91.8426 165.12C92.1882 164.95 92.606 165.092 92.7759 165.438C92.9458 165.783 92.8034 166.201 92.4579 166.371Z" fill="#4D4D4D"/>
<path d="M94.3673 165.599C94.0218 165.769 93.6039 165.627 93.434 165.281C93.2642 164.936 93.4065 164.518 93.7521 164.348C94.0976 164.178 94.5154 164.321 94.6853 164.666C94.8552 165.012 94.7128 165.429 94.3673 165.599Z" fill="#4D4D4D"/>
<path d="M-0.476551 154.062L36.9758 189.196L77.8193 156.128L73.4851 170.044L66.7684 192.823L89.5389 189.252L77.8235 156.134L79.7122 154.859L73.9075 134.058L-0.476551 154.062Z" fill="#6F50CB"/>
<path d="M80.7032 182.033L80.0649 175.196L98.7133 173.453C98.9547 172.942 99.1581 172.608 99.1581 172.608C99.1581 172.608 103.513 166.157 106.173 168.357C108.834 170.557 104.647 179.507 102.357 179.981C102.045 180.043 101.76 180.075 101.485 180.076L101.492 180.09L80.7032 182.033Z" fill="black"/>
<mask id="mask9_3093_23773" style="mask-type:luminance" maskUnits="userSpaceOnUse" x="80" y="167" width="28" height="16">
<path d="M80.7032 182.033L80.0649 175.196L98.7133 173.453C98.9547 172.942 99.1581 172.608 99.1581 172.608C99.1581 172.608 103.513 166.157 106.173 168.357C108.834 170.557 104.647 179.507 102.357 179.981C102.045 180.043 101.76 180.075 101.485 180.076L101.492 180.09L80.7032 182.033Z" fill="white"/>
</mask>
<g mask="url(#mask9_3093_23773)">
<path d="M91.0919 192.264L88.9526 169.388L111.829 167.249L113.968 190.125L91.0919 192.264Z" fill="#00DDA8"/>
</g>
<path d="M91.9366 179.65C91.5911 179.82 91.1733 179.678 91.0034 179.332C90.8335 178.987 90.9759 178.569 91.3214 178.399C91.6669 178.229 92.0847 178.372 92.2546 178.717C92.4245 179.063 92.2821 179.48 91.9366 179.65Z" fill="#4D4D4D"/>
<path d="M93.983 179.463C93.6375 179.633 93.2197 179.49 93.0498 179.145C92.8799 178.799 93.0223 178.381 93.3678 178.212C93.7133 178.042 94.1311 178.184 94.301 178.53C94.4709 178.875 94.3285 179.293 93.983 179.463Z" fill="#4D4D4D"/>
<path d="M41.5885 160.751L55.5149 139.962L57.539 141.318L43.6126 162.107L41.5885 160.751Z" fill="white"/>
<path d="M65.7106 141.517L15.5582 146.879L45.6636 106.365C47.1275 104.035 48.9779 101.958 51.2428 100.403C57.0813 96.3698 64.7652 95.093 72.1053 97.8077C82.3327 101.586 88.4884 112.368 86.539 123.094C85.1394 130.82 80.1037 136.794 73.6324 139.764C71.1561 140.9 68.4398 141.438 65.7178 141.515L65.7106 141.517Z" fill="#00DDA8"/>
<path d="M69.039 136.635C59.263 139.045 49.3842 133.074 46.9739 123.298C44.5637 113.522 50.5348 103.643 60.3107 101.233C70.0867 98.8227 79.9656 104.794 82.3759 114.57C84.7861 124.346 78.815 134.225 69.039 136.635Z" fill="#6F50CB"/>
<mask id="mask10_3093_23773" style="mask-type:luminance" maskUnits="userSpaceOnUse" x="46" y="100" width="37" height="38">
<path d="M69.039 136.635C59.263 139.045 49.3842 133.074 46.9739 123.298C44.5637 113.522 50.5348 103.643 60.3107 101.233C70.0867 98.8227 79.9656 104.794 82.3759 114.57C84.7861 124.346 78.815 134.225 69.039 136.635Z" fill="white"/>
</mask>
<g mask="url(#mask10_3093_23773)">
<path d="M46.0173 109.428L52.6188 102.195L70.2228 99.1288L80.064 105.944L82.0564 105.476C82.0564 105.476 82.8132 118.755 73.5195 109.056C73.3875 112.184 72.3158 118.61 65.2502 111.434C65.0523 114.702 63.7715 120.562 56.6957 113.157L56.6812 113.161C56.5486 116.475 55.3761 123.682 46.9532 114.007L46.0155 109.421L46.0173 109.428Z" fill="black"/>
</g>
<path d="M75.5632 114.62L75.9563 114.523C77.729 114.086 79.5203 115.169 79.9574 116.942L80.6644 119.809C81.1014 121.582 80.0187 123.374 78.246 123.811L77.853 123.908C76.0803 124.345 74.2889 123.262 73.8518 121.489L73.1448 118.621C72.7078 116.849 73.7905 115.057 75.5632 114.62Z" fill="white"/>
<path d="M74.8458 119.716L76.9436 116.245L80.4144 118.343L78.3165 121.814L74.8458 119.716Z" fill="black"/>
<path d="M65.7956 117.028L66.1887 116.932C67.9614 116.495 69.7527 117.577 70.1898 119.35L70.8968 122.218C71.3339 123.99 70.2511 125.782 68.4784 126.219L68.0854 126.316C66.3127 126.753 64.5213 125.67 64.0843 123.897L63.3772 121.03C62.9402 119.257 64.0229 117.466 65.7956 117.028Z" fill="white"/>
<path d="M65.0787 122.123L67.1765 118.653L70.6473 120.75L68.5494 124.221L65.0787 122.123Z" fill="black"/>
<path d="M73.7385 126.667C72.2271 127.039 70.6998 126.116 70.3271 124.605C69.9545 123.093 70.8777 121.566 72.3891 121.193C73.9005 120.821 75.4278 121.744 75.8005 123.255C76.1731 124.767 75.2499 126.294 73.7385 126.667Z" fill="#00DDA8"/>
</g>
<g clip-path="url(#clip4_3093_23773)">
<path d="M129.29 156.708L135.531 153.837L127.707 136.828C128.031 136.365 128.215 136.017 128.215 136.017C128.215 136.017 131.621 129.013 128.38 127.814C125.139 126.615 119.489 134.716 120.235 136.934C120.332 137.234 120.459 137.496 120.586 137.735L120.567 137.744L129.29 156.708Z" fill="#00DDA8"/>
<mask id="mask11_3093_23773" style="mask-type:luminance" maskUnits="userSpaceOnUse" x="120" y="127" width="16" height="30">
<path d="M129.292 156.708L135.532 153.838L127.706 136.827C128.029 136.363 128.214 136.016 128.214 136.016C128.214 136.016 131.619 129.011 128.378 127.812C125.136 126.613 119.488 134.713 120.234 136.932C120.331 137.231 120.458 137.494 120.585 137.733L120.566 137.742L129.292 156.708Z" fill="white"/>
</mask>
<g mask="url(#mask11_3093_23773)">
<path d="M115.242 152.844L136.114 143.243L126.512 122.368L105.639 131.969L115.242 152.844Z" fill="#171717"/>
</g>
<path d="M126.663 145.098C126.301 144.964 125.9 145.149 125.767 145.51C125.633 145.871 125.818 146.272 126.179 146.406C126.54 146.539 126.941 146.355 127.075 145.994C127.208 145.633 127.024 145.232 126.663 145.098Z" fill="#4D4D4D"/>
<path d="M125.803 143.23C125.442 143.096 125.041 143.281 124.908 143.642C124.774 144.003 124.958 144.404 125.32 144.537C125.681 144.671 126.082 144.486 126.215 144.125C126.349 143.764 126.164 143.363 125.803 143.23Z" fill="#4D4D4D"/>
<path d="M168.318 179.483L191.587 152.673L182.586 117.5L170.942 136.294L130.002 121.095L132.324 148.378L163.449 149.737L159.688 161.85L120.972 144.846L116.627 177.547L168.318 179.483Z" fill="#FF5858"/>
<path d="M129.479 164.79L132.581 158.662L115.877 150.193C115.844 149.63 115.774 149.245 115.774 149.245C115.774 149.245 114.088 141.643 110.804 142.717C107.52 143.791 108.125 153.653 110.093 154.926C110.357 155.1 110.615 155.229 110.866 155.335L110.866 155.35L129.479 164.783L129.479 164.79Z" fill="#00DDA8"/>
<mask id="mask12_3093_23773" style="mask-type:luminance" maskUnits="userSpaceOnUse" x="108" y="142" width="25" height="23">
<path d="M129.479 164.79L132.581 158.662L115.877 150.193C115.844 149.63 115.774 149.245 115.774 149.245C115.774 149.245 114.088 141.643 110.804 142.717C107.52 143.791 108.125 153.653 110.093 154.926C110.357 155.1 110.615 155.229 110.866 155.335L110.866 155.35L129.479 164.783L129.479 164.79Z" fill="white"/>
</mask>
<g mask="url(#mask12_3093_23773)">
<path d="M116.064 170.49L126.452 149.997L105.959 139.609L95.5706 160.102L116.064 170.49Z" fill="#171717"/>
</g>
<path d="M120.446 157.285C120.062 157.272 119.739 157.574 119.726 157.959C119.713 158.343 120.015 158.666 120.399 158.679C120.784 158.692 121.107 158.39 121.12 158.006C121.133 157.621 120.831 157.298 120.446 157.285Z" fill="#4D4D4D"/>
<path d="M118.61 156.361C118.225 156.348 117.903 156.649 117.89 157.034C117.877 157.419 118.178 157.742 118.563 157.754C118.948 157.767 119.27 157.466 119.283 157.081C119.296 156.696 118.995 156.374 118.61 156.361Z" fill="#4D4D4D"/>
<path d="M179.135 164.795L180.193 161.388" stroke="white" stroke-miterlimit="10"/>
<path d="M176.486 159.75L177.544 156.342" stroke="white" stroke-miterlimit="10"/>
<path d="M173.828 154.71L174.886 151.302" stroke="white" stroke-miterlimit="10"/>
<path d="M171.177 149.672L172.235 146.264" stroke="white" stroke-miterlimit="10"/>
<path d="M168.528 144.627L169.586 141.219" stroke="white" stroke-miterlimit="10"/>
<path d="M173.881 168.141L174.939 164.733" stroke="white" stroke-miterlimit="10"/>
<path d="M171.223 163.1L172.281 159.693" stroke="white" stroke-miterlimit="10"/>
<path d="M168.574 158.055L169.632 154.647" stroke="white" stroke-miterlimit="10"/>
<path d="M165.923 153.017L166.981 149.609" stroke="white" stroke-miterlimit="10"/>
<path d="M171.276 176.531L172.334 173.124" stroke="white" stroke-miterlimit="10"/>
<path d="M168.62 171.484L169.678 168.076" stroke="white" stroke-miterlimit="10"/>
<path d="M184.443 147.699L185.501 144.292" stroke="white" stroke-miterlimit="10"/>
<path d="M181.837 156.09L182.895 152.682" stroke="white" stroke-miterlimit="10"/>
<path d="M179.187 151.052L180.245 147.644" stroke="white" stroke-miterlimit="10"/>
<path d="M176.529 146.011L177.587 142.604" stroke="white" stroke-miterlimit="10"/>
<path d="M165.969 166.446L167.027 163.038" stroke="white" stroke-miterlimit="10"/>
<path d="M163.318 161.408L164.376 158" stroke="white" stroke-miterlimit="10"/>
<path d="M161.333 135.493L209.269 151.192L188.268 105.292C187.326 102.715 185.943 100.292 184.059 98.2945C179.186 93.1317 171.941 90.2777 164.196 91.4055C153.405 92.9687 145.137 102.231 144.806 113.132C144.567 120.978 148.243 127.873 153.955 132.127C156.142 133.756 158.685 134.844 161.333 135.493Z" fill="#00DDA8"/>
<path d="M173.231 96.8401C163.615 93.8546 153.4 99.2296 150.414 108.846C147.429 118.461 152.804 128.677 162.42 131.662C172.036 134.648 182.251 129.273 185.237 119.657C188.222 110.041 182.847 99.8256 173.231 96.8401Z" fill="#FF5858"/>
<mask id="mask13_3093_23773" style="mask-type:luminance" maskUnits="userSpaceOnUse" x="149" y="96" width="38" height="37">
<path d="M173.231 96.8401C163.615 93.8546 153.4 99.2296 150.414 108.846C147.429 118.461 152.804 128.677 162.42 131.662C172.036 134.648 182.251 129.273 185.237 119.657C188.222 110.041 182.847 99.8256 173.231 96.8401Z" fill="white"/>
</mask>
<g mask="url(#mask13_3093_23773)">
<path d="M187.019 105.877L180.858 98.2659L163.466 94.1615L153.238 100.382L151.277 99.7963C151.277 99.7963 149.735 113.007 159.587 103.875C159.533 107.006 160.222 113.484 167.701 106.74C167.705 110.014 168.636 115.939 176.138 108.967L176.152 108.971C176.088 112.288 176.832 119.551 185.813 110.393L187.021 105.87L187.019 105.877Z" fill="#171717"/>
</g>
<path d="M156.264 119.634C159.04 118.886 159.377 114.917 159.409 114.487C159.43 114.164 159.656 110.302 157.34 109.269C155.279 108.347 152.456 110.233 151.405 112.481C150.706 113.975 150.468 116.335 151.935 118.054C152.883 119.173 154.602 120.083 156.264 119.634Z" fill="white"/>
<mask id="mask14_3093_23773" style="mask-type:luminance" maskUnits="userSpaceOnUse" x="150" y="109" width="10" height="11">
<path d="M156.264 119.634C159.04 118.886 159.377 114.917 159.409 114.487C159.43 114.164 159.656 110.302 157.34 109.269C155.279 108.347 152.456 110.233 151.405 112.481C150.706 113.975 150.468 116.335 151.935 118.054C152.883 119.173 154.602 120.083 156.264 119.634Z" fill="white"/>
</mask>
<g mask="url(#mask14_3093_23773)">
<path d="M151.494 111.284C150.977 112.623 151.216 114.683 152.669 115.44C154.128 116.2 155.902 115.165 156.726 114.078C157.891 112.548 157.877 110.016 156.575 109.102C155.124 108.087 152.286 109.238 151.494 111.284Z" fill="#171717"/>
</g>
<path d="M167.318 123.065C170.093 122.318 170.431 118.349 170.462 117.919C170.484 117.596 170.71 113.734 168.393 112.701C166.333 111.778 163.51 113.665 162.459 115.913C161.759 117.407 161.521 119.766 162.989 121.486C163.937 122.604 165.656 123.515 167.318 123.065Z" fill="white"/>
<mask id="mask15_3093_23773" style="mask-type:luminance" maskUnits="userSpaceOnUse" x="161" y="112" width="10" height="12">
<path d="M167.318 123.065C170.093 122.318 170.431 118.349 170.462 117.919C170.484 117.596 170.71 113.734 168.393 112.701C166.333 111.778 163.51 113.665 162.459 115.913C161.759 117.407 161.521 119.766 162.989 121.486C163.937 122.604 165.656 123.515 167.318 123.065Z" fill="white"/>
</mask>
<g mask="url(#mask15_3093_23773)">
<path d="M162.548 114.716C162.03 116.055 162.27 118.115 163.722 118.872C165.182 119.631 166.955 118.596 167.779 117.51C168.945 115.98 168.931 113.448 167.629 112.534C166.178 111.518 163.34 112.67 162.548 114.716Z" fill="#171717"/>
</g>
<path d="M160.565 116.275C159.078 115.813 157.499 116.644 157.037 118.131C156.575 119.618 157.406 121.197 158.893 121.659C160.38 122.12 161.959 121.289 162.421 119.802C162.882 118.316 162.051 116.736 160.565 116.275Z" fill="#00DDA8"/>
</g>
</g>
<defs>
<clipPath id="clip0_3093_23773">
<rect width="215" height="215" fill="white"/>
</clipPath>
<clipPath id="clip1_3093_23773">
<rect width="101.2" height="101.2" fill="white" transform="translate(104.83 33.2957) rotate(-7.19704)"/>
</clipPath>
<clipPath id="clip2_3093_23773">
<rect width="101.2" height="101.2" fill="white" transform="matrix(-0.93004 -0.367457 -0.367457 0.93004 136.128 35.1868)"/>
</clipPath>
<clipPath id="clip3_3093_23773">
<rect width="101.2" height="101.2" fill="white" transform="matrix(-0.897393 0.441232 0.441232 0.897393 80.8164 81.2095)"/>
</clipPath>
<clipPath id="clip4_3093_23773">
<rect width="101.2" height="101.2" fill="white" transform="translate(128.808 76.5018) rotate(17.2482)"/>
</clipPath>
</defs>
</svg>
