<svg width="215" height="215" viewBox="0 0 215 215" fill="none" xmlns="http://www.w3.org/2000/svg">
<g clip-path="url(#clip0_1691_14220)">
<path d="M55.0152 171.402L60.4396 168.096L69.4576 182.888C69.9797 182.879 70.3439 182.917 70.3439 182.917C70.3439 182.917 77.4782 183.92 76.7246 187.028C75.9709 190.135 66.8358 190.286 65.5153 188.573C65.3341 188.343 65.1969 188.117 65.0811 187.888L65.0693 187.895L55.0188 171.408L55.0152 171.402Z" fill="#171717"/>
<mask id="mask0_1691_14220" style="mask-type:luminance" maskUnits="userSpaceOnUse" x="55" y="168" width="22" height="22">
<path d="M55.0152 171.402L60.4396 168.096L69.4576 182.888C69.9797 182.879 70.3439 182.917 70.3439 182.917C70.3439 182.917 77.4782 183.92 76.7246 187.028C75.9709 190.135 66.8358 190.286 65.5153 188.573C65.3341 188.343 65.1969 188.117 65.0811 187.888L65.0693 187.895L55.0188 171.408L55.0152 171.402Z" fill="white"/>
</mask>
<g mask="url(#mask0_1691_14220)">
<path d="M50.7256 184.179L68.8761 173.114L79.941 191.264L61.7905 202.329L50.7256 184.179Z" fill="#00DDA8"/>
</g>
<path d="M62.2802 179.815C61.976 180.001 61.5791 179.905 61.3937 179.6C61.2083 179.296 61.3045 178.899 61.6087 178.714C61.9129 178.528 62.3097 178.625 62.4952 178.929C62.6806 179.233 62.5843 179.63 62.2802 179.815Z" fill="#4D4D4D"/>
<path d="M63.2693 181.438C62.9651 181.623 62.5683 181.527 62.3828 181.223C62.1974 180.919 62.2937 180.522 62.5978 180.336C62.902 180.151 63.2989 180.247 63.4843 180.551C63.6697 180.856 63.5735 181.253 63.2693 181.438Z" fill="#4D4D4D"/>
<path d="M57.8478 98.3191L66.0373 180.864L15.8634 148.094L20.8807 123.664L57.8492 98.3123L57.8478 98.3191Z" fill="#D968D3"/>
<path d="M63.9015 118.452C52.5253 116.116 45.197 105 47.5334 93.6236C49.8698 82.2474 60.986 74.9191 72.3622 77.2555C83.7384 79.5918 91.0667 90.7081 88.7303 102.084C86.394 113.461 75.2777 120.789 63.9015 118.452Z" fill="#00DDA8"/>
<path d="M82.5486 82.5406L48.5187 42.1473L47.1751 96.1272L82.5486 82.5406Z" fill="#00DDA8"/>
<path d="M64.7387 114.376C55.6137 112.502 49.7356 103.586 51.6096 94.4607C53.4837 85.3358 62.4001 79.4577 71.5251 81.3317C80.6501 83.2057 86.5282 92.1222 84.6542 101.247C82.7801 110.372 73.8637 116.25 64.7387 114.376Z" fill="#D968D3"/>
<mask id="mask1_1691_14220" style="mask-type:luminance" maskUnits="userSpaceOnUse" x="51" y="80" width="35" height="35">
<path d="M64.7387 114.376C55.6137 112.502 49.7356 103.586 51.6096 94.4607C53.4837 85.3358 62.4001 79.4577 71.5251 81.3317C80.6501 83.2057 86.5282 92.1222 84.6542 101.247C82.7801 110.372 73.8637 116.25 64.7387 114.376Z" fill="white"/>
</mask>
<g mask="url(#mask1_1691_14220)">
<path d="M56.3246 82.5006L64.7155 79.0836L80.6407 83.5224L86.1515 93.1292L88.002 93.5305C88.002 93.5305 83.354 104.924 79.4472 93.1259C78.0929 95.687 74.6424 100.628 71.5934 91.8245C70.1285 94.4761 66.7285 98.8615 63.7621 89.8622L63.7486 89.8594C62.32 92.5751 58.4746 98.1293 55.2855 86.6982L56.326 82.4938L56.3246 82.5006Z" fill="#171717"/>
</g>
<path d="M81.6792 104.7C81.6792 104.7 81.0274 101.048 78.1877 100.464C75.3479 99.8811 73.3705 102.994 73.3705 102.994C73.3705 102.994 73.4006 106.639 76.8111 107.34C80.2215 108.04 81.686 104.702 81.686 104.702L81.6792 104.7Z" fill="white"/>
<mask id="mask2_1691_14220" style="mask-type:luminance" maskUnits="userSpaceOnUse" x="73" y="100" width="9" height="8">
<path d="M81.6792 104.7C81.6792 104.7 81.0274 101.048 78.1877 100.464C75.3479 99.8811 73.3705 102.994 73.3705 102.994C73.3705 102.994 73.4006 106.639 76.8111 107.34C80.2215 108.04 81.686 104.702 81.686 104.702L81.6792 104.7Z" fill="white"/>
</mask>
<g mask="url(#mask2_1691_14220)">
<path d="M75.8033 110.213C78.0043 103.839 78.3775 97.6784 78.3775 97.6784L82.9207 101.861L82.478 106.465L75.8033 110.213Z" fill="#171717"/>
</g>
<path d="M71.4887 102.607C71.4887 102.607 70.837 98.9547 67.9973 98.3715C65.1575 97.7883 63.1801 100.901 63.1801 100.901C63.1801 100.901 63.2102 104.546 66.6206 105.247C70.0311 105.947 71.4955 102.609 71.4955 102.609L71.4887 102.607Z" fill="white"/>
<mask id="mask3_1691_14220" style="mask-type:luminance" maskUnits="userSpaceOnUse" x="63" y="98" width="9" height="8">
<path d="M71.4887 102.607C71.4887 102.607 70.837 98.9547 67.9973 98.3715C65.1575 97.7883 63.1801 100.901 63.1801 100.901C63.1801 100.901 63.2102 104.546 66.6206 105.247C70.0311 105.947 71.4955 102.609 71.4955 102.609L71.4887 102.607Z" fill="white"/>
</mask>
<g mask="url(#mask3_1691_14220)">
<path d="M65.606 108.118C67.8071 101.745 68.1803 95.5841 68.1803 95.5841L72.7234 99.767L72.2807 104.37L65.606 108.118Z" fill="#171717"/>
</g>
<path d="M71.5179 107.775C70.1072 107.485 69.1984 106.107 69.4881 104.696C69.7778 103.285 71.1564 102.376 72.5672 102.666C73.9779 102.956 74.8867 104.334 74.597 105.745C74.3072 107.156 72.9287 108.065 71.5179 107.775Z" fill="#00DDA8"/>
<path d="M65.6477 153.285C64.5468 152.853 53.825 148.556 54.1991 143.528C54.3188 141.945 55.5853 139.536 56.7671 139.573C57.5899 139.601 58.495 140.813 58.2401 141.433C57.6686 142.803 51.0843 142.215 45.9636 139.5C40.9461 136.834 36.2441 131.528 37.3803 129.064C37.9553 127.815 40.1258 127.107 41.1532 127.792C42.075 128.406 42.3494 130.311 41.6017 131.297C39.8351 133.625 31.3 132.297 27.3732 127.009C25.5807 124.601 25.1998 121.974 25.1068 120.497" stroke="white" stroke-width="0.693548" stroke-miterlimit="10"/>
<path d="M73.0382 109.68C72.5343 111.651 70.5631 112.493 69.3879 111.975C68.29 111.495 67.5946 109.709 68.4029 108.049" stroke="white" stroke-width="0.693548" stroke-miterlimit="10" stroke-linecap="round"/>
<path d="M44.8827 163.107L51.1057 164.385L47.6204 181.356C48.009 181.705 48.2497 181.981 48.2497 181.981C48.2497 181.981 52.7856 187.578 50.116 189.338C47.4464 191.098 40.6594 184.982 40.8609 182.828C40.8856 182.536 40.9386 182.278 41.0106 182.031L40.997 182.028L44.8813 163.114L44.8827 163.107Z" fill="#171717"/>
<mask id="mask4_1691_14220" style="mask-type:luminance" maskUnits="userSpaceOnUse" x="40" y="163" width="12" height="27">
<path d="M44.8827 163.107L51.1057 164.385L47.6204 181.356C48.009 181.705 48.2497 181.981 48.2497 181.981C48.2497 181.981 52.7856 187.578 50.116 189.338C47.4464 191.098 40.6594 184.982 40.8609 182.828C40.8856 182.536 40.9386 182.278 41.0106 182.031L40.997 182.028L44.8813 163.114L44.8827 163.107Z" fill="white"/>
</mask>
<g mask="url(#mask4_1691_14220)">
<path d="M33.035 169.531L53.8577 173.808L49.5813 194.631L28.7586 190.354L33.035 169.531Z" fill="#00DDA8"/>
</g>
<path d="M44.4635 174.215C44.1146 174.143 43.8898 173.802 43.9615 173.453C44.0331 173.105 44.3741 172.88 44.723 172.951C45.072 173.023 45.2968 173.364 45.2251 173.713C45.1534 174.062 44.8125 174.287 44.4635 174.215Z" fill="#4D4D4D"/>
<path d="M44.0812 176.076C43.7323 176.005 43.5075 175.664 43.5792 175.315C43.6508 174.966 43.9918 174.741 44.3407 174.813C44.6897 174.885 44.9144 175.225 44.8428 175.574C44.7711 175.923 44.4301 176.148 44.0812 176.076Z" fill="#4D4D4D"/>
<path d="M99.5924 167.415L103.914 162.758L91.2153 150.973C91.3288 150.463 91.3643 150.099 91.3643 150.099C91.3643 150.099 91.8027 142.907 88.6075 143.027C85.4122 143.146 83.4434 152.067 84.8588 153.703C85.0488 153.926 85.2419 154.106 85.4442 154.265L85.4348 154.275L99.5873 167.41L99.5924 167.415Z" fill="#00DDA8"/>
<mask id="mask5_1691_14220" style="mask-type:luminance" maskUnits="userSpaceOnUse" x="84" y="143" width="20" height="25">
<path d="M99.5924 167.415L103.914 162.758L91.2153 150.973C91.3288 150.463 91.3643 150.099 91.3643 150.099C91.3643 150.099 91.8027 142.907 88.6075 143.027C85.4122 143.146 83.4434 152.067 84.8588 153.703C85.0488 153.926 85.2419 154.106 85.4442 154.265L85.4348 154.275L99.5873 167.41L99.5924 167.415Z" fill="white"/>
</mask>
<g mask="url(#mask5_1691_14220)">
<path d="M86.2173 169.072L100.678 153.491L85.0967 139.03L70.6363 154.611L86.2173 169.072Z" fill="#171717"/>
</g>
<path d="M92.7961 158.619C92.5538 158.88 92.569 159.288 92.8301 159.53C93.0912 159.772 93.4993 159.757 93.7417 159.496C93.984 159.235 93.9688 158.827 93.7077 158.585C93.4466 158.342 93.0384 158.357 92.7961 158.619Z" fill="#4D4D4D"/>
<path d="M91.4033 157.326C91.161 157.587 91.1762 157.995 91.4373 158.237C91.6984 158.48 92.1065 158.464 92.3488 158.203C92.5912 157.942 92.5759 157.534 92.3148 157.292C92.0537 157.05 91.6456 157.065 91.4033 157.326Z" fill="#4D4D4D"/>
<path d="M128.737 127.714L90.8436 173.888L121.29 188.092L148.191 174.535L128.747 127.713L128.737 127.714Z" fill="#508FFF"/>
<path d="M125.623 137.053L162.227 125.973L171.427 154.234L157.234 163.083L125.623 137.053Z" fill="#508FFF"/>
<path d="M156.683 149.021L149.825 135.235L147.311 136.486L154.168 150.272L156.683 149.021Z" fill="white"/>
<path d="M129.224 169.832L122.367 156.046L119.852 157.297L126.71 171.083L129.224 169.832Z" fill="white"/>
<path d="M204.85 134.399L160.885 105.124C155.506 100.572 147.96 98.8287 140.77 101.169C129.727 104.766 123.694 116.635 127.301 127.677C130.636 137.911 141.071 143.828 151.369 141.788L204.85 134.399Z" fill="#00DDA8"/>
<path d="M135.613 133.514C142.748 139.503 153.387 138.575 159.376 131.44C165.366 124.306 164.437 113.666 157.303 107.677C150.168 101.687 139.529 102.616 133.539 109.75C127.55 116.885 128.478 127.524 135.613 133.514Z" fill="#508FFF"/>
<mask id="mask6_1691_14220" style="mask-type:luminance" maskUnits="userSpaceOnUse" x="129" y="103" width="35" height="35">
<path d="M135.613 133.514C142.748 139.503 153.387 138.575 159.376 131.44C165.366 124.306 164.437 113.666 157.303 107.677C150.168 101.687 139.529 102.616 133.539 109.75C127.55 116.885 128.478 127.524 135.613 133.514Z" fill="white"/>
</mask>
<g mask="url(#mask6_1691_14220)">
<path d="M165.576 123.732L164.617 114.723L153.174 102.789L142.1 102.476L140.872 101.037C140.872 101.037 133.036 110.523 145.274 108.382C143.662 110.787 140.937 116.169 150.132 114.687C148.488 117.238 146.228 122.304 155.561 120.658L155.571 120.666C153.853 123.209 150.78 129.232 162.358 126.626L165.571 123.727L165.576 123.732Z" fill="#171717"/>
</g>
<path d="M134.675 117.459C136.473 118.969 139.155 118.735 140.664 116.936C142.174 115.138 141.94 112.456 140.142 110.946C138.343 109.437 135.662 109.671 134.152 111.469C132.642 113.267 132.876 115.949 134.675 117.459Z" fill="white"/>
<path d="M136.494 115.292C137.095 115.796 137.992 115.718 138.497 115.117C139.002 114.515 138.924 113.619 138.322 113.114C137.721 112.609 136.824 112.687 136.319 113.288C135.814 113.89 135.893 114.787 136.494 115.292Z" fill="#171717"/>
<path d="M141.245 125.338C143.043 126.847 145.725 126.613 147.234 124.815C148.744 123.017 148.51 120.335 146.712 118.825C144.913 117.316 142.232 117.55 140.722 119.348C139.212 121.146 139.446 123.828 141.245 125.338Z" fill="white"/>
<path d="M143.064 123.171C143.666 123.675 144.562 123.597 145.067 122.996C145.572 122.394 145.494 121.498 144.892 120.993C144.291 120.488 143.394 120.566 142.889 121.168C142.384 121.769 142.463 122.666 143.064 123.171Z" fill="#171717"/>
<path d="M136.445 122.631C137.548 123.557 139.193 123.413 140.119 122.31C141.045 121.207 140.902 119.562 139.799 118.636C138.695 117.71 137.051 117.854 136.125 118.957C135.199 120.06 135.342 121.705 136.445 122.631Z" fill="#00DDA8"/>
<path d="M110.671 180.932L107.549 175.4L92.4604 183.914C92.0093 183.651 91.6729 183.507 91.6729 183.507C91.6729 183.507 84.9554 180.903 84.0975 183.983C83.2396 187.063 91.1405 191.651 93.1288 190.8C93.3996 190.687 93.6291 190.557 93.8423 190.413L93.8492 190.425L110.665 180.936L110.671 180.932Z" fill="#00DDA8"/>
<mask id="mask7_1691_14220" style="mask-type:luminance" maskUnits="userSpaceOnUse" x="84" y="175" width="27" height="16">
<path d="M110.671 180.932L107.549 175.4L92.4604 183.914C92.0093 183.651 91.6729 183.507 91.6729 183.507C91.6729 183.507 84.9554 180.903 84.0975 183.983C83.2396 187.063 91.1405 191.651 93.1288 190.8C93.3996 190.687 93.6291 190.557 93.8423 190.413L93.8492 190.425L110.665 180.936L110.671 180.932Z" fill="white"/>
</mask>
<g mask="url(#mask7_1691_14220)">
<path d="M108.183 194.178L97.7358 175.665L79.223 186.113L89.6703 204.625L108.183 194.178Z" fill="#171717"/>
</g>
<path d="M100.222 184.727C100.397 185.037 100.79 185.147 101.1 184.972C101.411 184.797 101.52 184.403 101.345 184.093C101.17 183.783 100.777 183.673 100.466 183.848C100.156 184.023 100.047 184.417 100.222 184.727Z" fill="#4D4D4D"/>
<path d="M98.5666 185.661C98.7417 185.971 99.1351 186.081 99.4453 185.906C99.7556 185.73 99.8651 185.337 99.69 185.027C99.515 184.717 99.1216 184.607 98.8113 184.782C98.5011 184.957 98.3915 185.351 98.5666 185.661Z" fill="#4D4D4D"/>
<path d="M181.419 58.0499L182.822 64.246L199.719 60.4213C200.076 60.8028 200.357 61.0379 200.357 61.0379C200.357 61.0379 206.044 65.4606 207.75 62.7563C209.456 60.052 203.205 53.3889 201.056 53.6336C200.764 53.6641 200.507 53.7222 200.261 53.7992L200.258 53.7857L181.426 58.0483L181.419 58.0499Z" fill="#00DDA8"/>
<mask id="mask8_1691_14220" style="mask-type:luminance" maskUnits="userSpaceOnUse" x="181" y="53" width="28" height="12">
<path d="M181.419 58.0499L182.822 64.246L199.719 60.4213C200.076 60.8028 200.357 61.0379 200.357 61.0379C200.357 61.0379 206.044 65.4606 207.75 62.7563C209.456 60.052 203.205 53.3889 201.056 53.6336C200.764 53.6641 200.507 53.7222 200.261 53.7992L200.258 53.7857L181.426 58.0483L181.419 58.0499Z" fill="white"/>
</mask>
<g mask="url(#mask8_1691_14220)">
<path d="M187.605 46.0755L192.298 66.8083L213.03 62.1154L208.337 41.3826L187.605 46.0755Z" fill="#171717"/>
</g>
<path d="M191.26 57.6996C191.338 58.0471 191.684 58.265 192.031 58.1863C192.379 58.1077 192.597 57.7623 192.518 57.4148C192.439 57.0674 192.094 56.8495 191.746 56.9282C191.399 57.0068 191.181 57.3522 191.26 57.6996Z" fill="#4D4D4D"/>
<path d="M193.113 57.2801C193.192 57.6276 193.537 57.8455 193.885 57.7668C194.232 57.6882 194.45 57.3428 194.371 56.9954C194.293 56.6479 193.947 56.43 193.6 56.5087C193.252 56.5873 193.035 56.9327 193.113 57.2801Z" fill="#4D4D4D"/>
<path d="M169.402 29.9013L137.156 23.6609L113.139 47.1448L133.584 47.7791L140.347 87.6127L161.132 73.1304L147.822 47.5644L159.267 44.9737L163.554 83.8602L191.751 72.2156L169.387 29.8976L169.402 29.9013Z" fill="#FF5858"/>
<path d="M121.368 5.96588L93.8991 51.0804C89.5683 56.6401 88.1328 64.2466 90.7688 71.3369C94.8121 82.2258 106.918 87.7698 117.8 83.728C127.889 79.9796 133.382 69.3143 130.922 59.1052L121.368 5.96588Z" fill="#00DDA8"/>
<path d="M94.2325 67.9786C96.289 77.0642 105.322 82.7624 114.407 80.7059C123.493 78.6493 129.191 69.6168 127.134 60.5312C125.078 51.4456 116.045 45.7475 106.96 47.804C97.8741 49.8606 92.1759 58.893 94.2325 67.9786Z" fill="#FF5858"/>
<mask id="mask9_1691_14220" style="mask-type:luminance" maskUnits="userSpaceOnUse" x="93" y="47" width="35" height="35">
<path d="M94.2325 67.9786C96.289 77.0642 105.322 82.7624 114.407 80.7059C123.493 78.6493 129.191 69.6168 127.134 60.5312C125.078 51.4456 116.045 45.7475 106.96 47.804C97.8741 49.8606 92.1759 58.893 94.2325 67.9786Z" fill="white"/>
</mask>
<g mask="url(#mask9_1691_14220)">
<path d="M95.0947 52.7509L91.8466 61.2086L96.6037 77.0416L106.319 82.3588L106.757 84.2008C106.757 84.2008 118.055 79.3254 106.181 75.6559C108.715 74.2505 113.586 70.7017 104.723 67.8298C107.344 66.3119 111.661 62.8248 102.604 60.0394L102.601 60.0259C105.287 58.5431 110.763 54.5872 99.2706 51.6279L95.0879 52.7524L95.0947 52.7509Z" fill="#171717"/>
</g>
<path d="M120.344 71.028C118.462 69.1502 115.125 70.716 114.767 70.8897C114.498 71.0217 111.299 72.6275 111.543 74.9616C111.757 77.0393 114.574 78.4281 116.862 78.2303C118.382 78.0995 120.383 77.1987 121.082 75.2272C121.539 73.9504 121.473 72.152 120.344 71.028Z" fill="white"/>
<mask id="mask10_1691_14220" style="mask-type:luminance" maskUnits="userSpaceOnUse" x="111" y="70" width="11" height="9">
<path d="M120.344 71.028C118.462 69.1502 115.125 70.716 114.767 70.8897C114.498 71.0217 111.299 72.6275 111.543 74.9616C111.757 77.0393 114.574 78.4281 116.862 78.2303C118.382 78.0995 120.383 77.1987 121.082 75.2272C121.539 73.9504 121.473 72.152 120.344 71.028Z" fill="white"/>
</mask>
<g mask="url(#mask10_1691_14220)">
<path d="M115.862 78.7127C117.174 78.5082 118.713 77.3632 118.648 75.8491C118.581 74.3283 116.932 73.3862 115.68 73.2286C113.915 73.0023 111.893 74.1853 111.763 75.6513C111.62 77.2835 113.856 79.0245 115.862 78.7127Z" fill="#171717"/>
</g>
<path d="M117.98 60.5839C116.098 58.7061 112.761 60.2719 112.403 60.4456C112.134 60.5776 108.935 62.1834 109.179 64.5175C109.393 66.5952 112.21 67.9841 114.498 67.7863C116.018 67.6554 118.019 66.7546 118.718 64.7832C119.175 63.5063 119.109 61.7079 117.98 60.5839Z" fill="white"/>
<mask id="mask11_1691_14220" style="mask-type:luminance" maskUnits="userSpaceOnUse" x="109" y="59" width="10" height="9">
<path d="M117.98 60.5839C116.098 58.7061 112.761 60.2719 112.403 60.4456C112.134 60.5776 108.935 62.1834 109.179 64.5175C109.393 66.5952 112.21 67.9841 114.498 67.7863C116.018 67.6554 118.019 66.7546 118.718 64.7832C119.175 63.5063 119.109 61.7079 117.98 60.5839Z" fill="white"/>
</mask>
<g mask="url(#mask11_1691_14220)">
<path d="M113.498 68.2687C114.81 68.0642 116.349 66.9192 116.284 65.4051C116.217 63.8843 114.568 62.9422 113.316 62.7846C111.551 62.5584 109.529 63.7414 109.399 65.2073C109.256 66.8395 111.492 68.5805 113.498 68.2687Z" fill="#171717"/>
</g>
<path d="M115.664 69.1364C115.982 70.5411 117.378 71.422 118.783 71.1041C120.187 70.7861 121.068 69.3897 120.751 67.985C120.433 66.5803 119.036 65.6993 117.631 66.0173C116.227 66.3352 115.346 67.7317 115.664 69.1364Z" fill="#00DDA8"/>
<path d="M152.625 28.0386L149.405 28.7674" stroke="white" stroke-width="0.693548" stroke-miterlimit="10"/>
<path d="M149.815 32.4933L146.595 33.2222" stroke="white" stroke-width="0.693548" stroke-miterlimit="10"/>
<path d="M146.999 36.9562L143.779 37.6851" stroke="white" stroke-width="0.693548" stroke-miterlimit="10"/>
<path d="M144.189 41.411L140.969 42.1398" stroke="white" stroke-width="0.693548" stroke-miterlimit="10"/>
<path d="M141.379 45.8656L138.159 46.5944" stroke="white" stroke-width="0.693548" stroke-miterlimit="10"/>
<path d="M160.553 26.2441L157.333 26.9729" stroke="white" stroke-width="0.693548" stroke-miterlimit="10"/>
<path d="M157.736 30.7004L154.516 31.4292" stroke="white" stroke-width="0.693548" stroke-miterlimit="10"/>
<path d="M154.927 35.1617L151.707 35.8906" stroke="white" stroke-width="0.693548" stroke-miterlimit="10"/>
<path d="M152.117 39.6165L148.897 40.3453" stroke="white" stroke-width="0.693548" stroke-miterlimit="10"/>
<path d="M149.307 44.0711L146.087 44.7999" stroke="white" stroke-width="0.693548" stroke-miterlimit="10"/>
<path d="M165.664 28.9059L162.444 29.6348" stroke="white" stroke-width="0.693548" stroke-miterlimit="10"/>
<path d="M162.855 33.3672L159.635 34.0961" stroke="white" stroke-width="0.693548" stroke-miterlimit="10"/>
<path d="M128.551 33.4879L126.4 33.9748" stroke="white" stroke-width="0.693548" stroke-miterlimit="10"/>
<path d="M136.479 31.6934L133.259 32.4222" stroke="white" stroke-width="0.693548" stroke-miterlimit="10"/>
<path d="M133.668 36.1481L130.448 36.8769" stroke="white" stroke-width="0.693548" stroke-miterlimit="10"/>
<path d="M130.853 40.611L127.633 41.3398" stroke="white" stroke-width="0.693548" stroke-miterlimit="10"/>
<path d="M144.406 29.8989L141.187 30.6277" stroke="white" stroke-width="0.693548" stroke-miterlimit="10"/>
<path d="M141.589 34.3552L138.37 35.084" stroke="white" stroke-width="0.693548" stroke-miterlimit="10"/>
<path d="M138.781 38.8165L135.561 39.5453" stroke="white" stroke-width="0.693548" stroke-miterlimit="10"/>
<path d="M160.045 37.822L156.825 38.5508" stroke="white" stroke-width="0.693548" stroke-miterlimit="10"/>
<path d="M157.228 42.2781L154.008 43.007" stroke="white" stroke-width="0.693548" stroke-miterlimit="10"/>
<path d="M179.002 69.1424L175.318 74.3211L189.443 84.3572C189.398 84.8795 189.408 85.2398 189.408 85.2398C189.408 85.2398 189.911 92.4219 193.062 91.8935C196.212 91.3583 197.01 82.2535 195.391 80.8208C195.17 80.6291 194.956 80.4712 194.742 80.3419L194.756 80.3388L179.011 69.1476L179.002 69.1424Z" fill="#00DDA8"/>
<mask id="mask12_1691_14220" style="mask-type:luminance" maskUnits="userSpaceOnUse" x="175" y="69" width="22" height="23">
<path d="M179.002 69.1424L175.318 74.3211L189.443 84.3572C189.398 84.8795 189.408 85.2398 189.408 85.2398C189.408 85.2398 189.911 92.4219 193.062 91.8935C196.212 91.3583 197.01 82.2535 195.391 80.8208C195.17 80.6291 194.956 80.4712 194.742 80.3419L194.756 80.3388L179.011 69.1476L179.002 69.1424Z" fill="white"/>
</mask>
<g mask="url(#mask12_1691_14220)">
<path d="M192.065 65.7746L179.752 83.1028L197.081 95.4155L209.393 78.0873L192.065 65.7746Z" fill="#171717"/>
</g>
<path d="M185.732 76.7566C185.811 77.1041 186.156 77.322 186.503 77.2433C186.851 77.1647 187.069 76.8193 186.99 76.4719C186.911 76.1244 186.566 75.9065 186.219 75.9852C185.871 76.0638 185.653 76.4092 185.732 76.7566Z" fill="#4D4D4D"/>
<path d="M187.282 77.8564C187.361 78.2039 187.706 78.4218 188.054 78.3431C188.401 78.2645 188.619 77.9191 188.54 77.5716C188.462 77.2242 188.116 77.0063 187.769 77.085C187.421 77.1636 187.204 77.509 187.282 77.8564Z" fill="#4D4D4D"/>
</g>
<defs>
<clipPath id="clip0_1691_14220">
<rect width="215" height="215" fill="white"/>
</clipPath>
</defs>
</svg>
