<svg width="19" height="20" viewBox="0 0 19 20" fill="none" xmlns="http://www.w3.org/2000/svg">
<path d="M8.99725 17.9948H2.99908C2.73395 17.9948 2.47967 17.8895 2.29219 17.702C2.10471 17.5145 1.99939 17.2602 1.99939 16.9951V2.99913C1.99939 2.73399 2.10471 2.47971 2.29219 2.29223C2.47967 2.10475 2.73395 1.99942 2.99908 1.99942H7.99756V4.99855C7.99756 5.79397 8.31353 6.55681 8.87597 7.11926C9.43841 7.6817 10.2012 7.99768 10.9966 7.99768H13.9957V12.9962C13.9957 13.2614 14.1011 13.5157 14.2885 13.7031C14.476 13.8906 14.7303 13.9959 14.9954 13.9959C15.2606 13.9959 15.5148 13.8906 15.7023 13.7031C15.8898 13.5157 15.9951 13.2614 15.9951 12.9962V6.99797C15.9951 6.99797 15.9951 6.99797 15.9951 6.93799C15.9847 6.84615 15.9646 6.75567 15.9351 6.66807V6.57809C15.8871 6.4753 15.823 6.38082 15.7452 6.29817L9.74703 0.299913C9.66439 0.222152 9.5699 0.158035 9.46711 0.109968C9.43404 0.104179 9.40021 0.104179 9.36714 0.109968C9.26994 0.0579862 9.16547 0.0209159 9.05724 0H2.99908C2.20368 0 1.44085 0.315979 0.878412 0.878425C0.315974 1.44087 0 2.20371 0 2.99913V16.9951C0 17.7905 0.315974 18.5533 0.878412 19.1158C1.44085 19.6782 2.20368 19.9942 2.99908 19.9942H8.99725C9.26239 19.9942 9.51667 19.8889 9.70415 19.7014C9.89162 19.5139 9.99695 19.2596 9.99695 18.9945C9.99695 18.7294 9.89162 18.4751 9.70415 18.2876C9.51667 18.1001 9.26239 17.9948 8.99725 17.9948ZM9.99695 3.40901L12.5862 5.99826H10.9966C10.7315 5.99826 10.4772 5.89293 10.2898 5.70545C10.1023 5.51797 9.99695 5.26369 9.99695 4.99855V3.40901ZM4.99847 11.9965H10.9966C11.2618 11.9965 11.5161 11.8912 11.7035 11.7037C11.891 11.5162 11.9963 11.262 11.9963 10.9968C11.9963 10.7317 11.891 10.4774 11.7035 10.2899C11.5161 10.1024 11.2618 9.9971 10.9966 9.9971H4.99847C4.73334 9.9971 4.47906 10.1024 4.29158 10.2899C4.1041 10.4774 3.99878 10.7317 3.99878 10.9968C3.99878 11.262 4.1041 11.5162 4.29158 11.7037C4.47906 11.8912 4.73334 11.9965 4.99847 11.9965ZM8.99725 13.9959H4.99847C4.73334 13.9959 4.47906 14.1013 4.29158 14.2887C4.1041 14.4762 3.99878 14.7305 3.99878 14.9957C3.99878 15.2608 4.1041 15.5151 4.29158 15.7026C4.47906 15.89 4.73334 15.9954 4.99847 15.9954H8.99725C9.26239 15.9954 9.51667 15.89 9.70415 15.7026C9.89162 15.5151 9.99695 15.2608 9.99695 14.9957C9.99695 14.7305 9.89162 14.4762 9.70415 14.2887C9.51667 14.1013 9.26239 13.9959 8.99725 13.9959ZM4.99847 7.99768H5.99817C6.26331 7.99768 6.51758 7.89235 6.70506 7.70487C6.89254 7.51739 6.99786 7.26311 6.99786 6.99797C6.99786 6.73283 6.89254 6.47855 6.70506 6.29107C6.51758 6.10359 6.26331 5.99826 5.99817 5.99826H4.99847C4.73334 5.99826 4.47906 6.10359 4.29158 6.29107C4.1041 6.47855 3.99878 6.73283 3.99878 6.99797C3.99878 7.26311 4.1041 7.51739 4.29158 7.70487C4.47906 7.89235 4.73334 7.99768 4.99847 7.99768ZM18.7043 14.2859C18.6114 14.1922 18.5008 14.1178 18.379 14.067C18.2571 14.0163 18.1265 13.9901 17.9945 13.9901C17.8625 13.9901 17.7319 14.0163 17.6101 14.067C17.4882 14.1178 17.3777 14.1922 17.2847 14.2859L13.9957 17.5849L12.7061 16.2853C12.6129 16.1921 12.5023 16.1181 12.3805 16.0677C12.2587 16.0172 12.1282 15.9913 11.9963 15.9913C11.8645 15.9913 11.734 16.0172 11.6122 16.0677C11.4904 16.1181 11.3798 16.1921 11.2866 16.2853C11.1933 16.3785 11.1194 16.4891 11.069 16.6109C11.0185 16.7327 10.9926 16.8633 10.9926 16.9951C10.9926 17.1269 11.0185 17.2574 11.069 17.3792C11.1194 17.501 11.1933 17.6117 11.2866 17.7049L13.2859 19.7043C13.3789 19.798 13.4894 19.8724 13.6113 19.9231C13.7331 19.9739 13.8638 20 13.9957 20C14.1277 20 14.2584 19.9739 14.3802 19.9231C14.502 19.8724 14.6126 19.798 14.7055 19.7043L18.7043 15.7054C18.798 15.6125 18.8724 15.5019 18.9231 15.3801C18.9739 15.2583 19 15.1276 19 14.9957C19 14.8637 18.9739 14.733 18.9231 14.6112C18.8724 14.4894 18.798 14.3788 18.7043 14.2859Z" fill="white"/>
</svg>
