<svg width="110" height="50" viewBox="0 0 110 50" fill="none" xmlns="http://www.w3.org/2000/svg">
<path d="M10.5272 40.2779L5.03479 20.139H12.5869V27.6911L15.1043 20.139L20.139 15.1042L25.1737 25.1737L27.0046 5.03476L35.2432 2.5174L32.7259 27.6911L29.7508 40.2779L20.139 37.7606L17.6216 27.6911L15.1043 40.2779H10.5272Z" fill="#00DDA8"/>
<circle cx="11.7478" cy="6.71299" r="6.71299" fill="#00DDA8"/>
<path d="M44.9616 42.084C43.0742 42.084 41.4341 41.6883 40.0412 40.8971C38.6566 40.0977 37.5934 38.9644 36.8516 37.4974C36.1099 36.0221 35.739 34.2995 35.739 32.3297C35.739 30.3929 36.1099 28.6786 36.8516 27.1868C37.5934 25.695 38.6401 24.5371 39.9918 23.7129C41.3517 22.8887 42.9259 22.4766 44.7144 22.4766C46.3298 22.4766 47.7927 22.8228 49.1031 23.5151C50.4136 24.2074 51.4562 25.2747 52.2309 26.717C53.0057 28.1511 53.393 29.9355 53.393 32.0701V33.4424H40.1525C40.169 34.5138 40.3791 35.441 40.783 36.224C41.1869 36.9987 41.7514 37.5921 42.4767 38.0042C43.202 38.4163 44.0468 38.6224 45.0111 38.6224C45.9424 38.6224 46.7377 38.4411 47.3971 38.0784C48.0647 37.7158 48.5509 37.2336 48.8559 36.632H53.2076C52.9356 37.7281 52.4287 38.6883 51.687 39.5125C50.9452 40.3284 50.0015 40.9631 48.8559 41.4164C47.7103 41.8614 46.4122 42.084 44.9616 42.084ZM49.1155 30.4259C49.1155 29.5687 48.9301 28.8022 48.5592 28.1264C48.1965 27.4423 47.6855 26.9107 47.0262 26.5316C46.3751 26.1442 45.6292 25.9505 44.7885 25.9505C43.9231 25.9505 43.1443 26.1525 42.452 26.5563C41.7679 26.9602 41.2281 27.5041 40.8325 28.1882C40.4368 28.864 40.2143 29.6099 40.1649 30.4259H49.1155ZM65.2754 42.084C63.388 42.084 61.7479 41.6883 60.355 40.8971C58.9704 40.0977 57.9072 38.9644 57.1654 37.4974C56.4236 36.0221 56.0528 34.2995 56.0528 32.3297C56.0528 30.3929 56.4236 28.6786 57.1654 27.1868C57.9072 25.695 58.9539 24.5371 60.3056 23.7129C61.6655 22.8887 63.2397 22.4766 65.0281 22.4766C66.6435 22.4766 68.1065 22.8228 69.4169 23.5151C70.7274 24.2074 71.77 25.2747 72.5447 26.717C73.3194 28.1511 73.7068 29.9355 73.7068 32.0701V33.4424H60.4663C60.4828 34.5138 60.6929 35.441 61.0968 36.224C61.5006 36.9987 62.0652 37.5921 62.7905 38.0042C63.5158 38.4163 64.3605 38.6224 65.3248 38.6224C66.2562 38.6224 67.0515 38.4411 67.7109 38.0784C68.3785 37.7158 68.8647 37.2336 69.1697 36.632H73.5214C73.2494 37.7281 72.7425 38.6883 72.0007 39.5125C71.259 40.3284 70.3153 40.9631 69.1697 41.4164C68.0241 41.8614 66.726 42.084 65.2754 42.084ZM69.4293 30.4259C69.4293 29.5687 69.2438 28.8022 68.873 28.1264C68.5103 27.4423 67.9993 26.9107 67.34 26.5316C66.6889 26.1442 65.943 25.9505 65.1023 25.9505C64.2369 25.9505 63.4581 26.1525 62.7658 26.5563C62.0817 26.9602 61.5418 27.5041 61.1462 28.1882C60.7506 28.864 60.5281 29.6099 60.4786 30.4259H69.4293ZM86.6276 26.1607H82.8941V36.0015C82.8941 36.6031 82.9847 37.0688 83.1661 37.3985C83.3556 37.7199 83.607 37.9383 83.9202 38.0537C84.2416 38.1691 84.629 38.2268 85.0823 38.2268C85.4944 38.2268 86.096 38.1979 86.8873 38.1402V41.7873C86.129 41.9109 85.2883 41.9727 84.3653 41.9727C83.2196 41.9727 82.1976 41.7831 81.2993 41.404C80.4092 41.0166 79.7086 40.4315 79.1976 39.6485C78.6949 38.8655 78.4435 37.8971 78.4435 36.7432V26.1607H75.7484V22.7239H78.4435V18.1744H82.8941V22.7239H86.6276V26.1607ZM94.9192 41.7131H90.4686V16.3941H94.8203V25.9505H95.0552C95.5085 24.8461 96.2049 23.9931 97.1445 23.3914C98.0841 22.7815 99.2668 22.4766 100.693 22.4766C102.011 22.4766 103.161 22.7568 104.142 23.3173C105.123 23.8695 105.881 24.6813 106.417 25.7527C106.961 26.8242 107.233 28.114 107.233 29.6223V41.7131H102.782V30.3022C102.782 29.0165 102.452 28.0192 101.793 27.3104C101.134 26.6016 100.215 26.2472 99.036 26.2472C98.2365 26.2472 97.5236 26.4203 96.8972 26.7665C96.2791 27.1044 95.7928 27.603 95.4384 28.2624C95.0923 28.9135 94.9192 29.6882 94.9192 30.5866V41.7131Z" fill="#00DDA8"/>
</svg>
