<svg width="12" height="20" viewBox="0 0 12 20" fill="none" xmlns="http://www.w3.org/2000/svg">
<path d="M11.4219 9.79654C11.4111 10.1637 11.2815 10.4768 10.9899 10.7576L2.56706 18.9969C2.34029 19.2344 2.03794 19.3532 1.69238 19.3532C0.990479 19.3532 0.439754 18.8133 0.439754 18.1114C0.439754 17.7658 0.580135 17.4527 0.817702 17.2043L8.40907 9.79654L0.817704 2.38875C0.580136 2.15118 0.439755 1.83802 0.439755 1.49247C0.439755 0.779765 0.99048 0.239839 1.69238 0.239839C2.03794 0.239839 2.3403 0.358623 2.56707 0.596191L10.9899 8.83547C11.2815 9.11623 11.4219 9.42939 11.4219 9.79654Z" fill="white"/>
</svg>