<svg width="24" height="24" viewBox="0 0 24 24" fill="none" xmlns="http://www.w3.org/2000/svg">
<path d="M20.16 5.00017C19.1 3.93737 17.6948 3.28871 16.1983 3.17134C14.7019 3.05397 13.2128 3.47563 12 4.36017C10.7277 3.4138 9.14399 2.98468 7.56792 3.1592C5.99185 3.33373 4.54044 4.09894 3.50597 5.30075C2.47151 6.50256 1.93082 8.05169 1.9928 9.63618C2.05478 11.2207 2.71482 12.7228 3.84 13.8402L10.05 20.0602C10.57 20.5719 11.2704 20.8588 12 20.8588C12.7296 20.8588 13.43 20.5719 13.95 20.0602L20.16 13.8402C21.3276 12.6654 21.9829 11.0764 21.9829 9.42017C21.9829 7.76389 21.3276 6.1749 20.16 5.00017ZM18.75 12.4602L12.54 18.6702C12.4693 18.7415 12.3852 18.7982 12.2925 18.8368C12.1999 18.8755 12.1004 18.8954 12 18.8954C11.8996 18.8954 11.8001 18.8755 11.7075 18.8368C11.6148 18.7982 11.5307 18.7415 11.46 18.6702L5.25 12.4302C4.46576 11.6285 4.02661 10.5516 4.02661 9.43017C4.02661 8.3087 4.46576 7.23182 5.25 6.43017C6.04916 5.64115 7.12697 5.19873 8.25 5.19873C9.37303 5.19873 10.4508 5.64115 11.25 6.43017C11.343 6.52389 11.4536 6.59829 11.5754 6.64906C11.6973 6.69983 11.828 6.72596 11.96 6.72596C12.092 6.72596 12.2227 6.69983 12.3446 6.64906C12.4664 6.59829 12.577 6.52389 12.67 6.43017C13.4692 5.64115 14.547 5.19873 15.67 5.19873C16.793 5.19873 17.8708 5.64115 18.67 6.43017C19.465 7.22132 19.9186 8.29236 19.9335 9.41385C19.9485 10.5353 19.5236 11.6181 18.75 12.4302V12.4602Z" fill="white"/>
</svg>
