<svg width="24" height="24" viewBox="0 0 24 24" fill="none" xmlns="http://www.w3.org/2000/svg">
<path fill-rule="evenodd" clip-rule="evenodd" d="M12 22C17.5228 22 22 17.5228 22 12C22 6.47715 17.5228 2 12 2C6.47715 2 2 6.47715 2 12C2 17.5228 6.47715 22 12 22ZM12.782 13.3837L12.9482 7.27295H11.0519L11.2223 13.3837H12.782ZM11.2777 15.8127C11.4794 16.0116 11.7209 16.111 12.0022 16.111C12.184 16.111 12.3516 16.0656 12.505 15.9747C12.6584 15.8809 12.782 15.7573 12.8757 15.6039C12.9723 15.4477 13.022 15.2758 13.0249 15.0883C13.022 14.8099 12.9184 14.5712 12.7138 14.3724C12.5093 14.1735 12.272 14.0741 12.0022 14.0741C11.7209 14.0741 11.4794 14.1735 11.2777 14.3724C11.076 14.5712 10.9766 14.8099 10.9794 15.0883C10.9766 15.3695 11.076 15.611 11.2777 15.8127Z" fill="#FFF700"/>
</svg>
