<svg width="340" height="102" viewBox="0 0 340 102" fill="none" xmlns="http://www.w3.org/2000/svg">
<g clip-path="url(#clip0_3093_24465)">
<path d="M63.1323 82.7414L63.6421 75.8898L82.3154 77.2841C82.6377 76.8193 82.9001 76.527 82.9001 76.527C82.9001 76.527 88.275 70.8897 90.5238 73.5059C92.7802 76.1222 87.158 84.2482 84.8192 84.3306C84.5043 84.3381 84.212 84.3231 83.9421 84.2781V84.2931L63.1248 82.7414H63.1323Z" fill="black"/>
<mask id="mask0_3093_24465" style="mask-type:luminance" maskUnits="userSpaceOnUse" x="63" y="72" width="29" height="13">
<path d="M63.1323 82.7414L63.6421 75.8898L82.3154 77.2841C82.6377 76.8193 82.9001 76.527 82.9001 76.527C82.9001 76.527 88.275 70.8897 90.5238 73.5059C92.7802 76.1222 87.158 84.2482 84.8192 84.3306C84.5043 84.3381 84.212 84.3231 83.9421 84.2781V84.2931L63.1248 82.7414H63.1323Z" fill="white"/>
</mask>
<g mask="url(#mask0_3093_24465)">
<path d="M71.6578 94.5564L73.3645 71.6437L96.2772 73.3504L94.5705 96.2631L71.6578 94.5564Z" fill="#00DDA8"/>
</g>
<path d="M74.3993 82.2991C74.0143 82.2991 73.7021 81.987 73.7021 81.6019C73.7021 81.2169 74.0143 80.9048 74.3993 80.9048C74.7843 80.9048 75.0964 81.2169 75.0964 81.6019C75.0964 81.987 74.7843 82.2991 74.3993 82.2991Z" fill="#4D4D4D"/>
<path d="M76.4532 82.449C76.0682 82.449 75.7561 82.1369 75.7561 81.7518C75.7561 81.3668 76.0682 81.0547 76.4532 81.0547C76.8383 81.0547 77.1504 81.3668 77.1504 81.7518C77.1504 82.1369 76.8383 82.449 76.4532 82.449Z" fill="#4D4D4D"/>
<path d="M-3.56842 30.2479L14.5392 78.3015L65.7824 66.6481L55.7526 77.224L39.6742 94.7022L61.6839 101.545L65.7834 66.6555L68.041 66.3445L72.0099 45.1167L-3.56842 30.2479Z" fill="#6F50CB"/>
<path d="M56.9403 91.1672L59.3841 84.7504L76.888 91.4146C77.3303 91.0623 77.6601 90.8524 77.6601 90.8524C77.6601 90.8524 84.4143 86.9843 85.8311 90.1327C87.2479 93.2812 79.5417 99.4656 77.2778 98.8809C76.9705 98.7984 76.7006 98.701 76.4532 98.5811V98.596L56.9403 91.1672Z" fill="black"/>
<mask id="mask1_3093_24465" style="mask-type:luminance" maskUnits="userSpaceOnUse" x="56" y="84" width="31" height="15">
<path d="M56.9403 91.1672L59.3841 84.7504L76.888 91.4146C77.3303 91.0623 77.6601 90.8524 77.6601 90.8524C77.6601 90.8524 84.4143 86.9843 85.8311 90.1327C87.2479 93.2812 79.5417 99.4656 77.2778 98.8809C76.9705 98.7984 76.7006 98.701 76.4532 98.5811V98.596L56.9403 91.1672Z" fill="white"/>
</mask>
<g mask="url(#mask1_3093_24465)">
<path d="M61.7486 104.933L69.9226 83.4598L91.3956 91.6338L83.2216 113.107L61.7486 104.933Z" fill="#00DDA8"/>
</g>
<path d="M68.0724 93.9859C67.6873 93.9859 67.3752 93.6737 67.3752 93.2887C67.3752 92.9037 67.6873 92.5916 68.0724 92.5916C68.4574 92.5916 68.7695 92.9037 68.7695 93.2887C68.7695 93.6737 68.4574 93.9859 68.0724 93.9859Z" fill="#4D4D4D"/>
<path d="M69.9913 94.7205C69.6063 94.7205 69.2942 94.4084 69.2942 94.0233C69.2942 93.6383 69.6063 93.3262 69.9913 93.3262C70.3763 93.3262 70.6885 93.6383 70.6885 94.0233C70.6885 94.4084 70.3763 94.7205 69.9913 94.7205Z" fill="#4D4D4D"/>
<path d="M31.2291 54.811L52.8994 42.2997L54.1176 44.4096L32.4473 56.9209L31.2291 54.811Z" fill="white"/>
<path d="M61.363 48.1933L13.9906 30.8764L58.883 7.80321C61.2246 6.35845 63.8018 5.31049 66.5202 4.91496C73.5393 3.8713 80.9982 6.11591 86.3873 11.7907C93.8981 19.6943 94.665 32.0857 88.183 40.8511C83.5179 47.1669 76.3629 50.3064 69.2452 50.1161C66.5219 50.0425 63.8468 49.3272 61.3703 48.1949L61.363 48.1933Z" fill="#00DDA8"/>
<path d="M66.5039 45.2811C56.6676 43.1306 50.437 33.4133 52.5875 23.5769C54.738 13.7405 64.4553 7.5099 74.2917 9.66043C84.1281 11.811 90.3587 21.5283 88.2082 31.3647C86.0576 41.201 76.3403 47.4316 66.5039 45.2811Z" fill="#6F50CB"/>
<mask id="mask2_3093_24465" style="mask-type:luminance" maskUnits="userSpaceOnUse" x="52" y="9" width="37" height="37">
<path d="M66.5039 45.2811C56.6676 43.1306 50.437 33.4133 52.5875 23.5769C54.738 13.7405 64.4553 7.5099 74.2917 9.66043C84.1281 11.811 90.3587 21.5283 88.2082 31.3647C86.0576 41.201 76.3403 47.4316 66.5039 45.2811Z" fill="white"/>
</mask>
<g mask="url(#mask2_3093_24465)">
<path d="M57.849 10.7079L66.9645 7.13L84.1152 12.1458L89.9394 22.6042L91.9339 23.0632C91.9339 23.0632 86.7541 35.3132 82.6936 22.5086C81.1947 25.258 77.3978 30.5512 74.2233 20.9944C72.6036 23.8401 68.8689 28.533 65.7863 18.7662L65.7717 18.7629C64.1904 21.6784 59.9583 27.6285 56.6684 15.2303L57.8506 10.7006L57.849 10.7079Z" fill="black"/>
</g>
<path d="M82.0722 28.404L82.4677 28.4904C84.2513 28.8804 85.3811 30.6425 84.9912 32.4261L84.3603 35.3115C83.9704 37.0952 82.2083 38.225 80.4247 37.835L80.0292 37.7485C78.2456 37.3586 77.1158 35.5965 77.5057 33.8129L78.1365 30.9275C78.5265 29.1438 80.2886 28.014 82.0722 28.404Z" fill="white"/>
<path d="M79.1802 32.6601L82.5942 30.4711L84.7832 33.8851L81.3692 36.0741L79.1802 32.6601Z" fill="black"/>
<path d="M72.2443 26.2553L72.6398 26.3418C74.4234 26.7317 75.5533 28.4938 75.1633 30.2774L74.5325 33.1628C74.1425 34.9465 72.3804 36.0763 70.5968 35.6863L70.2013 35.5999C68.4177 35.2099 67.2879 33.4478 67.6778 31.6642L68.3087 28.7788C68.6986 26.9952 70.4607 25.8653 72.2443 26.2553Z" fill="white"/>
<path d="M69.3529 30.5111L72.7668 28.3221L74.9559 31.7361L71.5419 33.9251L69.3529 30.5111Z" fill="black"/>
<path d="M75.1195 38.4094C73.5988 38.0769 72.6355 36.5746 72.968 35.0538C73.3005 33.5331 74.8028 32.5698 76.3236 32.9023C77.8443 33.2347 78.8076 34.7371 78.4751 36.2578C78.1426 37.7786 76.6403 38.7419 75.1195 38.4094Z" fill="#00DDA8"/>
</g>
<path d="M150.465 81.7573L148.861 75.0767L167.07 70.7096C167.235 70.1686 167.396 69.8102 167.396 69.8102C167.396 69.8102 170.795 62.8023 173.735 64.608C176.682 66.4114 173.806 75.865 171.603 76.6568C171.306 76.76 171.023 76.8349 170.752 76.8743L170.757 76.8886L150.458 81.7596L150.465 81.7573Z" fill="#171717"/>
<mask id="mask3_3093_24465" style="mask-type:luminance" maskUnits="userSpaceOnUse" x="148" y="64" width="27" height="18">
<path d="M150.465 81.7642L148.862 75.0834L167.07 70.7118C167.235 70.1707 167.396 69.8122 167.396 69.8122C167.396 69.8122 170.796 62.803 173.735 64.6082C176.681 66.4111 173.803 75.866 171.601 76.6584C171.304 76.7617 171.021 76.8366 170.75 76.8762L170.755 76.8904L150.457 81.7665L150.465 81.7642Z" fill="white"/>
</mask>
<g mask="url(#mask3_3093_24465)">
<path d="M162.191 90.3997L156.828 68.0581L179.17 62.6956L184.532 85.0373L162.191 90.3997Z" fill="#00DDA8"/>
</g>
<path d="M161.058 77.8928C160.691 78.0102 160.299 77.8082 160.182 77.4415C160.064 77.0748 160.266 76.6823 160.633 76.5649C161 76.4475 161.392 76.6496 161.509 77.0162C161.627 77.3829 161.425 77.7754 161.058 77.8928Z" fill="#4D4D4D"/>
<path d="M163.062 77.4164C162.695 77.5338 162.303 77.3317 162.186 76.965C162.068 76.5983 162.27 76.2059 162.637 76.0885C163.004 75.971 163.396 76.1731 163.513 76.5398C163.631 76.9065 163.429 77.2989 163.062 77.4164Z" fill="#4D4D4D"/>
<path d="M118.72 24.2364L165.722 100.594L101.456 92.4753L94.7766 66.3581L118.712 24.2289L118.72 24.2364Z" fill="#D968D3"/>
<path d="M149.657 70.4212C148.375 70.4437 135.894 70.5936 134.185 65.4136C133.645 63.7869 133.922 60.8484 135.114 60.3986C135.946 60.0838 137.356 60.9233 137.356 61.6505C137.356 63.2547 130.534 65.3986 124.297 64.7989C118.188 64.2142 111.291 60.8634 111.411 57.9248C111.471 56.4406 113.338 54.8363 114.649 55.0912C115.826 55.3236 116.891 57.1077 116.546 58.4046C115.751 61.4631 106.673 63.667 100.564 60.0088C97.7828 58.3446 96.306 55.8858 95.6013 54.4465" stroke="white" stroke-miterlimit="10"/>
<path d="M129.47 46.1484L81.3285 31.1033L125.069 5.92319C127.333 4.37145 129.867 3.20203 132.558 2.66979C139.522 1.29797 147.079 3.17954 152.731 8.59188C160.609 16.1332 161.959 28.4721 155.902 37.5351C151.539 44.0644 144.545 47.5427 137.423 47.6851C134.695 47.7451 131.996 47.1529 129.462 46.1409L129.47 46.1484Z" fill="#00DDA8"/>
<path d="M137.828 43.2024C127.759 43.2024 119.597 35.0401 119.597 24.9714C119.597 14.9027 127.759 6.74036 137.828 6.74036C147.897 6.74036 156.059 14.9027 156.059 24.9714C156.059 35.0401 147.897 43.2024 137.828 43.2024Z" fill="#D968D3"/>
<mask id="mask4_3093_24465" style="mask-type:luminance" maskUnits="userSpaceOnUse" x="119" y="6" width="38" height="38">
<path d="M137.828 43.2024C127.759 43.2024 119.597 35.0401 119.597 24.9714C119.597 14.9027 127.759 6.74036 137.828 6.74036C147.897 6.74036 156.059 14.9027 156.059 24.9714C156.059 35.0401 147.897 43.2024 137.828 43.2024Z" fill="white"/>
</mask>
<g mask="url(#mask4_3093_24465)">
<path d="M121.981 11.2831L130.122 5.84082L147.948 7.07771L155.871 16.0508L157.918 16.0733C157.918 16.0733 155.474 29.1468 148.772 17.5051C147.895 20.5111 145.317 26.4932 140.174 17.8349C139.2 20.9609 136.553 26.3432 131.456 17.4601H131.441C130.519 20.646 127.655 27.3627 121.793 15.9533L121.981 11.2756V11.2831Z" fill="#171717"/>
</g>
<path d="M153.66 29.2664C153.66 29.2664 152.176 25.5408 149.042 25.5408C145.909 25.5408 144.492 29.2664 144.492 29.2664C144.492 29.2664 145.317 33.1195 149.08 33.1195C152.843 33.1195 153.667 29.2664 153.667 29.2664H153.66Z" fill="white"/>
<mask id="mask5_3093_24465" style="mask-type:luminance" maskUnits="userSpaceOnUse" x="144" y="25" width="10" height="9">
<path d="M153.66 29.2664C153.66 29.2664 152.176 25.5408 149.042 25.5408C145.909 25.5408 144.492 29.2664 144.492 29.2664C144.492 29.2664 145.317 33.1195 149.08 33.1195C152.843 33.1195 153.667 29.2664 153.667 29.2664H153.66Z" fill="white"/>
</mask>
<g mask="url(#mask5_3093_24465)">
<path d="M148.63 36.3879C149.574 29.1615 148.63 22.5573 148.63 22.5573L154.35 25.9981L154.882 30.9681L148.63 36.3879Z" fill="#171717"/>
</g>
<path d="M142.416 29.2664C142.416 29.2664 140.932 25.5408 137.798 25.5408C134.665 25.5408 133.248 29.2664 133.248 29.2664C133.248 29.2664 134.072 33.1195 137.836 33.1195C141.599 33.1195 142.423 29.2664 142.423 29.2664H142.416Z" fill="white"/>
<mask id="mask6_3093_24465" style="mask-type:luminance" maskUnits="userSpaceOnUse" x="133" y="25" width="10" height="9">
<path d="M142.416 29.2664C142.416 29.2664 140.932 25.5408 137.798 25.5408C134.665 25.5408 133.248 29.2664 133.248 29.2664C133.248 29.2664 134.072 33.1195 137.836 33.1195C141.599 33.1195 142.423 29.2664 142.423 29.2664H142.416Z" fill="white"/>
</mask>
<g mask="url(#mask6_3093_24465)">
<path d="M137.386 36.3879C138.33 29.1615 137.386 22.5573 137.386 22.5573L143.105 25.9981L143.638 30.9681L137.386 36.3879Z" fill="#171717"/>
</g>
<path d="M143.563 34.7388C142.006 34.7388 140.744 33.4769 140.744 31.9202C140.744 30.3635 142.006 29.1016 143.563 29.1016C145.119 29.1016 146.381 30.3635 146.381 31.9202C146.381 33.4769 145.119 34.7388 143.563 34.7388Z" fill="#00DDA8"/>
<path d="M145.594 36.4181C145.489 38.6146 143.585 39.9339 142.228 39.6415C140.962 39.3717 139.837 37.6325 140.332 35.6985" stroke="white" stroke-miterlimit="10" stroke-linecap="round"/>
<path d="M148.278 92.4294L148.022 85.5686L166.734 84.8719C166.999 84.3726 167.23 84.0551 167.23 84.0551C167.23 84.0551 171.938 77.855 174.473 80.204C177 82.5543 172.331 91.2559 170.016 91.596C169.703 91.6389 169.416 91.6542 169.14 91.6447L169.143 91.6595L148.28 92.4367L148.278 92.4294Z" fill="#171717"/>
<mask id="mask7_3093_24465" style="mask-type:luminance" maskUnits="userSpaceOnUse" x="148" y="79" width="28" height="14">
<path d="M148.278 92.4297L148.022 85.5698L166.734 84.8719C167 84.3726 167.23 84.0551 167.23 84.0551C167.23 84.0551 171.939 77.8554 174.474 80.2039C177.001 82.5538 172.331 91.2547 170.016 91.5949C169.703 91.6379 169.416 91.6532 169.14 91.6437L169.143 91.6585L148.279 92.4371L148.278 92.4297Z" fill="white"/>
</mask>
<g mask="url(#mask7_3093_24465)">
<path d="M158.073 103.214L157.216 80.2543L180.176 79.3973L181.033 102.358L158.073 103.214Z" fill="#00DDA8"/>
</g>
<path d="M159.482 90.7224C159.104 90.793 158.74 90.5433 158.669 90.1648C158.599 89.7863 158.848 89.4223 159.227 89.3517C159.605 89.2812 159.969 89.5308 160.04 89.9094C160.11 90.2879 159.861 90.6519 159.482 90.7224Z" fill="#4D4D4D"/>
<path d="M161.534 90.6451C161.156 90.7156 160.792 90.4659 160.721 90.0874C160.651 89.7089 160.9 89.3449 161.279 89.2743C161.658 89.2038 162.022 89.4535 162.092 89.832C162.163 90.2105 161.913 90.5745 161.534 90.6451Z" fill="#4D4D4D"/>
<path d="M182.971 77.1958L188.08 72.6035L175.565 58.6794C175.736 58.1406 175.809 57.7541 175.809 57.7541C175.809 57.7541 176.985 50.0546 173.534 49.8707C170.083 49.6869 167.09 59.0987 168.46 60.9959C168.641 61.2533 168.84 61.4666 169.033 61.657L169.017 61.6712L182.971 77.1958Z" fill="#00DDA8"/>
<mask id="mask8_3093_24465" style="mask-type:luminance" maskUnits="userSpaceOnUse" x="168" y="49" width="21" height="29">
<path d="M182.973 77.1952L188.082 72.6037L175.564 58.6786C175.735 58.1398 175.808 57.7533 175.808 57.7533C175.808 57.7533 176.983 50.0542 173.532 49.8699C170.081 49.6857 167.088 59.0968 168.459 60.9941C168.64 61.2515 168.839 61.4648 169.032 61.6552L169.016 61.6694L182.973 77.1952Z" fill="white"/>
</mask>
<g mask="url(#mask8_3093_24465)">
<path d="M168.409 77.6706L185.496 62.3124L170.135 45.2234L153.048 60.5816L168.409 77.6706Z" fill="#171717"/>
</g>
<path d="M177.019 66.8869C176.635 66.8664 176.306 67.1615 176.286 67.5459C176.265 67.9304 176.56 68.2587 176.945 68.2792C177.329 68.2997 177.658 68.0046 177.678 67.6201C177.699 67.2356 177.404 66.9073 177.019 66.8869Z" fill="#4D4D4D"/>
<path d="M175.645 65.3573C175.26 65.3368 174.932 65.6319 174.911 66.0164C174.891 66.4009 175.186 66.7292 175.57 66.7497C175.955 66.7701 176.283 66.4751 176.304 66.0906C176.324 65.7061 176.029 65.3778 175.645 65.3573Z" fill="#4D4D4D"/>
<path d="M226.998 87.3739L241.271 54.8699L222.245 23.9477L216.698 45.3496L173.092 42.9733L183.399 68.3408L213.527 60.4097L213.527 73.0935L171.51 68.3333L177.057 100.852L226.998 87.3739Z" fill="#FF5858"/>
<path d="M185.548 84.8584L186.693 78.0859L168.23 74.951C168.031 74.4226 167.85 74.0756 167.85 74.0756C167.85 74.0756 163.985 67.3152 161.168 69.315C158.35 71.3149 161.852 80.5531 164.109 81.1864C164.412 81.2741 164.697 81.3205 164.969 81.3471L164.973 81.3616L185.546 84.8512L185.548 84.8584Z" fill="#00DDA8"/>
<mask id="mask9_3093_24465" style="mask-type:luminance" maskUnits="userSpaceOnUse" x="160" y="68" width="27" height="17">
<path d="M185.548 84.8584L186.693 78.0859L168.23 74.951C168.031 74.4226 167.85 74.0756 167.85 74.0756C167.85 74.0756 163.985 67.3152 161.168 69.315C158.35 71.3149 161.852 80.5531 164.109 81.1864C164.412 81.2741 164.697 81.3205 164.969 81.3471L164.973 81.3616L185.546 84.8512L185.548 84.8584Z" fill="white"/>
</mask>
<g mask="url(#mask9_3093_24465)">
<path d="M174.427 94.2796L178.271 71.6273L155.619 67.783L151.774 90.4353L174.427 94.2796Z" fill="#171717"/>
</g>
<path d="M174.696 80.3693C174.325 80.471 174.106 80.8545 174.208 81.2259C174.31 81.5972 174.693 81.8158 175.064 81.7141C175.436 81.6124 175.654 81.2289 175.553 80.8575C175.451 80.4862 175.067 80.2676 174.696 80.3693Z" fill="#4D4D4D"/>
<path d="M172.668 80.0309C172.297 80.1326 172.078 80.5161 172.18 80.8875C172.282 81.2588 172.665 81.4774 173.037 81.3757C173.408 81.274 173.627 80.8905 173.525 80.5191C173.423 80.1478 173.04 79.9292 172.668 80.0309Z" fill="#4D4D4D"/>
<path d="M232.972 70.1399L232.972 66.5716" stroke="white" stroke-miterlimit="10"/>
<path d="M228.947 66.1068L228.947 62.5386" stroke="white" stroke-miterlimit="10"/>
<path d="M224.914 62.0813L224.914 58.5131" stroke="white" stroke-miterlimit="10"/>
<path d="M220.888 58.0558L220.888 54.4875" stroke="white" stroke-miterlimit="10"/>
<path d="M216.863 54.0228L216.863 50.4546" stroke="white" stroke-miterlimit="10"/>
<path d="M228.947 74.8926L228.947 71.3243" stroke="white" stroke-miterlimit="10"/>
<path d="M224.914 70.8671L224.914 67.2988" stroke="white" stroke-miterlimit="10"/>
<path d="M220.888 66.834L220.888 63.2657" stroke="white" stroke-miterlimit="10"/>
<path d="M216.863 62.8085L216.863 59.2402" stroke="white" stroke-miterlimit="10"/>
<path d="M228.947 83.6782L228.947 80.11" stroke="white" stroke-miterlimit="10"/>
<path d="M224.914 79.6453L224.914 76.077" stroke="white" stroke-miterlimit="10"/>
<path d="M232.972 52.2386L232.972 48.6704" stroke="white" stroke-miterlimit="10"/>
<path d="M232.972 61.0244L232.972 57.4562" stroke="white" stroke-miterlimit="10"/>
<path d="M228.947 56.9989L228.947 53.4307" stroke="white" stroke-miterlimit="10"/>
<path d="M224.914 52.9734L224.914 49.4051" stroke="white" stroke-miterlimit="10"/>
<path d="M220.888 75.6196L220.888 72.0514" stroke="white" stroke-miterlimit="10"/>
<path d="M216.863 71.5941L216.863 68.0259" stroke="white" stroke-miterlimit="10"/>
<path d="M207.282 47.4336L257.717 48.2133L224.051 10.6043C222.387 8.42284 220.348 6.51878 217.957 5.16945C211.772 1.68366 204.006 1.10645 196.945 4.47978C187.102 9.17248 181.952 20.4694 184.868 30.9792C186.967 38.543 192.522 44.0378 199.239 46.4066C201.81 47.3137 204.561 47.5986 207.282 47.4336Z" fill="#00DDA8"/>
<path d="M207.185 6.99108C197.116 6.99107 188.953 15.1534 188.953 25.2221C188.953 35.2908 197.116 43.4531 207.185 43.4531C217.253 43.4531 225.416 35.2908 225.416 25.2221C225.416 15.1534 217.253 6.99108 207.185 6.99108Z" fill="#FF5858"/>
<mask id="mask10_3093_24465" style="mask-type:luminance" maskUnits="userSpaceOnUse" x="188" y="6" width="38" height="38">
<path d="M207.185 6.99108C197.116 6.99107 188.953 15.1534 188.953 25.2221C188.953 35.2908 197.116 43.4531 207.185 43.4531C217.253 43.4531 225.416 35.2908 225.416 25.2221C225.416 15.1534 217.253 6.99108 207.185 6.99108Z" fill="white"/>
</mask>
<g mask="url(#mask10_3093_24465)">
<path d="M223.032 11.5338L214.891 6.0915L197.065 7.32839L189.141 16.3015L187.095 16.324C187.095 16.324 189.538 29.3975 196.24 17.7558C197.117 20.7618 199.696 26.7438 204.838 18.0856C205.813 21.2116 208.459 26.5939 213.556 17.7108L213.571 17.7108C214.494 20.8967 217.357 27.6134 223.219 16.204L223.032 11.5263L223.032 11.5338Z" fill="#171717"/>
</g>
<path d="M197.739 33.7904C200.168 32.2537 199.313 28.3631 199.216 27.9433C199.141 27.6285 198.211 23.8728 195.693 23.573C193.451 23.3031 191.315 25.9418 190.978 28.4006C190.753 30.0348 191.225 32.3586 193.136 33.5655C194.373 34.3526 196.285 34.7125 197.739 33.7904Z" fill="white"/>
<mask id="mask11_3093_24465" style="mask-type:luminance" maskUnits="userSpaceOnUse" x="190" y="23" width="10" height="12">
<path d="M197.739 33.7904C200.168 32.2537 199.313 28.3631 199.216 27.9433C199.141 27.6285 198.211 23.8728 195.693 23.573C193.451 23.3031 191.315 25.9418 190.978 28.4006C190.753 30.0348 191.225 32.3586 193.136 33.5655C194.373 34.3526 196.285 34.7125 197.739 33.7904Z" fill="white"/>
</mask>
<g mask="url(#mask11_3093_24465)">
<path d="M190.708 27.2312C190.61 28.663 191.45 30.5595 193.061 30.8519C194.681 31.1443 196.067 29.63 196.532 28.3481C197.192 26.5415 196.427 24.1277 194.913 23.6405C193.226 23.1007 190.857 25.0423 190.708 27.2312Z" fill="#171717"/>
</g>
<path d="M209.313 33.7904C211.742 32.2537 210.888 28.3631 210.79 27.9433C210.715 27.6285 209.786 23.8728 207.267 23.573C205.026 23.3031 202.889 25.9418 202.552 28.4006C202.327 30.0348 202.799 32.3586 204.711 33.5655C205.948 34.3526 207.859 34.7125 209.313 33.7904Z" fill="white"/>
<mask id="mask12_3093_24465" style="mask-type:luminance" maskUnits="userSpaceOnUse" x="202" y="23" width="10" height="12">
<path d="M209.313 33.7904C211.742 32.2537 210.888 28.3631 210.79 27.9433C210.715 27.6285 209.786 23.8728 207.267 23.573C205.026 23.3031 202.889 25.9418 202.552 28.4006C202.327 30.0348 202.799 32.3586 204.711 33.5655C205.948 34.3526 207.859 34.7125 209.313 33.7904Z" fill="white"/>
</mask>
<g mask="url(#mask12_3093_24465)">
<path d="M202.282 27.2312C202.184 28.663 203.024 30.5595 204.636 30.8519C206.255 31.1443 207.642 29.63 208.106 28.3481C208.766 26.5415 208.001 24.1277 206.487 23.6405C204.801 23.1007 202.432 25.0423 202.282 27.2312Z" fill="#171717"/>
</g>
<path d="M200.85 29.3076C199.294 29.3076 198.032 30.5695 198.032 32.1262C198.032 33.6829 199.294 34.9448 200.85 34.9448C202.407 34.9448 203.669 33.6829 203.669 32.1262C203.669 30.5695 202.407 29.3076 200.85 29.3076Z" fill="#00DDA8"/>
<g clip-path="url(#clip1_3093_24465)">
<path d="M275.595 73.6515L271.912 67.8556L256.107 77.8973C255.605 77.6387 255.234 77.5016 255.234 77.5016C255.234 77.5016 247.836 75.0699 247.084 78.443C246.332 81.8162 255.118 86.3229 257.217 85.2918C257.502 85.1546 257.743 85.0019 257.965 84.8342L257.973 84.8468L275.588 73.6555L275.595 73.6515Z" fill="#00DDA8"/>
<mask id="mask13_3093_24465" style="mask-type:luminance" maskUnits="userSpaceOnUse" x="247" y="67" width="29" height="19">
<path d="M275.595 73.6515L271.912 67.8556L256.107 77.8973C255.605 77.6387 255.234 77.5016 255.234 77.5016C255.234 77.5016 247.836 75.0699 247.084 78.443C246.332 81.8162 255.118 86.3229 257.217 85.2918C257.502 85.1546 257.743 85.0019 257.965 84.8342L257.973 84.8468L275.588 73.6555L275.595 73.6515Z" fill="white"/>
</mask>
<g mask="url(#mask13_3093_24465)">
<path d="M273.653 88.0828L261.332 68.6895L241.939 81.0103L254.26 100.404L273.653 88.0828Z" fill="#171717"/>
</g>
<path d="M265.492 78.5511C265.817 78.3446 265.913 77.9138 265.706 77.5888C265.5 77.2638 265.069 77.1677 264.744 77.3742C264.419 77.5807 264.323 78.0115 264.53 78.3365C264.736 78.6615 265.167 78.7576 265.492 78.5511Z" fill="#4D4D4D"/>
<path d="M263.758 79.6525C264.083 79.4461 264.18 79.0152 263.973 78.6902C263.767 78.3652 263.336 78.2692 263.011 78.4756C262.686 78.6821 262.59 79.1129 262.796 79.4379C263.003 79.7629 263.434 79.859 263.758 79.6525Z" fill="#4D4D4D"/>
<path d="M264.795 36.8939L276.872 100.32L309.743 84.8928L317.12 53.1834L264.795 36.8939Z" fill="#508FFF"/>
<path d="M287.862 49.9375L304.016 11.8862L333.844 23.8279L331.355 41.7365L287.862 49.945V49.9375Z" fill="#508FFF"/>
<path d="M319.301 32.4403L303.111 28.5864L302.408 31.5399L318.598 35.3938L319.301 32.4403Z" fill="white"/>
<path d="M300.108 65.6528L283.918 61.799L283.215 64.7524L299.405 68.6063L300.108 65.6528Z" fill="white"/>
<path d="M275.844 50.591L325.061 39.5462L283.525 10.8662C281.396 9.13508 278.968 7.76141 276.327 7.00955C269.498 5.06886 261.813 6.32625 255.737 11.2594C247.267 18.1264 244.906 30.3151 250.2 39.8426C254.012 46.7046 260.699 50.7459 267.783 51.4761C270.496 51.7558 273.237 51.3886 275.844 50.591Z" fill="#00DDA8"/>
<path d="M274.236 46.8917C284.025 44.5339 290.049 34.6872 287.691 24.8985C285.333 15.1097 275.487 9.08563 265.698 11.4434C255.909 13.8011 249.885 23.6478 252.243 33.4366C254.6 43.2253 264.447 49.2494 274.236 46.8917Z" fill="#508FFF"/>
<mask id="mask14_3093_24465" style="mask-type:luminance" maskUnits="userSpaceOnUse" x="251" y="10" width="38" height="38">
<path d="M274.236 46.8917C284.025 44.5339 290.049 34.6872 287.691 24.8985C285.333 15.1097 275.487 9.08563 265.698 11.4434C255.909 13.8011 249.885 23.6478 252.243 33.4366C254.6 43.2253 264.447 49.2494 274.236 46.8917Z" fill="white"/>
</mask>
<g mask="url(#mask14_3093_24465)">
<path d="M282.166 12.1417L272.977 8.75698L255.936 14.1337L250.334 24.7128L248.35 25.2138C248.35 25.2138 253.787 37.3517 257.576 24.4643C259.133 27.1814 263.041 32.3932 266.013 22.7715C267.692 25.5824 271.525 30.1955 274.401 20.3657L274.415 20.3622C276.058 23.2436 280.414 29.103 283.442 16.6381L282.164 12.1344L282.166 12.1417Z" fill="#171717"/>
</g>
<path d="M260.514 39.3479C262.981 38.7536 264.499 36.2717 263.905 33.8044C263.311 31.3371 260.829 29.8187 258.362 30.413C255.894 31.0073 254.376 33.4892 254.97 35.9565C255.564 38.4238 258.046 39.9422 260.514 39.3479Z" fill="white"/>
<path d="M259.797 36.3744C260.622 36.1757 261.13 35.3457 260.931 34.5205C260.733 33.6954 259.903 33.1876 259.078 33.3864C258.252 33.5851 257.745 34.4151 257.943 35.2402C258.142 36.0654 258.972 36.5731 259.797 36.3744Z" fill="#171717"/>
<path d="M271.3 36.75C273.767 36.1557 275.285 33.6738 274.691 31.2065C274.097 28.7392 271.615 27.2208 269.148 27.8151C266.68 28.4094 265.162 30.8913 265.756 33.3586C266.35 35.8259 268.832 37.3443 271.3 36.75Z" fill="white"/>
<path d="M270.583 33.7765C271.408 33.5778 271.916 32.7478 271.718 31.9226C271.519 31.0975 270.689 30.5897 269.864 30.7885C269.039 30.9872 268.531 31.8172 268.729 32.6423C268.928 33.4675 269.758 33.9752 270.583 33.7765Z" fill="#171717"/>
<path d="M266.679 40.0065C268.192 39.642 269.124 38.1196 268.759 36.6062C268.395 35.0929 266.872 34.1615 265.359 34.526C263.846 34.8905 262.914 36.4129 263.279 37.9263C263.643 39.4397 265.166 40.371 266.679 40.0065Z" fill="#00DDA8"/>
<path d="M286.991 80.6353L282.366 75.5592L268.523 88.1699C267.985 88.0016 267.595 87.9304 267.595 87.9304C267.595 87.9304 259.89 86.8073 259.729 90.2596C259.568 93.7119 268.999 96.64 270.889 95.2634C271.147 95.0791 271.357 94.8872 271.547 94.6838L271.557 94.6949L286.985 80.6404L286.991 80.6353Z" fill="#00DDA8"/>
<mask id="mask15_3093_24465" style="mask-type:luminance" maskUnits="userSpaceOnUse" x="259" y="75" width="28" height="21">
<path d="M286.991 80.6353L282.366 75.5592L268.523 88.1699C267.985 88.0015 267.595 87.9303 267.595 87.9303C267.595 87.9303 259.89 86.8073 259.729 90.2596C259.568 93.7119 268.999 96.64 270.889 95.2634C271.147 95.0791 271.357 94.8872 271.547 94.6838L271.557 94.6949L286.985 80.6404L286.991 80.6353Z" fill="white"/>
</mask>
<g mask="url(#mask15_3093_24465)">
<path d="M287.559 95.1855L272.086 78.2006L255.101 93.6736L270.574 110.659L287.559 95.1855Z" fill="#171717"/>
</g>
<path d="M277.882 87.1997C278.166 86.9404 278.187 86.4994 277.927 86.2148C277.668 85.9302 277.227 85.9096 276.943 86.1689C276.658 86.4282 276.637 86.8692 276.897 87.1538C277.156 87.4384 277.597 87.459 277.882 87.1997Z" fill="#4D4D4D"/>
<path d="M276.363 88.5828C276.648 88.3236 276.668 87.8826 276.409 87.598C276.15 87.3134 275.709 87.2928 275.424 87.5521C275.139 87.8114 275.119 88.2523 275.378 88.537C275.637 88.8216 276.078 88.8421 276.363 88.5828Z" fill="#4D4D4D"/>
</g>
<defs>
<clipPath id="clip0_3093_24465">
<rect width="101.2" height="101.2" fill="white" transform="matrix(-1 0 0 1 101.528 0.739258)"/>
</clipPath>
<clipPath id="clip1_3093_24465">
<rect width="101.2" height="101.2" fill="white" transform="translate(237.929 0.739258)"/>
</clipPath>
</defs>
</svg>
