<svg width="8" height="3" viewBox="0 0 8 3" fill="none" xmlns="http://www.w3.org/2000/svg">
<path d="M0.515625 1.35938C0.765625 1.06771 1.04427 0.846354 1.35156 0.695312C1.65885 0.544271 1.98438 0.46875 2.32812 0.46875C2.58854 0.46875 2.84375 0.507812 3.09375 0.585938C3.34375 0.658854 3.66667 0.770833 4.0625 0.921875C4.42188 1.07292 4.72656 1.1875 4.97656 1.26562C5.23177 1.33854 5.48438 1.375 5.73438 1.375C6.08333 1.375 6.40885 1.29167 6.71094 1.125C7.01302 0.958333 7.28125 0.713542 7.51562 0.390625V1.6875C7 2.28125 6.39583 2.57812 5.70312 2.57812C5.44271 2.57812 5.1875 2.54167 4.9375 2.46875C4.6875 2.39062 4.36458 2.27604 3.96875 2.125C3.60938 1.97396 3.30208 1.86198 3.04688 1.78906C2.79688 1.71094 2.54167 1.67188 2.28125 1.67188C1.9375 1.67188 1.61458 1.75521 1.3125 1.92188C1.01562 2.08854 0.75 2.33333 0.515625 2.65625V1.35938Z" fill="white"/>
</svg>
