<svg width="283" height="148" viewBox="0 0 283 148" fill="none" xmlns="http://www.w3.org/2000/svg">
<g clip-path="url(#clip0_3093_23371)">
<path d="M98.9665 118.331H92.5816V135.688C92.1285 135.952 91.8357 136.174 91.8357 136.174C91.8357 136.174 86.2385 140.753 88.5108 143.018C90.7832 145.283 98.7016 140.649 98.9386 138.495C98.9735 138.203 98.9735 137.939 98.9525 137.682H98.9665V118.338V118.331Z" fill="black"/>
<mask id="mask0_3093_23371" style="mask-type:luminance" maskUnits="userSpaceOnUse" x="87" y="118" width="12" height="26">
<path d="M98.9665 118.331H92.5816V135.688C92.1285 135.952 91.8357 136.174 91.8357 136.174C91.8357 136.174 86.2385 140.753 88.5108 143.018C90.7832 145.283 98.7016 140.649 98.9386 138.495C98.9735 138.203 98.9735 137.939 98.9525 137.682H98.9665V118.338V118.331Z" fill="white"/>
</mask>
<g mask="url(#mask0_3093_23371)">
<path d="M109.331 127.023H87.967V148.32H109.331V127.023Z" fill="#00DDA8"/>
</g>
<path d="M97.1263 129.316C97.4843 129.316 97.7745 129.027 97.7745 128.67C97.7745 128.313 97.4843 128.024 97.1263 128.024C96.7683 128.024 96.478 128.313 96.478 128.67C96.478 129.027 96.7683 129.316 97.1263 129.316Z" fill="#4D4D4D"/>
<path d="M97.1263 131.22C97.4843 131.22 97.7745 130.93 97.7745 130.574C97.7745 130.217 97.4843 129.927 97.1263 129.927C96.7683 129.927 96.478 130.217 96.478 130.574C96.478 130.93 96.7683 131.22 97.1263 131.22Z" fill="#4D4D4D"/>
<path d="M112.05 118.331H105.665V135.688C105.212 135.952 104.919 136.174 104.919 136.174C104.919 136.174 99.3219 140.753 101.594 143.018C103.867 145.283 111.785 140.649 112.022 138.495C112.057 138.203 112.057 137.939 112.036 137.682H112.05V118.338V118.331Z" fill="black"/>
<mask id="mask1_3093_23371" style="mask-type:luminance" maskUnits="userSpaceOnUse" x="101" y="118" width="12" height="26">
<path d="M112.05 118.331H105.665V135.688C105.212 135.952 104.919 136.174 104.919 136.174C104.919 136.174 99.3219 140.753 101.594 143.018C103.867 145.283 111.785 140.649 112.022 138.495C112.057 138.203 112.057 137.939 112.036 137.682H112.05V118.338V118.331Z" fill="white"/>
</mask>
<g mask="url(#mask1_3093_23371)">
<path d="M122.408 127.023H101.044V148.32H122.408V127.023Z" fill="#00DDA8"/>
</g>
<path d="M110.21 129.316C110.568 129.316 110.858 129.027 110.858 128.67C110.858 128.313 110.568 128.024 110.21 128.024C109.852 128.024 109.562 128.313 109.562 128.67C109.562 129.027 109.852 129.316 110.21 129.316Z" fill="#4D4D4D"/>
<path d="M110.21 131.22C110.568 131.22 110.858 130.93 110.858 130.574C110.858 130.217 110.568 129.927 110.21 129.927C109.852 129.927 109.562 130.217 109.562 130.574C109.562 130.93 109.852 131.22 110.21 131.22Z" fill="#4D4D4D"/>
<path d="M101.775 53.2452L77.0234 132.609L133.045 110.562V85.5759L101.775 53.2452Z" fill="#D968D3"/>
<path d="M91.745 71.7835C103.417 71.7835 112.879 62.3512 112.879 50.716C112.879 39.0808 103.417 29.6486 91.745 29.6486C80.0728 29.6486 70.6106 39.0808 70.6106 50.716C70.6106 62.3512 80.0728 71.7835 91.745 71.7835Z" fill="#00DDA8"/>
<path d="M80.6479 32.7823L122.324 0L112.726 53.2453L80.6479 32.7823Z" fill="#00DDA8"/>
<path d="M91.7451 67.6144C101.107 67.6144 108.697 60.0488 108.697 50.716C108.697 41.3833 101.107 33.8176 91.7451 33.8176C82.3827 33.8176 74.793 41.3833 74.793 50.716C74.793 60.0488 82.3827 67.6144 91.7451 67.6144Z" fill="#D968D3"/>
<mask id="mask2_3093_23371" style="mask-type:luminance" maskUnits="userSpaceOnUse" x="74" y="33" width="35" height="35">
<path d="M91.7451 67.6144C101.107 67.6144 108.697 60.0488 108.697 50.716C108.697 41.3833 101.107 33.8176 91.7451 33.8176C82.3827 33.8176 74.793 41.3833 74.793 50.716C74.793 60.0488 82.3827 67.6144 91.7451 67.6144Z" fill="white"/>
</mask>
<g mask="url(#mask2_3093_23371)">
<path d="M106.481 38.0283L98.9106 32.9838L82.3349 34.1303L74.9671 42.4475L73.0642 42.4683C73.0642 42.4683 75.3366 54.5863 81.5681 43.7955C82.3837 46.5818 84.7815 52.1265 89.5633 44.1012C90.4694 46.9987 92.93 51.9876 97.6699 43.7538H97.6838C98.5412 46.7068 101.204 52.9326 106.655 42.3572L106.481 38.0214V38.0283Z" fill="black"/>
</g>
<path d="M77.0233 54.7044C77.0233 54.7044 78.4035 51.2511 81.3171 51.2511C84.2308 51.2511 85.5482 54.7044 85.5482 54.7044C85.5482 54.7044 84.7814 58.2759 81.2823 58.2759C77.7831 58.2759 77.0164 54.7044 77.0164 54.7044H77.0233Z" fill="white"/>
<mask id="mask3_3093_23371" style="mask-type:luminance" maskUnits="userSpaceOnUse" x="77" y="51" width="9" height="8">
<path d="M77.0233 54.7044C77.0233 54.7044 78.4035 51.2511 81.3171 51.2511C84.2308 51.2511 85.5482 54.7044 85.5482 54.7044C85.5482 54.7044 84.7814 58.2759 81.2823 58.2759C77.7831 58.2759 77.0164 54.7044 77.0164 54.7044H77.0233Z" fill="white"/>
</mask>
<g mask="url(#mask3_3093_23371)">
<path d="M81.7006 61.2984C80.8223 54.6002 81.7006 48.4787 81.7006 48.4787L76.3821 51.668L75.8872 56.2748L81.7006 61.2984Z" fill="black"/>
</g>
<path d="M87.4791 54.7044C87.4791 54.7044 88.8593 51.2511 91.7729 51.2511C94.6866 51.2511 96.004 54.7044 96.004 54.7044C96.004 54.7044 95.2372 58.2759 91.7381 58.2759C88.2389 58.2759 87.4722 54.7044 87.4722 54.7044H87.4791Z" fill="white"/>
<mask id="mask4_3093_23371" style="mask-type:luminance" maskUnits="userSpaceOnUse" x="87" y="51" width="10" height="8">
<path d="M87.4791 54.7044C87.4791 54.7044 88.8593 51.2511 91.7729 51.2511C94.6866 51.2511 96.004 54.7044 96.004 54.7044C96.004 54.7044 95.2372 58.2759 91.7381 58.2759C88.2389 58.2759 87.4722 54.7044 87.4722 54.7044H87.4791Z" fill="white"/>
</mask>
<g mask="url(#mask4_3093_23371)">
<path d="M92.1564 61.2984C91.2781 54.6002 92.1564 48.4787 92.1564 48.4787L86.8379 51.668L86.343 56.2748L92.1564 61.2984Z" fill="black"/>
</g>
<path d="M86.4126 59.7698C87.8601 59.7698 89.0335 58.6001 89.0335 57.1572C89.0335 55.7143 87.8601 54.5446 86.4126 54.5446C84.9652 54.5446 83.7917 55.7143 83.7917 57.1572C83.7917 58.6001 84.9652 59.7698 86.4126 59.7698Z" fill="#00DDA8"/>
<path d="M82.9832 105.615C84.1542 105.414 95.5787 103.357 96.227 98.347C96.4291 96.7698 95.6694 94.1502 94.4983 93.9487C93.6828 93.8098 92.5466 94.8173 92.6721 95.4774C92.9579 96.9365 99.5589 97.687 105.149 96.0541C110.628 94.449 116.33 90.1897 115.709 87.5424C115.396 86.2013 113.402 85.0687 112.252 85.5343C111.22 85.9512 110.565 87.7647 111.102 88.8834C112.371 91.5238 121.042 91.9407 125.977 87.5424C128.228 85.5412 129.134 83.0398 129.525 81.6085" stroke="white" stroke-miterlimit="10"/>
<path d="M84.5237 61.3332C84.6213 63.369 86.3918 64.592 87.6534 64.321C88.8314 64.0708 89.877 62.4588 89.4169 60.6661" stroke="white" stroke-miterlimit="10" stroke-linecap="round"/>
<path d="M162.83 118.331H156.445V135.688C155.992 135.952 155.699 136.174 155.699 136.174C155.699 136.174 150.101 140.753 152.374 143.018C154.646 145.283 162.565 140.649 162.802 138.495C162.836 138.203 162.836 137.939 162.816 137.682H162.83V118.338V118.331Z" fill="#00DDA8"/>
<mask id="mask5_3093_23371" style="mask-type:luminance" maskUnits="userSpaceOnUse" x="151" y="118" width="12" height="26">
<path d="M162.83 118.331H156.445V135.688C155.992 135.952 155.699 136.174 155.699 136.174C155.699 136.174 150.101 140.753 152.374 143.018C154.646 145.283 162.565 140.649 162.802 138.495C162.836 138.203 162.836 137.939 162.816 137.682H162.83V118.338V118.331Z" fill="white"/>
</mask>
<g mask="url(#mask5_3093_23371)">
<path d="M173.194 127.023H151.83V148.32H173.194V127.023Z" fill="black"/>
</g>
<path d="M160.996 129.316C161.354 129.316 161.645 129.027 161.645 128.67C161.645 128.313 161.354 128.024 160.996 128.024C160.638 128.024 160.348 128.313 160.348 128.67C160.348 129.027 160.638 129.316 160.996 129.316Z" fill="#4D4D4D"/>
<path d="M160.996 131.22C161.354 131.22 161.645 130.93 161.645 130.574C161.645 130.217 161.354 129.927 160.996 129.927C160.638 129.927 160.348 130.217 160.348 130.574C160.348 130.93 160.638 131.22 160.996 131.22Z" fill="#4D4D4D"/>
<path d="M175.746 118.331H169.361V135.688C168.908 135.952 168.615 136.174 168.615 136.174C168.615 136.174 163.018 140.753 165.29 143.018C167.562 145.283 175.481 140.649 175.718 138.495C175.753 138.203 175.753 137.939 175.732 137.682H175.746V118.338V118.331Z" fill="#00DDA8"/>
<mask id="mask6_3093_23371" style="mask-type:luminance" maskUnits="userSpaceOnUse" x="164" y="118" width="12" height="26">
<path d="M175.746 118.331H169.361V135.688C168.908 135.952 168.615 136.174 168.615 136.174C168.615 136.174 163.018 140.753 165.29 143.018C167.562 145.283 175.481 140.649 175.718 138.495C175.753 138.203 175.753 137.939 175.732 137.682H175.746V118.338V118.331Z" fill="white"/>
</mask>
<g mask="url(#mask6_3093_23371)">
<path d="M186.111 127.023H164.746V148.32H186.111V127.023Z" fill="black"/>
</g>
<path d="M173.906 129.316C174.264 129.316 174.554 129.027 174.554 128.67C174.554 128.313 174.264 128.024 173.906 128.024C173.548 128.024 173.257 128.313 173.257 128.67C173.257 129.027 173.548 129.316 173.906 129.316Z" fill="#4D4D4D"/>
<path d="M173.906 131.22C174.264 131.22 174.554 130.93 174.554 130.574C174.554 130.217 174.264 129.927 173.906 129.927C173.548 129.927 173.257 130.217 173.257 130.574C173.257 130.93 173.548 131.22 173.906 131.22Z" fill="#4D4D4D"/>
<path d="M148.519 68.1773L149.188 128.017L181.803 119.303L193.75 91.5724L148.526 68.1703L148.519 68.1773Z" fill="#508FFF"/>
<path d="M152.158 77.3491L173.174 45.2686L198.518 61.0274L193.311 76.96L152.158 77.3491Z" fill="#508FFF"/>
<path d="M183.797 66.5272L169.611 60.3665L168.483 62.9464L182.67 69.1071L183.797 66.5272Z" fill="white"/>
<path d="M176.116 100.183L161.929 94.0227L160.802 96.6026L174.989 102.763L176.116 100.183Z" fill="white"/>
<path d="M211.428 24.2776L158.668 30.1351C151.586 30.1073 144.651 33.6301 140.629 40.0573C134.453 49.9309 137.478 62.9243 147.39 69.0736C156.57 74.7782 168.427 72.5965 175.035 64.3974L211.428 24.2776Z" fill="#00DDA8"/>
<path d="M157.56 68.1982C166.922 68.1982 174.512 60.6325 174.512 51.2998C174.512 41.967 166.922 34.4014 157.56 34.4014C148.198 34.4014 140.608 41.967 140.608 51.2998C140.608 60.6325 148.198 68.1982 157.56 68.1982Z" fill="#508FFF"/>
<mask id="mask7_3093_23371" style="mask-type:luminance" maskUnits="userSpaceOnUse" x="140" y="34" width="35" height="35">
<path d="M157.56 68.1982C166.922 68.1982 174.512 60.6325 174.512 51.2998C174.512 41.967 166.922 34.4014 157.56 34.4014C148.198 34.4014 140.608 41.967 140.608 51.2998C140.608 60.6325 148.198 68.1982 157.56 68.1982Z" fill="white"/>
</mask>
<g mask="url(#mask7_3093_23371)">
<path d="M174.303 41.3914L167.744 35.0962L151.224 33.3105L142.497 40.2033L140.622 39.8906C140.622 39.8906 140.719 52.217 148.756 42.6908C149.07 45.5743 150.45 51.4596 156.57 44.4001C156.954 47.4157 158.487 52.7589 164.607 45.484H164.621C164.942 48.5413 166.468 55.1422 173.697 45.6855L174.296 41.3914H174.303Z" fill="black"/>
</g>
<path d="M146.463 56.4832C148.823 56.4832 150.736 54.5763 150.736 52.2239C150.736 49.8715 148.823 47.9645 146.463 47.9645C144.103 47.9645 142.19 49.8715 142.19 52.2239C142.19 54.5763 144.103 56.4832 146.463 56.4832Z" fill="white"/>
<path d="M146.463 53.6483C147.252 53.6483 147.892 53.0105 147.892 52.2239C147.892 51.4372 147.252 50.7994 146.463 50.7994C145.674 50.7994 145.034 51.4372 145.034 52.2239C145.034 53.0105 145.674 53.6483 146.463 53.6483Z" fill="black"/>
<path d="M156.612 58.2968C158.972 58.2968 160.885 56.3898 160.885 54.0374C160.885 51.685 158.972 49.7781 156.612 49.7781C154.252 49.7781 152.339 51.685 152.339 54.0374C152.339 56.3898 154.252 58.2968 156.612 58.2968Z" fill="white"/>
<path d="M156.612 55.4618C157.401 55.4618 158.041 54.8241 158.041 54.0374C158.041 53.2507 157.401 52.613 156.612 52.613C155.823 52.613 155.183 53.2507 155.183 54.0374C155.183 54.8241 155.823 55.4618 156.612 55.4618Z" fill="black"/>
<path d="M151.168 59.3112C152.615 59.3112 153.789 58.1415 153.789 56.6986C153.789 55.2558 152.615 54.0861 151.168 54.0861C149.721 54.0861 148.547 55.2558 148.547 56.6986C148.547 58.1415 149.721 59.3112 151.168 59.3112Z" fill="#00DDA8"/>
<path d="M247.43 51.9112H253.815V34.5542C254.268 34.2901 254.561 34.0678 254.561 34.0678C254.561 34.0678 260.158 29.4888 257.885 27.2236C255.613 24.9585 247.695 29.593 247.458 31.747C247.423 32.0389 247.423 32.3029 247.444 32.56H247.43V51.9042V51.9112Z" fill="#00DDA8"/>
<mask id="mask8_3093_23371" style="mask-type:luminance" maskUnits="userSpaceOnUse" x="247" y="26" width="12" height="26">
<path d="M247.43 51.9112H253.815V34.5542C254.268 34.2901 254.561 34.0678 254.561 34.0678C254.561 34.0678 260.158 29.4888 257.885 27.2236C255.613 24.9585 247.695 29.593 247.458 31.747C247.423 32.0389 247.423 32.3029 247.444 32.56H247.43V51.9042V51.9112Z" fill="white"/>
</mask>
<g mask="url(#mask8_3093_23371)">
<path d="M237.065 43.2188H258.429V21.922L237.065 21.922V43.2188Z" fill="black"/>
</g>
<path d="M249.27 42.2182C249.628 42.2182 249.918 41.9289 249.918 41.572C249.918 41.2151 249.628 40.9258 249.27 40.9258C248.912 40.9258 248.622 41.2151 248.622 41.572C248.622 41.9289 248.912 42.2182 249.27 42.2182Z" fill="#4D4D4D"/>
<path d="M249.27 40.3144C249.628 40.3144 249.918 40.0251 249.918 39.6682C249.918 39.3113 249.628 39.022 249.27 39.022C248.912 39.022 248.622 39.3113 248.622 39.6682C248.622 40.0251 248.912 40.3144 249.27 40.3144Z" fill="#4D4D4D"/>
<path d="M217.178 57.4282L203.906 87.5562L221.597 116.218L226.755 96.3807L267.302 98.5833L257.718 75.07L229.704 82.4214V70.6648L268.773 75.077L263.615 44.9489L217.171 57.4421L217.178 57.4282Z" fill="#FF5858"/>
<path d="M183.051 99.0697L221.179 135.889C225.668 141.35 232.806 144.436 240.341 143.428C251.912 141.885 260.032 131.282 258.485 119.755C257.049 109.068 247.813 101.342 237.26 101.488L183.051 99.0697Z" fill="#00DDA8"/>
<path d="M237.818 139.301C247.18 139.301 254.77 131.735 254.77 122.402C254.77 113.069 247.18 105.504 237.818 105.504C228.455 105.504 220.865 113.069 220.865 122.402C220.865 131.735 228.455 139.301 237.818 139.301Z" fill="#FF5858"/>
<mask id="mask9_3093_23371" style="mask-type:luminance" maskUnits="userSpaceOnUse" x="220" y="105" width="35" height="35">
<path d="M237.818 139.301C247.18 139.301 254.77 131.735 254.77 122.402C254.77 113.069 247.18 105.504 237.818 105.504C228.455 105.504 220.865 113.069 220.865 122.402C220.865 131.735 228.455 139.301 237.818 139.301Z" fill="white"/>
</mask>
<g mask="url(#mask9_3093_23371)">
<path d="M223.082 135.09L230.652 140.134L247.228 138.988L254.595 130.671L256.498 130.65C256.498 130.65 254.226 118.532 247.994 129.323C247.179 126.536 244.781 120.992 239.999 129.017C239.093 126.12 236.633 121.131 231.893 129.364H231.879C231.021 126.411 228.359 120.186 222.908 130.761L223.082 135.097V135.09Z" fill="black"/>
</g>
<path d="M246.6 114.46C244.342 115.885 245.137 119.491 245.227 119.88C245.297 120.172 246.161 123.653 248.503 123.931C250.588 124.181 252.574 121.735 252.888 119.456C253.097 117.941 252.658 115.787 250.88 114.669C249.73 113.939 247.953 113.606 246.6 114.46Z" fill="white"/>
<mask id="mask10_3093_23371" style="mask-type:luminance" maskUnits="userSpaceOnUse" x="245" y="113" width="8" height="11">
<path d="M246.6 114.46C244.342 115.885 245.137 119.491 245.227 119.88C245.297 120.172 246.161 123.653 248.503 123.931C250.588 124.181 252.574 121.735 252.888 119.456C253.097 117.941 252.658 115.787 250.88 114.669C249.73 113.939 247.953 113.606 246.6 114.46Z" fill="white"/>
</mask>
<g mask="url(#mask10_3093_23371)">
<path d="M253.139 120.54C253.229 119.213 252.449 117.455 250.95 117.184C249.444 116.913 248.155 118.317 247.723 119.505C247.109 121.179 247.82 123.417 249.228 123.868C250.797 124.369 252.999 122.569 253.139 120.54Z" fill="black"/>
</g>
<path d="M235.838 114.46C233.58 115.885 234.374 119.491 234.465 119.88C234.535 120.172 235.399 123.653 237.741 123.931C239.825 124.181 241.812 121.735 242.125 119.456C242.334 117.941 241.895 115.787 240.118 114.669C238.968 113.939 237.19 113.606 235.838 114.46Z" fill="white"/>
<mask id="mask11_3093_23371" style="mask-type:luminance" maskUnits="userSpaceOnUse" x="234" y="113" width="9" height="11">
<path d="M235.838 114.46C233.58 115.885 234.374 119.491 234.465 119.88C234.535 120.172 235.399 123.653 237.741 123.931C239.825 124.181 241.812 121.735 242.125 119.456C242.334 117.941 241.895 115.787 240.118 114.669C238.968 113.939 237.19 113.606 235.838 114.46Z" fill="white"/>
</mask>
<g mask="url(#mask11_3093_23371)">
<path d="M242.376 120.54C242.467 119.213 241.686 117.455 240.187 117.184C238.682 116.913 237.392 118.317 236.96 119.505C236.347 121.179 237.058 123.417 238.466 123.868C240.034 124.369 242.237 122.569 242.376 120.54Z" fill="black"/>
</g>
<path d="M243.708 118.615C245.155 118.615 246.328 117.446 246.328 116.003C246.328 114.56 245.155 113.39 243.708 113.39C242.26 113.39 241.087 114.56 241.087 116.003C241.087 117.446 242.26 118.615 243.708 118.615Z" fill="#00DDA8"/>
<path d="M211.623 73.4094V76.7168" stroke="white" stroke-miterlimit="10"/>
<path d="M215.366 77.1407V80.4481" stroke="white" stroke-miterlimit="10"/>
<path d="M219.116 80.8789V84.1863" stroke="white" stroke-miterlimit="10"/>
<path d="M222.859 84.6102V87.9176" stroke="white" stroke-miterlimit="10"/>
<path d="M226.602 88.3414V91.6488" stroke="white" stroke-miterlimit="10"/>
<path d="M211.623 65.2659V68.5733" stroke="white" stroke-miterlimit="10"/>
<path d="M215.366 69.0042V72.3116" stroke="white" stroke-miterlimit="10"/>
<path d="M219.116 72.7354V76.0428" stroke="white" stroke-miterlimit="10"/>
<path d="M222.859 76.4667V79.7741" stroke="white" stroke-miterlimit="10"/>
<path d="M226.602 80.1979V83.5054" stroke="white" stroke-miterlimit="10"/>
<path d="M215.366 60.8607V64.1681" stroke="white" stroke-miterlimit="10"/>
<path d="M219.116 64.5919V67.8993" stroke="white" stroke-miterlimit="10"/>
<path d="M211.623 98.1385V100.348" stroke="white" stroke-miterlimit="10"/>
<path d="M211.623 89.9951V93.3025" stroke="white" stroke-miterlimit="10"/>
<path d="M215.366 93.7264V97.0339" stroke="white" stroke-miterlimit="10"/>
<path d="M219.116 97.4646V100.772" stroke="white" stroke-miterlimit="10"/>
<path d="M211.623 81.8516V85.159" stroke="white" stroke-miterlimit="10"/>
<path d="M215.366 85.5898V88.8973" stroke="white" stroke-miterlimit="10"/>
<path d="M219.116 89.3212V92.6286" stroke="white" stroke-miterlimit="10"/>
<path d="M222.859 68.3232V71.6306" stroke="white" stroke-miterlimit="10"/>
<path d="M226.602 72.0614V75.3688" stroke="white" stroke-miterlimit="10"/>
<path d="M257.774 56.7263L262.033 61.4721L275.005 49.8892C275.507 50.049 275.862 50.1185 275.862 50.1185C275.862 50.1185 283.014 51.2163 283.195 48.0201C283.369 44.8238 274.621 42.0306 272.858 43.2952C272.621 43.4689 272.419 43.6426 272.245 43.8233V43.8094L257.781 56.7194L257.774 56.7263Z" fill="#00DDA8"/>
<mask id="mask12_3093_23371" style="mask-type:luminance" maskUnits="userSpaceOnUse" x="257" y="42" width="27" height="20">
<path d="M257.774 56.7263L262.033 61.4721L275.005 49.8892C275.507 50.049 275.862 50.1185 275.862 50.1185C275.862 50.1185 283.014 51.2163 283.195 48.0201C283.369 44.8238 274.621 42.0306 272.858 43.2952C272.621 43.4689 272.419 43.6426 272.245 43.8233V43.8094L257.781 56.7194L257.774 56.7263Z" fill="white"/>
</mask>
<g mask="url(#mask12_3093_23371)">
<path d="M257.368 43.2152L271.622 59.079L287.536 44.8702L273.282 29.0064L257.368 43.2152Z" fill="black"/>
</g>
<path d="M266.724 51.8347C267.082 51.8347 267.372 51.5454 267.372 51.1885C267.372 50.8316 267.082 50.5423 266.724 50.5423C266.366 50.5423 266.076 50.8316 266.076 51.1885C266.076 51.5454 266.366 51.8347 266.724 51.8347Z" fill="#4D4D4D"/>
<path d="M268.146 50.5631C268.504 50.5631 268.794 50.2738 268.794 49.9169C268.794 49.5601 268.504 49.2708 268.146 49.2708C267.788 49.2708 267.498 49.5601 267.498 49.9169C267.498 50.2738 267.788 50.5631 268.146 50.5631Z" fill="#4D4D4D"/>
<path d="M26.2785 117.719H19.8936V135.076C19.4405 135.34 19.1477 135.563 19.1477 135.563C19.1477 135.563 13.5505 140.141 15.8228 142.407C18.0952 144.672 26.0136 140.037 26.2506 137.883C26.2855 137.591 26.2855 137.327 26.2646 137.07H26.2785V117.726V117.719Z" fill="black"/>
<mask id="mask13_3093_23371" style="mask-type:luminance" maskUnits="userSpaceOnUse" x="15" y="117" width="12" height="27">
<path d="M26.2785 117.719H19.8936V135.076C19.4405 135.34 19.1477 135.563 19.1477 135.563C19.1477 135.563 13.5505 140.141 15.8228 142.407C18.0952 144.672 26.0136 140.037 26.2506 137.883C26.2855 137.591 26.2855 137.327 26.2646 137.07H26.2785V117.726V117.719Z" fill="white"/>
</mask>
<g mask="url(#mask13_3093_23371)">
<path d="M36.6435 126.418H15.2791V147.715H36.6435V126.418Z" fill="#00DDA8"/>
</g>
<path d="M24.4454 128.711C24.8034 128.711 25.0936 128.422 25.0936 128.065C25.0936 127.708 24.8034 127.419 24.4454 127.419C24.0874 127.419 23.7971 127.708 23.7971 128.065C23.7971 128.422 24.0874 128.711 24.4454 128.711Z" fill="#4D4D4D"/>
<path d="M24.4454 130.615C24.8034 130.615 25.0936 130.326 25.0936 129.969C25.0936 129.612 24.8034 129.323 24.4454 129.323C24.0874 129.323 23.7971 129.612 23.7971 129.969C23.7971 130.326 24.0874 130.615 24.4454 130.615Z" fill="#4D4D4D"/>
<path d="M39.362 117.719H32.9771V135.076C32.524 135.34 32.2312 135.563 32.2312 135.563C32.2312 135.563 26.634 140.141 28.9063 142.407C31.1787 144.672 39.0971 140.037 39.3341 137.883C39.369 137.591 39.369 137.327 39.348 137.07H39.362V117.726V117.719Z" fill="black"/>
<mask id="mask14_3093_23371" style="mask-type:luminance" maskUnits="userSpaceOnUse" x="28" y="117" width="12" height="27">
<path d="M39.362 117.719H32.9771V135.076C32.524 135.34 32.2312 135.563 32.2312 135.563C32.2312 135.563 26.634 140.141 28.9063 142.407C31.1787 144.672 39.0971 140.037 39.3341 137.883C39.369 137.591 39.369 137.327 39.348 137.07H39.362V117.726V117.719Z" fill="white"/>
</mask>
<g mask="url(#mask14_3093_23371)">
<path d="M49.727 126.418H28.3625V147.715H49.727V126.418Z" fill="#00DDA8"/>
</g>
<path d="M37.5289 128.711C37.8869 128.711 38.1771 128.422 38.1771 128.065C38.1771 127.708 37.8869 127.419 37.5289 127.419C37.1708 127.419 36.8806 127.708 36.8806 128.065C36.8806 128.422 37.1708 128.711 37.5289 128.711Z" fill="#4D4D4D"/>
<path d="M37.5289 130.615C37.8869 130.615 38.1771 130.326 38.1771 129.969C38.1771 129.612 37.8869 129.323 37.5289 129.323C37.1708 129.323 36.8806 129.612 36.8806 129.969C36.8806 130.326 37.1708 130.615 37.5289 130.615Z" fill="#4D4D4D"/>
<path d="M67.7248 55.2881L57.1437 101.703L8.46212 97.4855L19.1269 100.772L42.6033 117.726L17.7677 123.959L8.46212 97.4924H6.3431L0 78.4956L67.7248 55.2881Z" fill="#6F50CB"/>
<path d="M46.1373 60.5619L70.4642 20.588L24.4732 29.8988C21.9359 30.2115 19.4545 30.948 17.2518 32.2335C11.55 35.5478 7.43743 41.4887 6.82403 48.715C5.96666 58.7831 12.6165 68.1912 22.4099 70.7829C29.464 72.6451 36.4833 70.7829 41.5438 66.5167C43.4816 64.8838 45.0011 62.8201 46.1443 60.5619H46.1373Z" fill="#00DDA8"/>
<path d="M26.8501 67.6979C36.2125 67.6979 43.8022 60.1322 43.8022 50.7995C43.8022 41.4667 36.2125 33.9011 26.8501 33.9011C17.4877 33.9011 9.89795 41.4667 9.89795 50.7995C9.89795 60.1322 17.4877 67.6979 26.8501 67.6979Z" fill="#6F50CB"/>
<mask id="mask15_3093_23371" style="mask-type:luminance" maskUnits="userSpaceOnUse" x="9" y="33" width="35" height="35">
<path d="M26.8501 67.6979C36.2125 67.6979 43.8022 60.1322 43.8022 50.7995C43.8022 41.4667 36.2125 33.9011 26.8501 33.9011C17.4877 33.9011 9.89795 41.4667 9.89795 50.7995C9.89795 60.1322 17.4877 67.6979 26.8501 67.6979Z" fill="white"/>
</mask>
<g mask="url(#mask15_3093_23371)">
<path d="M41.5855 38.1048L34.0156 33.0603L17.4399 34.2068L10.0721 42.524L8.16919 42.5448C8.16919 42.5448 10.4416 54.6627 16.6731 43.8719C17.4887 46.6582 19.8865 52.203 24.6682 44.1777C25.5744 47.0751 28.035 52.0641 32.7749 43.8303H32.7888C33.6462 46.7833 36.3089 53.009 41.7598 42.4336L41.5855 38.0979V38.1048Z" fill="black"/>
</g>
<path d="M16.06 49.3334H15.6836C13.9859 49.3334 12.6096 50.7053 12.6096 52.3976V55.1353C12.6096 56.8276 13.9859 58.1995 15.6836 58.1995H16.06C17.7577 58.1995 19.134 56.8276 19.134 55.1353V52.3976C19.134 50.7053 17.7577 49.3334 16.06 49.3334Z" fill="white"/>
<path d="M17.8396 53.7613L15.1731 51.1032L12.5066 53.7613L15.1731 56.4193L17.8396 53.7613Z" fill="black"/>
<path d="M25.414 49.3334H25.0376C23.3399 49.3334 21.9636 50.7053 21.9636 52.3976V55.1353C21.9636 56.8276 23.3399 58.1995 25.0376 58.1995H25.414C27.1117 58.1995 28.488 56.8276 28.488 55.1353V52.3976C28.488 50.7053 27.1117 49.3334 25.414 49.3334Z" fill="white"/>
<path d="M27.1934 53.7608L24.5269 51.1028L21.8603 53.7608L24.5269 56.4189L27.1934 53.7608Z" fill="black"/>
<path d="M20.3885 59.7698C21.8359 59.7698 23.0094 58.6001 23.0094 57.1572C23.0094 55.7143 21.8359 54.5446 20.3885 54.5446C18.941 54.5446 17.7676 55.7143 17.7676 57.1572C17.7676 58.6001 18.941 59.7698 20.3885 59.7698Z" fill="#00DDA8"/>
<path d="M41.676 88.3282L21.5259 76.7314L20.3932 78.6871L40.5433 90.2839L41.676 88.3282Z" fill="white"/>
</g>
<defs>
<clipPath id="clip0_3093_23371">
<rect width="283" height="148" fill="white"/>
</clipPath>
</defs>
</svg>
