<svg width="215" height="148" viewBox="0 0 215 148" fill="none" xmlns="http://www.w3.org/2000/svg">
<g clip-path="url(#clip0_1691_14053)">
<path d="M29.2066 119.111H22.8537V136.436C22.4029 136.7 22.1116 136.922 22.1116 136.922C22.1116 136.922 16.5424 141.492 18.8034 143.753C21.0643 146.014 28.9431 141.388 29.1789 139.238C29.2135 138.947 29.2135 138.683 29.1927 138.427H29.2066V119.118V119.111Z" fill="#171717"/>
<mask id="mask0_1691_14053" style="mask-type:luminance" maskUnits="userSpaceOnUse" x="18" y="119" width="12" height="26">
<path d="M29.2066 119.111H22.8537V136.436C22.4029 136.7 22.1116 136.922 22.1116 136.922C22.1116 136.922 16.5424 141.492 18.8034 143.753C21.0643 146.014 28.9431 141.388 29.1789 139.238C29.2135 138.947 29.2135 138.683 29.1927 138.427H29.2066V119.118V119.111Z" fill="white"/>
</mask>
<g mask="url(#mask0_1691_14053)">
<path d="M39.5197 127.788H18.2625V149.045H39.5197V127.788Z" fill="#00DDA8"/>
</g>
<path d="M27.3825 130.076C27.7388 130.076 28.0275 129.787 28.0275 129.431C28.0275 129.075 27.7388 128.786 27.3825 128.786C27.0263 128.786 26.7375 129.075 26.7375 129.431C26.7375 129.787 27.0263 130.076 27.3825 130.076Z" fill="#4D4D4D"/>
<path d="M27.3825 131.977C27.7388 131.977 28.0275 131.688 28.0275 131.332C28.0275 130.975 27.7388 130.687 27.3825 130.687C27.0263 130.687 26.7375 130.975 26.7375 131.332C26.7375 131.688 27.0263 131.977 27.3825 131.977Z" fill="#4D4D4D"/>
<path d="M42.2246 119.111H35.8716V136.436C35.4208 136.7 35.1296 136.922 35.1296 136.922C35.1296 136.922 29.5604 141.492 31.8213 143.753C34.0823 146.014 41.961 141.388 42.1968 139.238C42.2315 138.947 42.2315 138.683 42.2107 138.427H42.2246V119.118V119.111Z" fill="#171717"/>
<mask id="mask1_1691_14053" style="mask-type:luminance" maskUnits="userSpaceOnUse" x="31" y="119" width="12" height="26">
<path d="M42.2246 119.111H35.8716V136.436C35.4208 136.7 35.1296 136.922 35.1296 136.922C35.1296 136.922 29.5604 141.492 31.8213 143.753C34.0823 146.014 41.961 141.388 42.1968 139.238C42.2315 138.947 42.2315 138.683 42.2107 138.427H42.2246V119.118V119.111Z" fill="white"/>
</mask>
<g mask="url(#mask1_1691_14053)">
<path d="M52.5377 127.788H31.2804V149.045H52.5377V127.788Z" fill="#00DDA8"/>
</g>
<path d="M40.4006 130.076C40.7568 130.076 41.0456 129.787 41.0456 129.431C41.0456 129.075 40.7568 128.786 40.4006 128.786C40.0444 128.786 39.7556 129.075 39.7556 129.431C39.7556 129.787 40.0444 130.076 40.4006 130.076Z" fill="#4D4D4D"/>
<path d="M40.4006 131.977C40.7568 131.977 41.0456 131.688 41.0456 131.332C41.0456 130.975 40.7568 130.687 40.4006 130.687C40.0444 130.687 39.7556 130.975 39.7556 131.332C39.7556 131.688 40.0444 131.977 40.4006 131.977Z" fill="#4D4D4D"/>
<path d="M32.0085 54.1466L7.38062 133.357L63.1211 111.35V86.4105L32.0085 54.1396V54.1466Z" fill="#D968D3"/>
<path d="M22.0284 72.6505C33.642 72.6505 43.0568 63.2358 43.0568 51.6221C43.0568 40.0085 33.642 30.5938 22.0284 30.5938C10.4147 30.5938 1 40.0085 1 51.6221C1 63.2358 10.4147 72.6505 22.0284 72.6505Z" fill="#00DDA8"/>
<path d="M10.9871 33.7216L52.4474 1L42.9042 54.1466L10.9871 33.7216Z" fill="#00DDA8"/>
<path d="M22.0284 68.4892C31.3438 68.4892 38.8954 60.9375 38.8954 51.6221C38.8954 42.3067 31.3438 34.755 22.0284 34.755C12.7129 34.755 5.16125 42.3067 5.16125 51.6221C5.16125 60.9375 12.7129 68.4892 22.0284 68.4892Z" fill="#D968D3"/>
<mask id="mask2_1691_14053" style="mask-type:luminance" maskUnits="userSpaceOnUse" x="5" y="34" width="34" height="35">
<path d="M22.0284 68.4892C31.3438 68.4892 38.8954 60.9375 38.8954 51.6221C38.8954 42.3067 31.3438 34.755 22.0284 34.755C12.7129 34.755 5.16125 42.3067 5.16125 51.6221C5.16125 60.9375 12.7129 68.4892 22.0284 68.4892Z" fill="white"/>
</mask>
<g mask="url(#mask2_1691_14053)">
<path d="M36.6829 38.958L29.151 33.9228L12.6584 35.0671L5.32759 43.3689L3.4342 43.3897C3.4342 43.3897 5.69517 55.4852 11.8955 44.7144C12.7069 47.4955 15.0928 53.03 19.8505 45.0196C20.7521 47.9117 23.2003 52.8913 27.9165 44.6728H27.9303C28.7834 47.6204 31.4328 53.8346 36.8563 43.2788L36.6829 38.951V38.958Z" fill="#171717"/>
</g>
<path d="M7.38059 55.6031C7.38059 55.6031 8.75382 52.1561 11.6529 52.1561C14.5519 52.1561 15.8627 55.6031 15.8627 55.6031C15.8627 55.6031 15.0998 59.1679 11.6182 59.1679C8.13656 59.1679 7.37366 55.6031 7.37366 55.6031H7.38059Z" fill="white"/>
<mask id="mask3_1691_14053" style="mask-type:luminance" maskUnits="userSpaceOnUse" x="7" y="52" width="9" height="8">
<path d="M7.38059 55.6031C7.38059 55.6031 8.75382 52.1561 11.6529 52.1561C14.5519 52.1561 15.8627 55.6031 15.8627 55.6031C15.8627 55.6031 15.0998 59.1679 11.6182 59.1679C8.13656 59.1679 7.37366 55.6031 7.37366 55.6031H7.38059Z" fill="white"/>
</mask>
<g mask="url(#mask3_1691_14053)">
<path d="M12.0274 62.1848C11.1535 55.499 12.0274 49.3889 12.0274 49.3889L6.73558 52.5722L6.24316 57.1705L12.0274 62.1848Z" fill="#171717"/>
</g>
<path d="M17.7838 55.6031C17.7838 55.6031 19.157 52.1561 22.056 52.1561C24.9551 52.1561 26.2659 55.6031 26.2659 55.6031C26.2659 55.6031 25.503 59.1679 22.0214 59.1679C18.5398 59.1679 17.7769 55.6031 17.7769 55.6031H17.7838Z" fill="white"/>
<mask id="mask4_1691_14053" style="mask-type:luminance" maskUnits="userSpaceOnUse" x="17" y="52" width="10" height="8">
<path d="M17.7838 55.6031C17.7838 55.6031 19.157 52.1561 22.056 52.1561C24.9551 52.1561 26.2659 55.6031 26.2659 55.6031C26.2659 55.6031 25.503 59.1679 22.0214 59.1679C18.5398 59.1679 17.7769 55.6031 17.7769 55.6031H17.7838Z" fill="white"/>
</mask>
<g mask="url(#mask4_1691_14053)">
<path d="M22.4375 62.1848C21.5636 55.499 22.4375 49.3889 22.4375 49.3889L17.1457 52.5722L16.6533 57.1705L22.4375 62.1848Z" fill="#171717"/>
</g>
<path d="M16.7158 60.659C18.156 60.659 19.3235 59.4915 19.3235 58.0513C19.3235 56.6111 18.156 55.4435 16.7158 55.4435C15.2756 55.4435 14.108 56.6111 14.108 58.0513C14.108 59.4915 15.2756 60.659 16.7158 60.659Z" fill="#00DDA8"/>
<path d="M13.3104 106.419C14.4756 106.218 25.8428 104.165 26.4878 99.1648C26.689 97.5904 25.933 94.9758 24.7678 94.7746C23.9564 94.6359 22.8259 95.6416 22.9507 96.3004C23.2351 97.7569 29.803 98.5059 35.3653 96.8761C40.8166 95.274 46.4898 91.0225 45.8725 88.3801C45.5604 87.0416 43.5769 85.9111 42.4325 86.3758C41.4061 86.7919 40.7541 88.6021 41.2882 89.7187C42.5504 92.3542 51.1782 92.7703 56.0885 88.3801C58.3287 86.3827 59.2303 83.8859 59.6186 82.4572" stroke="white" stroke-width="0.693548" stroke-miterlimit="10"/>
<path d="M14.8431 62.2196C14.9402 64.2517 16.7019 65.4723 17.9572 65.2018C19.1293 64.9522 20.1696 63.3431 19.7118 61.5538" stroke="white" stroke-width="0.693548" stroke-miterlimit="10" stroke-linecap="round"/>
<path d="M94.4835 119.111H88.1306V136.436C87.6798 136.7 87.3885 136.922 87.3885 136.922C87.3885 136.922 81.8193 141.492 84.0802 143.753C86.3412 146.014 94.2199 141.388 94.4557 139.238C94.4904 138.947 94.4904 138.683 94.4696 138.427H94.4835V119.118V119.111Z" fill="#00DDA8"/>
<mask id="mask5_1691_14053" style="mask-type:luminance" maskUnits="userSpaceOnUse" x="83" y="119" width="12" height="26">
<path d="M94.4835 119.111H88.1306V136.436C87.6798 136.7 87.3885 136.922 87.3885 136.922C87.3885 136.922 81.8193 141.492 84.0802 143.753C86.3412 146.014 94.2199 141.388 94.4557 139.238C94.4904 138.947 94.4904 138.683 94.4696 138.427H94.4835V119.118V119.111Z" fill="white"/>
</mask>
<g mask="url(#mask5_1691_14053)">
<path d="M104.797 127.788H83.5393V149.045H104.797V127.788Z" fill="#171717"/>
</g>
<path d="M92.6594 130.076C93.0156 130.076 93.3044 129.787 93.3044 129.431C93.3044 129.075 93.0156 128.786 92.6594 128.786C92.3032 128.786 92.0144 129.075 92.0144 129.431C92.0144 129.787 92.3032 130.076 92.6594 130.076Z" fill="#4D4D4D"/>
<path d="M92.6594 131.977C93.0156 131.977 93.3044 131.688 93.3044 131.332C93.3044 130.975 93.0156 130.687 92.6594 130.687C92.3032 130.687 92.0144 130.975 92.0144 131.332C92.0144 131.688 92.3032 131.977 92.6594 131.977Z" fill="#4D4D4D"/>
<path d="M107.335 119.111H100.982V136.436C100.531 136.7 100.24 136.922 100.24 136.922C100.24 136.922 94.6708 141.492 96.9318 143.753C99.1928 146.014 107.071 141.388 107.307 139.238C107.342 138.947 107.342 138.683 107.321 138.427H107.335V119.118V119.111Z" fill="#00DDA8"/>
<mask id="mask6_1691_14053" style="mask-type:luminance" maskUnits="userSpaceOnUse" x="96" y="119" width="12" height="26">
<path d="M107.335 119.111H100.982V136.436C100.531 136.7 100.24 136.922 100.24 136.922C100.24 136.922 94.6708 141.492 96.9318 143.753C99.1928 146.014 107.071 141.388 107.307 139.238C107.342 138.947 107.342 138.683 107.321 138.427H107.335V119.118V119.111Z" fill="white"/>
</mask>
<g mask="url(#mask6_1691_14053)">
<path d="M117.648 127.788H96.391V149.045H117.648V127.788Z" fill="#171717"/>
</g>
<path d="M105.504 130.076C105.86 130.076 106.149 129.787 106.149 129.431C106.149 129.075 105.86 128.786 105.504 128.786C105.148 128.786 104.859 129.075 104.859 129.431C104.859 129.787 105.148 130.076 105.504 130.076Z" fill="#4D4D4D"/>
<path d="M105.504 131.977C105.86 131.977 106.149 131.688 106.149 131.332C106.149 130.975 105.86 130.687 105.504 130.687C105.148 130.687 104.859 130.975 104.859 131.332C104.859 131.688 105.148 131.977 105.504 131.977Z" fill="#4D4D4D"/>
<path d="M80.2449 69.0509L80.9107 128.779L113.362 120.082L125.249 92.4027L80.2518 69.044L80.2449 69.0509Z" fill="#508FFF"/>
<path d="M83.8651 78.2058L104.776 46.1846L129.993 61.9143L124.812 77.8174L83.8651 78.2058Z" fill="#508FFF"/>
<path d="M115.348 67.4013L101.232 61.252L100.11 63.8271L114.226 69.9764L115.348 67.4013Z" fill="white"/>
<path d="M107.698 100.995L93.583 94.8458L92.4612 97.4209L106.577 103.57L107.698 100.995Z" fill="white"/>
<path d="M142.838 25.2325L90.343 31.0792C83.2965 31.0514 76.3957 34.5677 72.394 40.983C66.2491 50.8384 69.2591 63.8077 79.1214 69.9456C88.2554 75.6396 100.053 73.4619 106.627 65.278L142.838 25.2325Z" fill="#00DDA8"/>
<path d="M89.2403 69.0717C98.5557 69.0717 106.107 61.5201 106.107 52.2046C106.107 42.8892 98.5557 35.3375 89.2403 35.3375C79.9248 35.3375 72.3732 42.8892 72.3732 52.2046C72.3732 61.5201 79.9248 69.0717 89.2403 69.0717Z" fill="#508FFF"/>
<mask id="mask7_1691_14053" style="mask-type:luminance" maskUnits="userSpaceOnUse" x="72" y="35" width="35" height="35">
<path d="M89.2403 69.0717C98.5557 69.0717 106.107 61.5201 106.107 52.2046C106.107 42.8892 98.5557 35.3375 89.2403 35.3375C79.9248 35.3375 72.3732 42.8892 72.3732 52.2046C72.3732 61.5201 79.9248 69.0717 89.2403 69.0717Z" fill="white"/>
</mask>
<g mask="url(#mask7_1691_14053)">
<path d="M105.899 42.3146L99.3729 36.0311L82.9358 34.2487L74.2526 41.1287L72.387 40.8166C72.387 40.8166 72.4841 53.1201 80.4807 43.6116C80.7928 46.4898 82.166 52.3641 88.2553 45.3177C88.6368 48.3277 90.1626 53.6611 96.252 46.3996H96.2658C96.5849 49.4512 98.1037 56.0399 105.296 46.6008L105.892 42.3146H105.899Z" fill="#171717"/>
</g>
<path d="M78.199 57.3785C80.547 57.3785 82.4504 55.4751 82.4504 53.1271C82.4504 50.7791 80.547 48.8756 78.199 48.8756C75.8509 48.8756 73.9475 50.7791 73.9475 53.1271C73.9475 55.4751 75.8509 57.3785 78.199 57.3785Z" fill="white"/>
<path d="M78.1989 54.5489C78.9841 54.5489 79.6206 53.9123 79.6206 53.1271C79.6206 52.3419 78.9841 51.7053 78.1989 51.7053C77.4136 51.7053 76.7771 52.3419 76.7771 53.1271C76.7771 53.9123 77.4136 54.5489 78.1989 54.5489Z" fill="#171717"/>
<path d="M88.297 59.1886C90.645 59.1886 92.5484 57.2852 92.5484 54.9372C92.5484 52.5892 90.645 50.6857 88.297 50.6857C85.949 50.6857 84.0455 52.5892 84.0455 54.9372C84.0455 57.2852 85.949 59.1886 88.297 59.1886Z" fill="white"/>
<path d="M88.297 56.359C89.0822 56.359 89.7188 55.7224 89.7188 54.9372C89.7188 54.152 89.0822 53.5154 88.297 53.5154C87.5118 53.5154 86.8752 54.152 86.8752 54.9372C86.8752 55.7224 87.5118 56.359 88.297 56.359Z" fill="#171717"/>
<path d="M82.8803 60.2013C84.3205 60.2013 85.4881 59.0337 85.4881 57.5935C85.4881 56.1533 84.3205 54.9858 82.8803 54.9858C81.4401 54.9858 80.2726 56.1533 80.2726 57.5935C80.2726 59.0337 81.4401 60.2013 82.8803 60.2013Z" fill="#00DDA8"/>
<path d="M179.66 52.815H186.012V35.4902C186.463 35.2267 186.755 35.0047 186.755 35.0047C186.755 35.0047 192.324 30.4342 190.063 28.1733C187.802 25.9123 179.923 30.5383 179.687 32.6883C179.653 32.9796 179.653 33.2431 179.673 33.4997H179.66V52.8081V52.815Z" fill="#00DDA8"/>
<mask id="mask8_1691_14053" style="mask-type:luminance" maskUnits="userSpaceOnUse" x="179" y="27" width="12" height="26">
<path d="M179.66 52.815H186.012V35.4902C186.463 35.2267 186.755 35.0047 186.755 35.0047C186.755 35.0047 192.324 30.4342 190.063 28.1733C187.802 25.9123 179.923 30.5383 179.687 32.6883C179.653 32.9796 179.653 33.2431 179.673 33.4997H179.66V52.8081V52.815Z" fill="white"/>
</mask>
<g mask="url(#mask8_1691_14053)">
<path d="M169.346 44.1389H190.603V22.8816L169.346 22.8816V44.1389Z" fill="#171717"/>
</g>
<path d="M181.49 43.1401C181.847 43.1401 182.135 42.8513 182.135 42.4951C182.135 42.1389 181.847 41.8501 181.49 41.8501C181.134 41.8501 180.845 42.1389 180.845 42.4951C180.845 42.8513 181.134 43.1401 181.49 43.1401Z" fill="#4D4D4D"/>
<path d="M181.49 41.2398C181.847 41.2398 182.135 40.951 182.135 40.5948C182.135 40.2385 181.847 39.9498 181.49 39.9498C181.134 39.9498 180.845 40.2385 180.845 40.5948C180.845 40.951 181.134 41.2398 181.49 41.2398Z" fill="#4D4D4D"/>
<path d="M149.552 58.3219L136.347 88.3941L153.95 117.003L159.082 97.2022L199.426 99.4007L189.889 75.931L162.016 83.2688V71.5339L200.889 75.938L195.757 45.8657L149.546 58.3357L149.552 58.3219Z" fill="#FF5858"/>
<path d="M115.603 99.8862L153.54 136.637C158.007 142.089 165.109 145.168 172.606 144.162C184.119 142.623 192.199 132.039 190.659 120.533C189.23 109.866 180.041 102.154 169.541 102.3L115.603 99.8862Z" fill="#00DDA8"/>
<path d="M170.095 140.043C179.411 140.043 186.962 132.491 186.962 123.175C186.962 113.86 179.411 106.308 170.095 106.308C160.78 106.308 153.228 113.86 153.228 123.175C153.228 132.491 160.78 140.043 170.095 140.043Z" fill="#FF5858"/>
<mask id="mask9_1691_14053" style="mask-type:luminance" maskUnits="userSpaceOnUse" x="153" y="106" width="34" height="35">
<path d="M170.095 140.043C179.411 140.043 186.962 132.491 186.962 123.175C186.962 113.86 179.411 106.308 170.095 106.308C160.78 106.308 153.228 113.86 153.228 123.175C153.228 132.491 160.78 140.043 170.095 140.043Z" fill="white"/>
</mask>
<g mask="url(#mask9_1691_14053)">
<path d="M155.434 135.84L162.966 140.875L179.458 139.73L186.789 131.429L188.682 131.408C188.682 131.408 186.421 119.312 180.221 130.083C179.41 127.302 177.024 121.768 172.266 129.778C171.364 126.886 168.916 121.906 164.2 130.125H164.186C163.333 127.177 160.684 120.963 155.26 131.519L155.434 135.847V135.84Z" fill="#171717"/>
</g>
<path d="M178.834 115.248C176.587 116.67 177.378 120.27 177.468 120.658C177.537 120.949 178.397 124.424 180.727 124.701C182.801 124.951 184.778 122.51 185.09 120.235C185.298 118.723 184.861 116.573 183.092 115.456C181.948 114.728 180.18 114.395 178.834 115.248Z" fill="white"/>
<mask id="mask10_1691_14053" style="mask-type:luminance" maskUnits="userSpaceOnUse" x="177" y="114" width="9" height="11">
<path d="M178.834 115.248C176.587 116.67 177.378 120.27 177.468 120.658C177.537 120.949 178.397 124.424 180.727 124.701C182.801 124.951 184.778 122.51 185.09 120.235C185.298 118.723 184.861 116.573 183.092 115.456C181.948 114.728 180.18 114.395 178.834 115.248Z" fill="white"/>
</mask>
<g mask="url(#mask10_1691_14053)">
<path d="M185.339 121.317C185.43 119.992 184.653 118.237 183.162 117.967C181.664 117.697 180.381 119.098 179.951 120.283C179.34 121.955 180.048 124.188 181.449 124.639C183.009 125.138 185.201 123.342 185.339 121.317Z" fill="#171717"/>
</g>
<path d="M168.126 115.248C165.879 116.67 166.669 120.27 166.759 120.658C166.829 120.949 167.689 124.424 170.019 124.701C172.093 124.951 174.069 122.51 174.382 120.235C174.59 118.723 174.153 116.573 172.384 115.456C171.24 114.728 169.471 114.395 168.126 115.248Z" fill="white"/>
<mask id="mask11_1691_14053" style="mask-type:luminance" maskUnits="userSpaceOnUse" x="166" y="114" width="9" height="11">
<path d="M168.126 115.248C165.879 116.67 166.669 120.27 166.759 120.658C166.829 120.949 167.689 124.424 170.019 124.701C172.093 124.951 174.069 122.51 174.382 120.235C174.59 118.723 174.153 116.573 172.384 115.456C171.24 114.728 169.471 114.395 168.126 115.248Z" fill="white"/>
</mask>
<g mask="url(#mask11_1691_14053)">
<path d="M174.631 121.317C174.721 119.992 173.945 118.237 172.453 117.967C170.955 117.697 169.672 119.098 169.242 120.283C168.632 121.955 169.339 124.188 170.74 124.639C172.301 125.138 174.492 123.342 174.631 121.317Z" fill="#171717"/>
</g>
<path d="M175.956 119.396C177.396 119.396 178.564 118.228 178.564 116.788C178.564 115.348 177.396 114.18 175.956 114.18C174.516 114.18 173.348 115.348 173.348 116.788C173.348 118.228 174.516 119.396 175.956 119.396Z" fill="#00DDA8"/>
<path d="M144.032 74.2734V77.5747" stroke="white" stroke-width="0.693548" stroke-miterlimit="10"/>
<path d="M147.756 77.9977V81.299" stroke="white" stroke-width="0.693548" stroke-miterlimit="10"/>
<path d="M151.488 81.729V85.0303" stroke="white" stroke-width="0.693548" stroke-miterlimit="10"/>
<path d="M155.212 85.4534V88.7547" stroke="white" stroke-width="0.693548" stroke-miterlimit="10"/>
<path d="M158.936 89.1777V92.479" stroke="white" stroke-width="0.693548" stroke-miterlimit="10"/>
<path d="M144.032 66.145V69.4463" stroke="white" stroke-width="0.693548" stroke-miterlimit="10"/>
<path d="M147.756 69.8762V73.1775" stroke="white" stroke-width="0.693548" stroke-miterlimit="10"/>
<path d="M151.488 73.6006V76.9019" stroke="white" stroke-width="0.693548" stroke-miterlimit="10"/>
<path d="M155.212 77.325V80.6262" stroke="white" stroke-width="0.693548" stroke-miterlimit="10"/>
<path d="M158.936 81.0493V84.3506" stroke="white" stroke-width="0.693548" stroke-miterlimit="10"/>
<path d="M147.756 61.7479V65.0492" stroke="white" stroke-width="0.693548" stroke-miterlimit="10"/>
<path d="M151.488 65.4722V68.7735" stroke="white" stroke-width="0.693548" stroke-miterlimit="10"/>
<path d="M144.032 98.9568V101.162" stroke="white" stroke-width="0.693548" stroke-miterlimit="10"/>
<path d="M144.032 90.8284V94.1297" stroke="white" stroke-width="0.693548" stroke-miterlimit="10"/>
<path d="M147.756 94.5527V97.854" stroke="white" stroke-width="0.693548" stroke-miterlimit="10"/>
<path d="M151.488 98.2841V101.585" stroke="white" stroke-width="0.693548" stroke-miterlimit="10"/>
<path d="M144.032 82.7V86.0012" stroke="white" stroke-width="0.693548" stroke-miterlimit="10"/>
<path d="M147.756 86.4313V89.7326" stroke="white" stroke-width="0.693548" stroke-miterlimit="10"/>
<path d="M151.488 90.1555V93.4568" stroke="white" stroke-width="0.693548" stroke-miterlimit="10"/>
<path d="M155.212 69.1966V72.4979" stroke="white" stroke-width="0.693548" stroke-miterlimit="10"/>
<path d="M158.936 72.9279V76.2291" stroke="white" stroke-width="0.693548" stroke-miterlimit="10"/>
<path d="M189.945 57.6214L194.182 62.3583L207.089 50.7968C207.589 50.9564 207.942 51.0257 207.942 51.0257C207.942 51.0257 215.058 52.1215 215.238 48.9312C215.412 45.7409 206.708 42.9528 204.953 44.2151C204.717 44.3885 204.516 44.5618 204.343 44.7422V44.7283L189.952 57.6144L189.945 57.6214Z" fill="#00DDA8"/>
<mask id="mask12_1691_14053" style="mask-type:luminance" maskUnits="userSpaceOnUse" x="189" y="43" width="27" height="20">
<path d="M189.945 57.6214L194.182 62.3583L207.089 50.7968C207.589 50.9564 207.942 51.0257 207.942 51.0257C207.942 51.0257 215.058 52.1215 215.238 48.9312C215.412 45.7409 206.708 42.9528 204.953 44.2151C204.717 44.3885 204.516 44.5618 204.343 44.7422V44.7283L189.952 57.6144L189.945 57.6214Z" fill="white"/>
</mask>
<g mask="url(#mask12_1691_14053)">
<path d="M189.544 44.1373L203.726 59.9717L219.561 45.7892L205.378 29.9548L189.544 44.1373Z" fill="#171717"/>
</g>
<path d="M198.857 52.7387C199.213 52.7387 199.502 52.45 199.502 52.0937C199.502 51.7375 199.213 51.4487 198.857 51.4487C198.501 51.4487 198.212 51.7375 198.212 52.0937C198.212 52.45 198.501 52.7387 198.857 52.7387Z" fill="#4D4D4D"/>
<path d="M200.272 51.4696C200.628 51.4696 200.917 51.1808 200.917 50.8246C200.917 50.4683 200.628 50.1796 200.272 50.1796C199.915 50.1796 199.627 50.4683 199.627 50.8246C199.627 51.1808 199.915 51.4696 200.272 51.4696Z" fill="#4D4D4D"/>
</g>
<defs>
<clipPath id="clip0_1691_14053">
<rect width="215" height="148" fill="white"/>
</clipPath>
</defs>
</svg>
