<svg width="268" height="160" viewBox="0 0 268 160" fill="none" xmlns="http://www.w3.org/2000/svg">
<path d="M40.7655 125.495L29.8564 84.9613H44.8564V100.161L49.8564 84.9613L59.8564 74.828L69.8564 95.0946L73.4927 54.5613L89.8564 49.4946L84.8564 100.161L78.9473 125.495L59.8564 120.428L54.8564 100.161L49.8564 125.495H40.7655Z" fill="#00DDA8"/>
<circle cx="43.3564" cy="57.9944" r="13.5" fill="#00DDA8"/>
<path d="M64.6663 33.9439C49.3084 29.0373 38.1877 39.5645 34.2808 46.2746L58.2775 53.9411L64.6663 33.9439Z" fill="#FF5858"/>
<circle cx="61.946" cy="28.6678" r="4.1986" transform="rotate(17.7179 61.946 28.6678)" fill="white"/>
<circle cx="60.6682" cy="32.6669" r="4.1986" transform="rotate(17.7179 60.6682 32.6669)" fill="white"/>
<circle cx="64.6686" cy="33.9444" r="4.1986" transform="rotate(17.7179 64.6686 33.9444)" fill="white"/>
<circle cx="34.2775" cy="46.2757" r="4.1986" transform="rotate(17.7179 34.2775 46.2757)" fill="white"/>
<circle cx="38.2791" cy="47.5536" r="4.1986" transform="rotate(17.7179 38.2791 47.5536)" fill="white"/>
<circle cx="42.2808" cy="48.8309" r="4.1986" transform="rotate(17.7179 42.2808 48.8309)" fill="white"/>
<circle cx="46.2751" cy="50.11" r="4.1986" transform="rotate(17.7179 46.2751 50.11)" fill="white"/>
<circle cx="50.2816" cy="51.3866" r="4.1986" transform="rotate(17.7179 50.2816 51.3866)" fill="white"/>
<circle cx="54.2759" cy="52.6642" r="4.1986" transform="rotate(17.7179 54.2759 52.6642)" fill="white"/>
<circle cx="58.2751" cy="53.9422" r="4.1986" transform="rotate(17.7179 58.2751 53.9422)" fill="white"/>
<circle cx="65.9452" cy="29.9449" r="4.1986" transform="rotate(17.7179 65.9452 29.9449)" fill="white"/>
<path d="M109.78 127.386C98.3318 127.386 91.3344 119.77 91.3344 107.877C91.3344 96.1572 98.4307 88.1708 109.285 88.1708C118.607 88.1708 126.643 94.0061 126.643 107.358V110.102H100.161C100.26 116.63 104.093 120.462 109.879 120.462C113.76 120.462 116.406 118.756 117.568 116.482H126.272C124.664 123.059 118.607 127.386 109.78 127.386ZM100.186 104.069H118.087C118.063 98.9017 114.576 95.1187 109.434 95.1187C104.068 95.1187 100.458 99.2232 100.186 104.069ZM193.112 88.6654V95.5391H185.645V115.221C185.645 118.88 187.45 119.622 189.724 119.671C190.763 119.696 192.518 119.572 193.631 119.498V126.792C192.568 126.965 190.862 127.163 188.587 127.163C181.886 127.163 176.719 123.85 176.743 116.704V95.5391H171.353V88.6654H176.743V79.5664H185.645V88.6654H193.112ZM209.695 104.391V126.644H200.794V76.0059H209.497V95.1187H209.967C211.722 90.8165 215.406 88.1708 221.242 88.1708C229.104 88.1708 234.321 93.2643 234.321 102.462V126.644H225.42V103.822C225.42 98.6792 222.651 95.7121 217.928 95.7121C213.132 95.7121 209.695 98.877 209.695 104.391Z" fill="#00DDA8"/>
<path d="M150.407 127.386C138.959 127.386 131.962 119.77 131.962 107.877C131.962 96.1572 139.058 88.1708 149.913 88.1708C159.234 88.1708 167.27 94.0061 167.27 107.358V110.102H140.789C140.888 116.63 144.72 120.462 150.506 120.462C154.388 120.462 157.034 118.756 158.196 116.482H166.899C165.292 123.059 159.234 127.386 150.407 127.386ZM140.814 104.069H158.715C158.69 98.9017 155.204 95.1187 150.061 95.1187C144.696 95.1187 141.086 99.2232 140.814 104.069Z" fill="white"/>
<circle cx="14" cy="68" r="4" fill="white"/>
<circle cx="12" cy="121" r="4" fill="white"/>
<circle cx="17" cy="118" r="4" fill="white"/>
<circle cx="17" cy="122" r="4" fill="white"/>
<circle cx="21" cy="122" r="4" fill="white"/>
<circle cx="6" cy="122" r="4" fill="white"/>
<circle cx="105" cy="16" r="4" fill="white"/>
<circle cx="150" cy="52" r="4" fill="white"/>
<circle cx="180" cy="76" r="4" fill="white"/>
<circle cx="183" cy="78" r="4" fill="white"/>
<circle cx="190" cy="86" r="4" fill="white"/>
<circle cx="187" cy="86" r="4" fill="white"/>
<circle cx="175" cy="86" r="4" fill="white"/>
<circle cx="203" cy="74" r="4" fill="white"/>
<circle cx="208" cy="73" r="4" fill="white"/>
<circle cx="219" cy="85" r="4" fill="white"/>
<circle cx="224" cy="83" r="4" fill="white"/>
<circle cx="225" cy="87" r="4" fill="white"/>
<circle cx="230" cy="88" r="4" fill="white"/>
<circle cx="122" cy="60" r="4" fill="white"/>
<circle cx="88" cy="48" r="4" fill="white"/>
<circle cx="85" cy="47" r="4" fill="white"/>
<circle cx="82" cy="51" r="4" fill="white"/>
<circle cx="76" cy="52" r="4" fill="white"/>
<circle cx="119" cy="88" r="4" fill="white"/>
<circle cx="114" cy="86" r="4" fill="white"/>
<circle cx="109" cy="87" r="4" fill="white"/>
<circle cx="218" cy="20" r="4" fill="white"/>
<circle cx="243" cy="52" r="4" fill="white"/>
<circle cx="239" cy="122" r="4" fill="white"/>
<circle cx="244" cy="121" r="4" fill="white"/>
<circle cx="247" cy="123" r="4" fill="white"/>
<circle cx="250" cy="122" r="4" fill="white"/>
<circle cx="254" cy="122" r="4" fill="white"/>
<circle cx="258" cy="122" r="4" fill="white"/>
<circle cx="150" cy="78" r="13" fill="white"/>
<circle cx="147" cy="79" r="1" fill="#1F1F1F"/>
<circle cx="156" cy="79" r="1" fill="#1F1F1F"/>
<path d="M158.635 86.4951L149 83.8174L149.803 80.927L152.091 79.4868L158.635 86.4951Z" fill="#FFF700"/>
<path d="M169.565 123.409C168.316 125.557 167.052 127.731 164.026 125.972C161 124.213 162.264 122.039 163.513 119.89C164.763 117.742 167.13 116.788 168.801 117.759C170.472 118.731 170.814 121.26 169.565 123.409Z" fill="#FF5858"/>
<path d="M160.31 123.945C160.148 126.425 159.985 128.934 156.493 128.707C153 128.48 153.163 125.971 153.324 123.491C153.486 121.01 155.18 119.102 157.109 119.227C159.038 119.352 160.471 121.465 160.31 123.945Z" fill="#FF5858"/>
</svg>
