<svg width="40" height="40" viewBox="0 0 40 40" fill="none" xmlns="http://www.w3.org/2000/svg">
<path d="M12.1103 40.0002L7.49994 23.0955H13.8392V29.4348L15.9523 23.0955L20.1784 18.8694L24.4046 27.3217L25.9414 10.417L32.8569 8.30396L30.7438 29.4348L28.2465 40.0002L20.1784 37.8871L18.0653 29.4348L15.9523 40.0002H12.1103Z" fill="#00DDA8"/>
<circle cx="13.1348" cy="11.8256" r="5.63488" fill="#00DDA8"/>
<path d="M20.132 3.13034C15.0587 1.50951 11.3851 4.98702 10.0945 7.20361L18.0215 9.73617L20.132 3.13034Z" fill="#FF5858"/>
<path d="M20.5542 1.80942C20.3211 2.53908 19.5406 2.9416 18.8109 2.70849C18.0813 2.47537 17.6787 1.69489 17.9118 0.965233C18.145 0.235575 18.9254 -0.166954 19.6551 0.0661609C20.3848 0.299276 20.7873 1.07976 20.5542 1.80942Z" fill="white"/>
<path d="M20.132 3.13034C19.8988 3.86 19.1193 4.26272 18.3897 4.02961C17.66 3.79649 17.2575 3.01601 17.4906 2.28635C17.7237 1.55669 18.5042 1.15416 19.2339 1.38728C19.9635 1.62039 20.3651 2.40068 20.132 3.13034Z" fill="white"/>
<path d="M21.4534 3.55241C21.2203 4.28207 20.4398 4.6846 19.7102 4.45148C18.9805 4.21837 18.5778 3.43815 18.8109 2.70849C19.044 1.97883 19.8245 1.5763 20.5542 1.80942C21.2838 2.04253 21.6865 2.82275 21.4534 3.55241Z" fill="white"/>
<path d="M11.4157 7.62573C11.1826 8.35539 10.4021 8.75792 9.67245 8.5248C8.94279 8.29169 8.54026 7.5112 8.77338 6.78155C9.00649 6.05189 9.78697 5.64936 10.5166 5.88247C11.2463 6.11559 11.6488 6.89607 11.4157 7.62573Z" fill="white"/>
<path d="M12.7376 8.04811C12.5045 8.77777 11.724 9.18029 10.9943 8.94718C10.2647 8.71406 9.86139 7.93327 10.0945 7.20361C10.3276 6.47396 11.1088 6.07174 11.8385 6.30485C12.5682 6.53796 12.9707 7.31845 12.7376 8.04811Z" fill="white"/>
<path d="M14.0582 8.46998C13.8251 9.19964 13.0446 9.60217 12.3149 9.36906C11.5853 9.13594 11.1826 8.35539 11.4157 7.62573C11.6488 6.89607 12.4295 6.49361 13.1591 6.72673C13.8888 6.95984 14.2913 7.74033 14.0582 8.46998Z" fill="white"/>
<path d="M15.3788 8.89236C15.1457 9.62202 14.3652 10.0245 13.6355 9.79143C12.9059 9.55832 12.5034 8.77784 12.7365 8.04818C12.9696 7.31852 13.7501 6.91599 14.4797 7.14911C15.2094 7.38222 15.6119 8.1627 15.3788 8.89236Z" fill="white"/>
<path d="M16.7007 9.31424C16.4676 10.0439 15.6871 10.4464 14.9574 10.2133C14.2278 9.9802 13.8251 9.19964 14.0582 8.46998C14.2913 7.74033 15.0719 7.33787 15.8016 7.57098C16.5313 7.8041 16.9338 8.58458 16.7007 9.31424Z" fill="white"/>
<path d="M18.0215 9.73617C17.7884 10.4658 17.0077 10.8683 16.278 10.6352C15.5484 10.4021 15.1457 9.62202 15.3788 8.89236C15.6119 8.1627 16.3926 7.75975 17.1222 7.99286C17.8519 8.22598 18.2546 9.00651 18.0215 9.73617Z" fill="white"/>
<path d="M19.3433 10.1585C19.1102 10.8882 18.3297 11.2907 17.6 11.0576C16.8704 10.8245 16.4676 10.0439 16.7007 9.31424C16.9338 8.58458 17.7145 8.18212 18.4442 8.41524C19.1739 8.64835 19.5764 9.42883 19.3433 10.1585Z" fill="white"/>
<path d="M21.876 2.23129C21.6429 2.96095 20.8616 3.36346 20.132 3.13034C19.4023 2.89723 19.0007 2.11694 19.2339 1.38728C19.467 0.657619 20.2473 0.254924 20.977 0.488039C21.7066 0.721153 22.1092 1.50164 21.876 2.23129Z" fill="white"/>
</svg>
