<svg width="268" height="160" viewBox="0 0 268 160" fill="none" xmlns="http://www.w3.org/2000/svg">
<path d="M40.1317 125.494L29.2227 84.9611H44.2227V100.161L49.2227 84.9611L59.2227 74.8278L69.2227 95.0944L72.859 54.5611L89.2227 49.4944L84.2227 100.161L78.3136 125.494L59.2227 120.428L54.2227 100.161L49.2227 125.494H40.1317Z" fill="#00DDA8"/>
<circle cx="42.7227" cy="57.9944" r="13.5" fill="#00DDA8"/>
<path d="M109.146 127.385C97.698 127.385 90.7007 119.77 90.7007 107.877C90.7007 96.1571 97.7969 88.1707 108.651 88.1707C117.973 88.1707 126.009 94.006 126.009 107.358V110.102H99.5277C99.6266 116.63 103.459 120.462 109.245 120.462C113.127 120.462 115.772 118.756 116.935 116.481H125.638C124.031 123.058 117.973 127.385 109.146 127.385ZM99.5524 104.069H117.454C117.429 98.9016 113.943 95.1186 108.8 95.1186C103.434 95.1186 99.8244 99.223 99.5524 104.069ZM149.774 127.385C138.326 127.385 131.328 119.77 131.328 107.877C131.328 96.1571 138.424 88.1707 149.279 88.1707C158.601 88.1707 166.636 94.006 166.636 107.358V110.102H140.155C140.254 116.63 144.087 120.462 149.872 120.462C153.754 120.462 156.4 118.756 157.562 116.481H166.265C164.658 123.058 158.601 127.385 149.774 127.385ZM140.18 104.069H158.081C158.057 98.9016 154.57 95.1186 149.427 95.1186C144.062 95.1186 140.452 99.223 140.18 104.069ZM192.478 88.6652V95.5389H185.011V115.22C185.011 118.88 186.816 119.622 189.091 119.671C190.129 119.696 191.885 119.572 192.997 119.498V126.792C191.934 126.965 190.228 127.163 187.953 127.163C181.253 127.163 176.085 123.85 176.11 116.704V95.5389H170.72V88.6652H176.11V79.5662H185.011V88.6652H192.478ZM209.061 104.391V126.644H200.16V76.0058H208.863V95.1186H209.333C211.089 90.8164 214.773 88.1707 220.608 88.1707C228.471 88.1707 233.688 93.2642 233.688 102.462V126.644H224.787V103.822C224.787 98.6791 222.017 95.712 217.295 95.712C212.498 95.712 209.061 98.8769 209.061 104.391Z" fill="#00DDA8"/>
<path d="M101.367 36V41.5L109.867 39L112.867 30L107.367 33L105.867 28L101.367 36Z" fill="#FFD4FD"/>
<path d="M38.526 114.71L37.6742 120.917L31.6449 120.532L26.0651 115.699L28.9821 113.521L31.8517 114.036L33.4136 109.699L38.526 114.71Z" fill="#FFD4FD"/>
<path d="M229.046 129.087L226.482 133.991L221.586 131.87L218.393 126.184L221.469 125.246L223.7 126.532L226.295 123.394L229.046 129.087Z" fill="#FFD4FD"/>
<path d="M138 53L141.5 57.5L145.5 54L146 50L144 48L141.5 49.5L138.5 46L138 53Z" fill="#FFD4FD"/>
<path d="M228.995 125.063L226.673 128.791L230.317 130.586L233.369 129.794L234.28 127.827L232.503 126.509L234.233 123.415L228.995 125.063Z" fill="#FF90F9"/>
<path d="M124 69L129.5 73.5L131.5 70L132 66L127.5 62L126.5 64.5L124 63V69Z" fill="#FFD4FD"/>
<path d="M87.3294 90.4484L94.4345 90.5828L93.8413 86.5955L91.7603 83.1431L85.7503 82.7832L86.5107 85.3661L83.6185 85.7337L87.3294 90.4484Z" fill="#FFD4FD"/>
<path d="M203.676 132.051L209.759 131.864L208.068 128.456L205.27 125.573L200.052 125.519L201.467 127.71L199.117 128.15L203.676 132.051Z" fill="#FFD4FD"/>
<path d="M208.461 124.858L206.897 129.407L209.137 130.432L211.405 130.304L212.859 126.544L211.329 126.123L211.742 124.123L208.461 124.858Z" fill="#FF90F9"/>
<path d="M215.337 124.906L211.492 128.826L214.263 130.448L217.492 130.972L220.897 127.777L218.902 126.937L220.207 125.135L215.337 124.906Z" fill="#FFD4FD"/>
</svg>
